<svg width="148" height="148" viewBox="0 0 148 148" fill="none" xmlns="http://www.w3.org/2000/svg">
<g clip-path="url(#clip0_3197_66022)">
<g clip-path="url(#clip1_3197_66022)">
<ellipse cx="60.4599" cy="6.11808" rx="60.4599" ry="6.11808" transform="matrix(1 0 0 -1 42.7449 143.223)" fill="#141414"/>
<mask id="mask0_3197_66022" style="mask-type:alpha" maskUnits="userSpaceOnUse" x="-19" y="-4" width="182" height="148">
<path d="M162.901 137.105C162.901 141.168 136.115 142.458 106.268 143.223C66.4714 143.223 42.7477 141.167 42.7477 137.104C42.7477 133.042 -109.553 53.7461 64.9412 -3.61084C156.776 46.0985 162.901 133.042 162.901 137.105Z" fill="#141414"/>
</mask>
<g mask="url(#mask0_3197_66022)">
<path d="M137.598 141.446C138.469 129.181 119.816 90.457 112.92 79.335L79.4739 109.574L91.7189 145.517H131.515L135.816 147.812C135.816 147.812 137.327 145.255 137.598 141.446Z" fill="#141414" stroke="#141414" stroke-width="0.7"/>
<g clip-path="url(#clip2_3197_66022)">
<path d="M44.4829 42.2588C45.1535 42.2614 45.6803 42.2863 46.0161 42.335C46.0402 42.3385 46.0627 42.3432 46.0835 42.3467C45.9859 42.5619 45.8806 42.8363 45.77 43.1562C45.5952 43.6621 45.3949 44.3108 45.1743 45.0791C44.733 46.6164 44.2048 48.6475 43.6216 51.0049C42.4548 55.7205 41.0657 61.7553 39.7085 67.7881C37.1605 79.1134 34.7307 90.4082 34.0913 93.0166L33.9878 93.4199C33.9878 93.42 33.9857 93.4287 33.978 93.4482C33.9705 93.4675 33.9598 93.4928 33.9458 93.5244C33.9176 93.588 33.8776 93.6714 33.8267 93.7734C33.7249 93.9771 33.5812 94.2486 33.3979 94.5723C33.0312 95.2198 32.5105 96.0719 31.8647 97.0059C30.5699 98.8786 28.7859 101.06 26.7417 102.591C24.6949 104.124 22.4452 104.964 20.1802 104.287C17.905 103.607 15.4927 101.362 13.2124 96.4258L13.2075 96.415L13.2017 96.4033L12.9692 95.957C11.8594 93.691 11.5342 90.9589 11.7583 87.9688C11.9972 84.7809 12.8586 81.3264 14.0278 77.8848C16.3672 70.9988 19.9163 64.2239 22.0972 59.8018C23.3119 57.3402 24.5961 54.9087 25.9595 52.5264L26.5483 51.5088C28.1477 48.7831 29.8 46.0677 31.6597 43.5303C31.6841 43.5167 31.7242 43.4986 31.7837 43.4766C31.9068 43.4309 32.0829 43.3807 32.311 43.3281C32.7658 43.2234 33.3915 43.1165 34.1333 43.0127C35.6148 42.8054 37.5332 42.6148 39.4185 42.4766C41.3042 42.3383 43.1483 42.2537 44.4829 42.2588Z" fill="white" stroke="#141414" stroke-width="0.7"/>
<path d="M85.3957 57.2703C87.1431 56.8514 89.063 55.9572 90.4334 55.0912C90.2784 54.6688 84.751 39.8341 83.4863 36.6588C83.0636 35.5957 72.8966 41.9217 72.4104 42.3195C73.0234 45.5406 74.9328 52.6516 75.9474 55.9748C78.5931 57.4745 82.4541 57.9744 85.3922 57.2703H85.3957Z" fill="white"/>
<path d="M83.6145 45.415C84.5618 45.1092 85.3131 45.033 85.9583 45.1533C86.5991 45.2728 87.166 45.592 87.7366 46.1309C88.3118 46.6741 88.8827 47.4326 89.5276 48.4189C90.1721 49.4048 90.8782 50.5975 91.7317 52.0049C92.1599 52.7109 92.1217 53.1238 91.9329 53.3828C91.7134 53.6834 91.2031 53.9211 90.3684 54.0527C88.7264 54.3116 86.1717 54.1133 83.4631 53.7217C80.7654 53.3316 77.9518 52.7551 75.8108 52.2754C74.7408 52.0356 73.8397 51.8204 73.2063 51.665C73.0737 51.6325 72.9532 51.6012 72.845 51.5742C73.0324 51.4446 73.2641 51.2848 73.5325 51.1025C74.2932 50.5859 75.3479 49.8843 76.5237 49.1436C78.8862 47.6552 81.7037 46.032 83.6145 45.415Z" fill="#1ED760" stroke="#141414" stroke-width="0.6"/>
<path d="M65.939 25.8267C65.016 28.3086 64.9314 30.4595 64.6637 32.2548C64.1564 35.7083 64.3572 37.4227 64.1634 40.5452C64.1599 40.5874 64.1529 40.6262 64.1529 40.6754C64.0648 41.9956 64.0859 43.3122 64.3713 44.4739C64.8645 46.5368 66.175 48.135 69.1483 48.4554C73.8866 48.9728 78.5932 45.801 81.9258 42.5518C85.9243 38.6407 88.2247 34.191 88.6157 28.6113C88.6827 27.6714 88.6897 26.7244 88.5664 25.7986C88.4924 25.267 88.3832 24.7425 88.2141 24.2285C86.2167 18.2158 78.6495 16.9766 73.3265 18.5925C69.7613 19.6767 67.2284 22.3662 65.9425 25.8267H65.939Z" fill="white"/>
<path d="M89.7007 25.4608C88.739 17.702 81.1859 15.1604 75.7466 16.7023C71.4733 17.9168 65.5549 20.1205 64.114 24.7568C63.6737 26.1719 63.7019 27.4463 64.6073 27.9673C66.4286 29.0163 71.1598 28.0623 73.6117 27.0907C73.27 27.5836 72.9529 28.1046 72.879 28.7136C72.7592 29.7169 73.1502 30.692 74.0908 31.1637C74.5946 31.4172 75.1407 31.4383 75.6761 31.3538C75.7607 32.6141 76.3525 33.7758 77.8885 34.9833C77.8885 34.9833 77.6384 38.6761 78.0928 39.514C79.7486 42.5872 84.0817 44.2946 86.4632 44.4706L84.744 39.3133C84.744 39.3133 90.7611 33.9941 89.7007 25.4573V25.4608Z" fill="#141414"/>
<path d="M80.4848 34.9904C80.2452 37.0639 78.4133 38.6727 76.3982 38.5811C74.3796 38.4896 72.9423 36.733 73.1818 34.656C73.4214 32.5825 75.2533 30.9737 77.2684 31.0652C79.287 31.1568 80.7243 32.9134 80.4848 34.9904Z" fill="white"/>
<path d="M77.744 44.8685C76.6448 46.002 75.3378 46.9032 73.8934 47.5404C73.6997 47.6249 73.6539 47.91 73.7525 48.079C73.8688 48.2797 74.0978 48.3078 74.2915 48.2198C75.7923 47.558 77.1592 46.6005 78.3041 45.4247C78.6599 45.0586 78.0998 44.5023 77.744 44.8649V44.8685Z" fill="#141414"/>
<path d="M78.5509 35.983C78.9666 35.3458 79.0054 34.5221 78.6813 33.8427C78.3889 33.2336 77.7547 32.7725 77.0889 32.6739C76.8776 32.6422 76.6662 32.7267 76.6028 32.9485C76.5499 33.1351 76.6662 33.4026 76.8776 33.4343C77.0079 33.4519 77.1382 33.4871 77.2615 33.5329C77.2122 33.5153 77.2756 33.5399 77.2933 33.5469C77.3214 33.561 77.3531 33.5751 77.3813 33.5927C77.4412 33.6244 77.4941 33.6596 77.5504 33.6983C77.561 33.7054 77.5716 33.7124 77.5821 33.723C77.561 33.7054 77.561 33.7054 77.5821 33.723C77.6068 33.7441 77.6314 33.7652 77.6561 33.7863C77.7054 33.8321 77.7512 33.8779 77.797 33.9271C77.8041 33.9342 77.864 34.0081 77.8428 33.9799C77.8217 33.9553 77.8816 34.0363 77.8816 34.0363C77.9168 34.0926 77.952 34.1489 77.9802 34.2088C77.9908 34.2334 78.0049 34.2545 78.0154 34.2792C77.9943 34.2299 78.0366 34.3461 78.0366 34.3425C78.0577 34.4094 78.0753 34.4798 78.0894 34.5467C78.107 34.6382 78.1141 34.7439 78.107 34.8847C78.107 34.9199 78.1035 34.9551 78.1 34.9903C78.107 34.934 78.0929 35.022 78.0929 35.0325C78.0789 35.1029 78.0612 35.1698 78.0401 35.2402C78.0119 35.3282 78.0154 35.3212 77.9837 35.381C77.9485 35.4514 77.9098 35.5183 77.8675 35.5852C77.7512 35.7648 77.8323 36.0217 78.0084 36.1238C78.2022 36.2365 78.4311 36.1625 78.5474 35.983H78.5509Z" fill="#141414"/>
<path d="M118.856 91.5479C118.032 89.3935 117.028 87.3094 116.077 85.2078C114.164 80.9764 112.127 76.7977 109.834 72.7564C107.569 68.7679 105.039 64.9202 102.126 61.3752C99.2195 57.8373 95.9397 54.317 92.0082 51.9091C90.053 50.7122 87.8688 49.8286 85.5719 49.6138C83.0178 49.3744 80.4814 49.8919 78.0788 50.7298C75.7501 51.5394 73.5272 52.6343 71.3007 53.6833C69.2117 54.669 67.1261 55.6653 65.0582 56.6967C63.6702 57.3902 62.2822 58.0978 60.9047 58.83C60.8484 63.8007 61.2288 68.7538 61.6903 73.3584C62.4337 80.7476 63.8595 85.5467 65.5998 92.7563C68.6323 105.311 74.2028 108.933 83.3436 123.358C92.4844 137.783 102.97 122.945 117.524 104.098C117.524 104.098 122.013 99.7643 118.867 91.5409L118.856 91.5479Z" fill="#141414"/>
<path d="M16.2734 21.3633L42.6527 22.2117V32.6987H16.2734V21.3633Z" fill="#0062FF"/>
<path d="M16.2734 44.0377L42.6527 43.1893V32.6987H16.2734V44.0377Z" fill="#0062FF"/>
<path d="M16.2734 44.0342C19.4059 44.0342 21.9452 38.9591 21.9452 32.6987C21.9452 26.4383 19.4059 21.3633 16.2734 21.3633C13.1409 21.3633 10.6016 26.4383 10.6016 32.6987C10.6016 38.9591 13.1409 44.0342 16.2734 44.0342Z" fill="#0062FF"/>
<path d="M42.6527 43.1891C45.5516 43.1891 47.9017 38.4923 47.9017 32.6986C47.9017 26.9048 45.5516 22.208 42.6527 22.208C39.7537 22.208 37.4036 26.9048 37.4036 32.6986C37.4036 38.4923 39.7537 43.1891 42.6527 43.1891Z" fill="#141414"/>
<path d="M16.2734 41.7775C18.4876 41.7775 20.2825 37.7127 20.2825 32.6985C20.2825 27.6844 18.4876 23.6196 16.2734 23.6196C14.0593 23.6196 12.2644 27.6844 12.2644 32.6985C12.2644 37.7127 14.0593 41.7775 16.2734 41.7775Z" fill="white"/>
<path d="M27.8142 20.2051L51.0969 21.1415V32.6987H27.8142V20.2051Z" fill="#0062FF"/>
<path d="M27.8142 45.1924L51.0969 44.2595V32.6987H27.8142V45.1924Z" fill="#0062FF"/>
<path d="M27.8143 45.1923C31.2658 45.1923 34.0639 39.5987 34.0639 32.6987C34.0639 25.7987 31.2658 20.2051 27.8143 20.2051C24.3627 20.2051 21.5647 25.7987 21.5647 32.6987C21.5647 39.5987 24.3627 45.1923 27.8143 45.1923Z" fill="#0062FF"/>
<path d="M51.0971 44.2597C54.2918 44.2597 56.8816 39.0837 56.8816 32.6989C56.8816 26.3141 54.2918 21.1382 51.0971 21.1382C47.9023 21.1382 45.3125 26.3141 45.3125 32.6989C45.3125 39.0837 47.9023 44.2597 51.0971 44.2597Z" fill="#141414"/>
<path d="M48.5322 24.2886L63.6278 24.8905V32.3853H48.5322V24.2886Z" fill="#141414"/>
<path d="M48.5322 40.4855L63.6278 39.88V32.3853H48.5322V40.4855Z" fill="#141414"/>
<path d="M63.6277 39.8802C65.6979 39.8802 67.3761 36.5246 67.3761 32.3854C67.3761 28.2461 65.6979 24.8906 63.6277 24.8906C61.5576 24.8906 59.8794 28.2461 59.8794 32.3854C59.8794 36.5246 61.5576 39.8802 63.6277 39.8802Z" fill="#141414"/>
<path d="M27.8142 42.707C30.254 42.707 32.2319 38.2261 32.2319 32.6987C32.2319 27.1713 30.254 22.6904 27.8142 22.6904C25.3744 22.6904 23.3965 27.1713 23.3965 32.6987C23.3965 38.2261 25.3744 42.707 27.8142 42.707Z" fill="white"/>
<path d="M62.3666 27.8056C62.0883 26.0947 61.803 24.2888 61.2287 22.6448C60.9927 21.9689 60.6616 21.307 60.0556 20.8916C59.3687 20.4164 58.4844 20.4023 57.7552 20.7966C56.3813 21.5323 55.8951 23.1306 56.0184 24.6126C55.5287 24.1867 54.9193 23.2221 54.4049 22.8208C53.9329 22.3279 51.3576 20.3002 49.7618 20.3495C47.7044 20.4129 47.9898 22.2118 48.1941 22.9229C46.1896 21.3634 43.3889 21.0149 42.2369 21.9161C40.9898 22.8912 40.8806 24.3979 41.402 25.799C41.7367 26.6967 42.1559 27.5345 42.6561 28.3301C44.0054 31.259 44.3964 32.5474 44.1005 35.3461C41.7402 40.1408 42.258 45.8754 42.258 45.8754C42.258 45.8754 32.1826 59.3054 29.0015 66.9445C25.3201 75.784 24.2914 79.3114 22.2375 88.7212C20.7192 95.6704 20.9975 107.08 26.5953 111.572C30.6607 114.835 39.408 115.81 44.3683 114.18C49.2686 112.571 53.2882 109.336 56.6631 105.51C58.8578 103.021 60.8624 100.356 62.7929 97.6417C61.0984 94.1496 59.2383 90.756 58.2202 86.9611C58.1533 86.7146 58.1392 86.4893 58.1603 86.2816C57.9208 85.7466 57.6777 85.215 57.4417 84.6764C55.8705 81.1068 51.1921 82.6276 49.6878 79.0298C52.1186 71.3027 54.9157 63.6706 58.0828 56.2181C60.3621 50.8602 62.881 44.9214 62.955 39.0319C62.9937 38.9333 63.0219 38.8242 63.0289 38.6974C63.1804 35.0539 62.955 31.4033 62.3702 27.8056H62.3666Z" fill="white"/>
<path d="M49.7727 20.6997C50.1019 20.6895 50.5101 20.7875 50.9631 20.9702C51.4115 21.151 51.8793 21.4048 52.3196 21.6792C53.2063 22.2318 53.9429 22.8442 54.1526 23.063L54.1702 23.0815L54.1897 23.0972C54.4085 23.2679 54.6633 23.5736 54.9485 23.9272C55.2162 24.2592 55.5151 24.6389 55.7893 24.8774L56.4387 25.4429L56.3674 24.5845C56.2503 23.1762 56.7191 21.7497 57.9211 21.106L57.9221 21.105C58.5455 20.768 59.2872 20.7862 59.8567 21.1802L59.8577 21.1812C60.3689 21.5316 60.6695 22.104 60.8987 22.7603C61.4608 24.3696 61.7422 26.1435 62.0217 27.8618L62.0696 28.1558H62.0706C62.6165 31.6339 62.8259 35.1595 62.6799 38.6782C62.6752 38.7625 62.6563 38.8358 62.6292 38.9048L62.6057 38.9644V39.0278C62.5328 44.8358 60.0463 50.7095 57.761 56.0815C54.5893 63.5449 51.7878 71.1878 49.3538 78.9253L49.3157 79.0474L49.3655 79.1655C50.1864 81.1286 51.8922 81.6865 53.4299 82.1968C54.9041 82.686 56.2306 83.134 56.9797 84.5269L57.1213 84.8179C57.3467 85.332 57.5797 85.8427 57.8069 86.3491C57.7952 86.5692 57.8149 86.8029 57.8821 87.0513V87.0522C58.8929 90.8199 60.7256 94.2018 62.386 97.6089C60.4961 100.26 58.5381 102.855 56.4006 105.279C53.0503 109.077 49.0801 112.265 44.259 113.848C41.8447 114.641 38.4748 114.808 35.1936 114.365C31.9085 113.921 28.7769 112.874 26.8147 111.299C24.1209 109.138 22.6703 105.272 22.095 101.021C21.5573 97.0472 21.794 92.8014 22.4446 89.4536L22.5793 88.7964C24.6293 79.4043 25.6522 75.8971 29.3245 67.0796C30.8999 63.2963 34.1953 58.0552 37.1125 53.7417C38.5683 51.5891 39.9254 49.6747 40.9182 48.2983C41.4145 47.6102 41.8198 47.0566 42.1008 46.6753C42.2412 46.4849 42.3508 46.3376 42.425 46.2378C42.4621 46.1879 42.491 46.15 42.51 46.1245C42.5195 46.1118 42.5267 46.1016 42.5315 46.0952C42.5337 46.0923 42.5352 46.0899 42.5364 46.0884L42.5383 46.0864L42.2581 45.8755L42.5383 46.0854L42.6194 45.978L42.6067 45.8442V45.8413C42.6065 45.839 42.6061 45.8354 42.6057 45.8306C42.6049 45.8205 42.6033 45.8051 42.6018 45.7847C42.5987 45.7434 42.5947 45.6811 42.5901 45.6001C42.5808 45.438 42.5695 45.1994 42.5637 44.8979C42.5522 44.295 42.5612 43.4404 42.6428 42.438C42.8065 40.4283 43.2612 37.8441 44.4143 35.5015L44.4426 35.4448L44.4485 35.3833C44.5989 33.9604 44.5773 32.8984 44.3372 31.812C44.0989 30.7339 43.6489 29.6494 42.9739 28.1841L42.9651 28.1636L42.9524 28.144C42.4644 27.368 42.0557 26.5516 41.7297 25.6772H41.7307C41.2405 24.36 41.3686 23.0393 42.4524 22.1919C42.9157 21.8294 43.785 21.6798 44.842 21.8433C45.8814 22.0041 47.0272 22.4586 47.9797 23.1997L48.8274 23.8589L48.5305 22.8267C48.4329 22.487 48.3349 21.9403 48.4661 21.4927C48.5286 21.2795 48.6405 21.0967 48.8264 20.9614C49.0148 20.8245 49.3091 20.714 49.7727 20.6997Z" stroke="#141414" stroke-width="0.7"/>
<path d="M31.4639 83.7823C36.9772 78.8996 42.4941 74.0134 48.0074 69.1307C48.3878 68.7928 47.8277 68.2366 47.4472 68.571C41.9339 73.4537 36.4171 78.3399 30.9038 83.2226C30.5233 83.5605 31.0835 84.1167 31.4639 83.7823Z" fill="#141414"/>
<path d="M69.6378 31.5373C68.4612 29.3688 65.5901 30.4355 63.9061 31.2275C62.1447 32.0583 60.5841 33.2306 59.2735 34.6493C58.8508 34.7162 58.5866 35.0788 58.5373 35.5047V35.5118C58.4104 35.6702 58.2801 35.8286 58.1568 35.994C57.8679 36.3848 58.0441 36.846 58.3717 37.117C58.2343 38.5392 58.1286 39.965 58.037 41.3942C57.9771 42.3623 57.9313 43.3269 57.889 44.295C57.8503 45.1856 57.7587 46.1079 57.7939 47.0021C57.4698 47.5724 57.1704 48.1568 56.9167 48.7552C56.7441 49.1636 57.0541 49.667 57.424 49.8254C57.8644 50.012 58.273 49.8465 58.5549 49.4769C59.3052 48.5018 59.9288 47.4281 60.6122 46.4072C61.2992 45.3827 62.0108 44.3795 62.7401 43.3867C64.1668 41.447 65.6676 39.5637 67.1824 37.6873C68.507 36.0468 70.8885 33.8572 69.6273 31.5373H69.6378Z" fill="white"/>
<path d="M75.8417 51.5957C75.8417 51.5957 59.2066 57.9957 43.7166 70.5914L55.261 108.231C55.261 108.231 74.6826 97.2191 84.0429 89.7349C93.4032 82.2542 93.914 62.3573 89.3167 57.5979C84.7228 52.8349 75.8381 51.5957 75.8381 51.5957H75.8417Z" fill="#141414"/>
<path d="M67.2107 102.123C74.2353 98.1027 80.4673 92.7166 85.4522 86.3378C86.8508 84.5494 88.1542 82.6872 89.352 80.758C89.6197 80.325 88.9363 79.9273 88.6686 80.3603C84.4693 87.1263 78.956 93.0686 72.5127 97.7542C70.6808 99.0849 68.7784 100.313 66.8126 101.44C66.3723 101.693 66.7704 102.376 67.2107 102.123Z" fill="#141414"/>
<path d="M49.9802 65.9906C52.8126 75.8722 55.645 85.7573 58.4739 95.6388C59.3405 98.6663 60.2071 101.694 61.0773 104.718C61.2182 105.204 61.9791 104.999 61.8382 104.506C59.0058 94.6249 56.1734 84.7399 53.3446 74.8583C52.4779 71.8309 51.6113 68.8034 50.7412 65.7794C50.6002 65.2936 49.8393 65.4978 49.9802 65.9906Z" fill="white"/>
<path d="M24.922 43.2561C21.7127 38.31 20.9729 32.0157 22.8893 26.4395C23.4177 24.8941 24.1752 23.4437 25.1193 22.113C25.4152 21.6976 24.7282 21.3034 24.4358 21.7152C20.9658 26.605 20.1661 33.2443 21.9874 38.9155C22.5229 40.5877 23.2839 42.1824 24.2386 43.6539C24.5133 44.0799 25.1968 43.6821 24.922 43.2561Z" fill="white"/>
<path d="M17.2563 21.8739C18.4893 22.6237 19.3665 23.8594 20.0183 25.1196C20.6947 26.4292 21.1703 27.8831 21.3182 29.3511C21.3675 29.851 22.1602 29.858 22.1073 29.3511C21.9453 27.7352 21.4415 26.1617 20.6982 24.7218C19.9866 23.3384 19.0002 22.0112 17.6544 21.191C17.2176 20.9269 16.823 21.6099 17.2563 21.8739Z" fill="white"/>
<path d="M17.4395 44.0482C20.2543 42.8583 21.91 39.5774 22.213 36.6731C22.2658 36.1697 21.4767 36.1732 21.4239 36.6731C21.1456 39.3204 19.592 42.2845 17.0414 43.3652C16.5764 43.5624 16.978 44.2418 17.4395 44.0482Z" fill="white"/>
<path d="M47.8913 23.3417C50.1706 25.644 51.6326 28.6398 52.073 31.8503C52.1399 32.3502 52.9044 32.139 52.8339 31.6391C52.3795 28.3054 50.8189 25.1758 48.4515 22.782C48.0921 22.4194 47.5355 22.9791 47.8913 23.3417Z" fill="#141414"/>
<path d="M55.6697 24.4157C57.7482 26.5877 58.8791 29.5377 58.8051 32.5406C58.791 33.0475 59.5837 33.0475 59.5942 32.5406C59.6753 29.3336 58.4458 26.1758 56.2264 23.8595C55.8741 23.4898 55.3175 24.0496 55.6662 24.4192L55.6697 24.4157Z" fill="#141414"/>
<path d="M64.5615 41.6967C65.5092 40.6829 66.4146 39.6268 67.2636 38.5284C68.1056 37.4407 68.9651 36.3071 69.5711 35.068C70.1101 33.9626 70.4201 32.6495 69.8388 31.4948C69.3456 30.5162 68.3205 29.8755 67.2213 30.0867C66.7211 30.1818 66.9324 30.9421 67.4327 30.8471C68.4438 30.657 69.2752 31.6814 69.3597 32.6073C69.4689 33.7971 68.8172 34.906 68.1972 35.8671C66.9818 37.7575 65.5409 39.5036 64.0049 41.1405C63.6562 41.5101 64.2163 42.0699 64.5651 41.7002L64.5615 41.6967Z" fill="#141414"/>
<path d="M73.971 52.9831C80.0198 51.0328 86.5899 51.0187 92.6493 52.9479C93.1354 53.1027 93.3433 52.3388 92.8607 52.1875C86.678 50.2196 79.9387 50.2337 73.7631 52.2227C73.2805 52.3776 73.4884 53.1415 73.9745 52.9831H73.971Z" fill="#141414"/>
</g>
</g>
<path d="M80.1848 118.119C80.6848 118.119 82.2848 118.119 84.6848 118.119C87.0848 118.119 89.6848 118.119 91.1848 119.119" stroke="white" stroke-width="0.5" stroke-linecap="round"/>
</g>
<path d="M72.2433 79.5879C72.4025 79.4749 72.4548 79.2924 72.4733 79.1515C72.4897 79.001 72.4833 78.8253 72.4606 78.6449C72.4158 78.2957 72.3049 77.8611 72.1805 77.4403C72.053 77.0115 71.809 76.3363 71.6376 75.8709L74.805 75.148L74.4873 71.6924L70.3036 73.3217C70.4609 73.6172 70.5848 73.8749 70.6531 74.0504C70.6531 74.0504 72.9583 73.8394 73.2666 74.3065C73.519 74.6867 71.694 75.7603 71.4135 75.9229L71.3789 75.9436C71.3789 75.9436 72.5994 79.0054 72.0884 79.3676C71.4822 79.7975 69.6664 77.2914 69.6664 77.2914C69.6664 77.2914 65.3115 80.5583 64.8439 80.0376C64.5784 79.7448 66.0101 77.9598 66.8441 76.9624C67.1774 76.5699 67.4164 76.2974 67.4164 76.2974C66.8431 76.0437 66.1016 75.6692 65.3406 75.2488L62.0616 76.5241L63.8613 77.6466L66.4077 77.0628C66.2083 77.3062 65.9898 77.5765 65.7793 77.8485C65.4312 78.2933 65.091 78.7576 64.8584 79.1429C64.7439 79.336 64.6463 79.5172 64.5929 79.6714C64.565 79.7502 64.5451 79.8348 64.5434 79.9214C64.5412 80.0061 64.5576 80.1227 64.6438 80.2203C64.8191 80.4161 65.0967 80.3718 65.2486 80.3355C65.4402 80.2885 65.6727 80.1922 65.9143 80.0721C66.3969 79.8367 66.9941 79.469 67.5762 79.0874C68.4204 78.5323 69.2345 77.9474 69.6107 77.671C69.794 77.9067 70.1058 78.3003 70.4499 78.6746C70.7161 78.9652 71.0186 79.2564 71.2999 79.4487C71.5407 79.6131 71.9257 79.8124 72.2433 79.5879Z" fill="#1ED760"/>
<path d="M68.2471 70.6971C67.5948 70.8498 68.4162 73.7111 68.5416 74.0005C68.5416 74.0005 62.1818 71.9226 61.6974 72.5111C61.4122 72.8583 63.4307 74.1915 65.3408 75.2465L70.3041 73.3196C69.7231 72.2195 68.6803 70.5976 68.2471 70.6971Z" fill="#1ED760"/>
<path d="M57.7923 74.0753C57.7401 73.9037 57.758 73.7649 57.7888 73.6667L57.9806 73.7078C57.9546 73.7882 57.9369 73.8961 57.9719 74.0114C58.0005 74.1053 58.0717 74.2008 58.1729 74.1702C58.3459 74.1179 58.2879 73.8126 58.4085 73.6147C58.4476 73.5503 58.508 73.4978 58.6017 73.4695C58.7821 73.4149 58.9783 73.5109 59.056 73.7665C59.0954 73.8961 59.0955 74.0089 59.0789 74.0864L58.8785 74.1429C58.9016 74.0326 58.9073 73.9324 58.8769 73.8322C58.8472 73.7345 58.7809 73.669 58.6997 73.6936C58.4749 73.7615 58.6474 74.2846 58.2703 74.3986C58.0569 74.4638 57.8653 74.3158 57.7923 74.0753Z" fill="#1ED760"/>
<path d="M59.3738 75.5416L59.2728 75.209L58.2443 75.52L58.1758 75.2944L59.2043 74.9835L59.097 74.6302L59.2837 74.5737L59.5769 75.5391L59.3738 75.5416Z" fill="#1ED760"/>
<path d="M59.3813 76.5142C59.4352 76.474 59.4805 76.4439 59.5182 76.4222L59.5177 76.4203C59.473 76.4256 59.42 76.4239 59.3569 76.4204L59.0435 76.4004L59.1332 76.6958L59.3813 76.5142ZM58.7043 77.0339L58.9718 76.8218L58.8399 76.3875L58.5017 76.3667L58.435 76.1471L59.7982 76.2514L59.8477 76.4142L58.7768 77.2723L58.7043 77.0339Z" fill="#1ED760"/>
<path d="M60.0587 77.8064L60.025 77.6955L59.6472 77.8097L59.6814 77.9225C59.7163 78.0371 59.8293 78.0973 59.9399 78.0639C60.0393 78.0345 60.1009 77.9454 60.0587 77.8064ZM59.127 78.4293C59.3832 78.146 59.5085 78.0151 59.5087 77.9644L59.4773 77.8611L58.9984 78.0059L58.9304 77.7822L60.145 77.415L60.2449 77.7439C60.341 78.0602 60.2202 78.226 60.0341 78.2823C59.8718 78.3314 59.7295 78.2533 59.6465 78.1532L59.6447 78.1538C59.6302 78.2184 59.4569 78.4042 59.204 78.6851L59.1264 78.4295L59.127 78.4293Z" fill="#1ED760"/>
<path d="M59.5936 79.9668L60.1135 79.8096L59.9345 79.2201L59.4145 79.3773L59.3467 79.1539L60.5613 78.7866L60.6291 79.01L60.1279 79.1616L60.307 79.7511L60.8082 79.5996L60.8761 79.823L59.6615 80.1902L59.5936 79.9668Z" fill="#1ED760"/>
<path d="M60.2275 81.6281C60.1168 81.5687 60.0294 81.4584 59.9743 81.277C59.922 81.1049 59.9246 80.9674 59.9791 80.8621C60.0357 80.75 60.1524 80.6785 60.2872 80.6378L61.0555 80.4055L61.1234 80.6289L60.37 80.8567C60.2814 80.8835 60.2168 80.9289 60.1784 80.9932C60.1426 81.0546 60.1388 81.1343 60.1658 81.2231C60.1972 81.3264 60.2465 81.3901 60.3086 81.4219C60.3726 81.4531 60.4462 81.4506 60.5311 81.425L61.2957 81.1938L61.3635 81.4172L60.6064 81.6461C60.4674 81.6888 60.3358 81.6863 60.2275 81.6281Z" fill="#1ED760"/>
<path d="M60.9421 82.5474L60.8961 82.3958L60.5607 82.4972L60.6039 82.6394C60.6494 82.7891 60.738 82.843 60.8486 82.8096C60.9422 82.7812 60.9836 82.6839 60.9421 82.5474ZM61.4319 82.3528L61.3988 82.2438L61.0815 82.3397L61.1219 82.4725C61.146 82.5521 61.2345 82.6122 61.3307 82.5831C61.4231 82.5552 61.4695 82.4768 61.4319 82.3528ZM60.4216 82.717L60.3042 82.3306L61.5188 81.9634L61.6368 82.3517C61.7093 82.5904 61.5887 82.75 61.4413 82.7945C61.3364 82.8262 61.2225 82.8039 61.1429 82.7192L61.1411 82.7198C61.1508 82.8639 61.062 82.996 60.9184 83.0395C60.7446 83.0913 60.5148 83.024 60.4216 82.717Z" fill="#1ED760"/>
</g>
<defs>
<clipPath id="clip0_3197_66022">
<rect width="148" height="148" fill="white"/>
</clipPath>
<clipPath id="clip1_3197_66022">
<rect width="182.815" height="147.104" fill="white" transform="translate(-18.8152 -3.88086)"/>
</clipPath>
<clipPath id="clip2_3197_66022">
<rect width="109.371" height="108.767" fill="white" transform="translate(10.6016 16.2729)"/>
</clipPath>
</defs>
</svg>
