<svg preserveAspectRatio="none" width="100%" height="100%" overflow="visible" style="display: block;" viewBox="2.18919 0 351 6.52735" fill="none" xmlns="http://www.w3.org/2000/svg">
<g id="Vector">
<mask id="path-1-outside-1_3739_141425" maskUnits="userSpaceOnUse" x="-0.810806" y="1.19209e-07" width="357" height="7" fill="black">
<rect fill="white" x="-0.810806" y="1.19209e-07" width="357" height="7"/>
<path d="M5.654 5L2.18919 1L9.11882 1L5.654 5Z"/>
<path d="M13.6556 5L10.1908 1L17.1205 1L13.6556 5Z"/>
<path d="M21.6573 5L18.1925 1L25.1221 1L21.6573 5Z"/>
<path d="M29.6589 5L26.1941 1L33.1237 1L29.6589 5Z"/>
<path d="M37.6606 5L34.1957 1L41.1254 1L37.6606 5Z"/>
<path d="M45.6622 5L42.1974 1L49.127 1L45.6622 5Z"/>
<path d="M53.6638 5L50.199 1L57.1286 1L53.6638 5Z"/>
<path d="M61.6655 5L58.2007 1L65.1303 1L61.6655 5Z"/>
<path d="M69.6671 5L66.2023 1L73.1319 1L69.6671 5Z"/>
<path d="M77.6687 5L74.2039 1L81.1335 1L77.6687 5Z"/>
<path d="M85.6704 5L82.2056 1L89.1352 1L85.6704 5Z"/>
<path d="M93.672 5L90.2072 1L97.1368 1L93.672 5Z"/>
<path d="M101.674 5L98.2088 1L105.138 1L101.674 5Z"/>
<path d="M109.675 5L106.21 1L113.14 1L109.675 5Z"/>
<path d="M117.677 5L114.212 1L121.142 1L117.677 5Z"/>
<path d="M125.679 5L122.214 1L129.143 1L125.679 5Z"/>
<path d="M133.68 5L130.215 1L137.145 1L133.68 5Z"/>
<path d="M141.682 5L138.217 1L145.147 1L141.682 5Z"/>
<path d="M149.683 5L146.219 1L153.148 1L149.683 5Z"/>
<path d="M157.685 5L154.22 1L161.15 1L157.685 5Z"/>
<path d="M165.687 5L162.222 1L169.152 1L165.687 5Z"/>
<path d="M173.688 5L170.224 1L177.153 1L173.688 5Z"/>
<path d="M181.69 5L178.225 1L185.155 1L181.69 5Z"/>
<path d="M189.692 5L186.227 1L193.156 1L189.692 5Z"/>
<path d="M197.693 5L194.228 1L201.158 1L197.693 5Z"/>
<path d="M205.695 5L202.23 1L209.16 1L205.695 5Z"/>
<path d="M213.697 5L210.232 1L217.161 1L213.697 5Z"/>
<path d="M221.698 5L218.233 1L225.163 1L221.698 5Z"/>
<path d="M229.7 5L226.235 1L233.165 1L229.7 5Z"/>
<path d="M237.701 5L234.237 1L241.166 1L237.701 5Z"/>
<path d="M245.703 5L242.238 1L249.168 1L245.703 5Z"/>
<path d="M253.705 5L250.24 1L257.17 1L253.705 5Z"/>
<path d="M261.706 5L258.242 1L265.171 1L261.706 5Z"/>
<path d="M269.708 5L266.243 1L273.173 1L269.708 5Z"/>
<path d="M277.71 5L274.245 1L281.174 1L277.71 5Z"/>
<path d="M285.711 5L282.247 1L285.711 1L289.176 1L285.711 5Z"/>
<path d="M293.713 5L290.248 1L297.178 1L293.713 5Z"/>
<path d="M301.715 5L298.25 1L305.179 1L301.715 5Z"/>
<path d="M309.716 5L306.251 1L313.181 1L309.716 5Z"/>
<path d="M317.718 5L314.253 1L321.183 1L317.718 5Z"/>
<path d="M325.719 5L322.255 1L329.184 1L325.719 5Z"/>
<path d="M333.721 5L330.256 1L337.186 1L333.721 5Z"/>
<path d="M341.723 5L338.258 1L345.188 1L341.723 5Z"/>
<path d="M349.724 5L346.26 1L353.189 1L349.724 5Z"/>
</mask>
<path d="M5.654 5L2.18919 1L9.11882 1L5.654 5Z" fill="var(--fill-0, white)"/>
<path d="M13.6556 5L10.1908 1L17.1205 1L13.6556 5Z" fill="var(--fill-0, white)"/>
<path d="M21.6573 5L18.1925 1L25.1221 1L21.6573 5Z" fill="var(--fill-0, white)"/>
<path d="M29.6589 5L26.1941 1L33.1237 1L29.6589 5Z" fill="var(--fill-0, white)"/>
<path d="M37.6606 5L34.1957 1L41.1254 1L37.6606 5Z" fill="var(--fill-0, white)"/>
<path d="M45.6622 5L42.1974 1L49.127 1L45.6622 5Z" fill="var(--fill-0, white)"/>
<path d="M53.6638 5L50.199 1L57.1286 1L53.6638 5Z" fill="var(--fill-0, white)"/>
<path d="M61.6655 5L58.2007 1L65.1303 1L61.6655 5Z" fill="var(--fill-0, white)"/>
<path d="M69.6671 5L66.2023 1L73.1319 1L69.6671 5Z" fill="var(--fill-0, white)"/>
<path d="M77.6687 5L74.2039 1L81.1335 1L77.6687 5Z" fill="var(--fill-0, white)"/>
<path d="M85.6704 5L82.2056 1L89.1352 1L85.6704 5Z" fill="var(--fill-0, white)"/>
<path d="M93.672 5L90.2072 1L97.1368 1L93.672 5Z" fill="var(--fill-0, white)"/>
<path d="M101.674 5L98.2088 1L105.138 1L101.674 5Z" fill="var(--fill-0, white)"/>
<path d="M109.675 5L106.21 1L113.14 1L109.675 5Z" fill="var(--fill-0, white)"/>
<path d="M117.677 5L114.212 1L121.142 1L117.677 5Z" fill="var(--fill-0, white)"/>
<path d="M125.679 5L122.214 1L129.143 1L125.679 5Z" fill="var(--fill-0, white)"/>
<path d="M133.68 5L130.215 1L137.145 1L133.68 5Z" fill="var(--fill-0, white)"/>
<path d="M141.682 5L138.217 1L145.147 1L141.682 5Z" fill="var(--fill-0, white)"/>
<path d="M149.683 5L146.219 1L153.148 1L149.683 5Z" fill="var(--fill-0, white)"/>
<path d="M157.685 5L154.22 1L161.15 1L157.685 5Z" fill="var(--fill-0, white)"/>
<path d="M165.687 5L162.222 1L169.152 1L165.687 5Z" fill="var(--fill-0, white)"/>
<path d="M173.688 5L170.224 1L177.153 1L173.688 5Z" fill="var(--fill-0, white)"/>
<path d="M181.69 5L178.225 1L185.155 1L181.69 5Z" fill="var(--fill-0, white)"/>
<path d="M189.692 5L186.227 1L193.156 1L189.692 5Z" fill="var(--fill-0, white)"/>
<path d="M197.693 5L194.228 1L201.158 1L197.693 5Z" fill="var(--fill-0, white)"/>
<path d="M205.695 5L202.23 1L209.16 1L205.695 5Z" fill="var(--fill-0, white)"/>
<path d="M213.697 5L210.232 1L217.161 1L213.697 5Z" fill="var(--fill-0, white)"/>
<path d="M221.698 5L218.233 1L225.163 1L221.698 5Z" fill="var(--fill-0, white)"/>
<path d="M229.7 5L226.235 1L233.165 1L229.7 5Z" fill="var(--fill-0, white)"/>
<path d="M237.701 5L234.237 1L241.166 1L237.701 5Z" fill="var(--fill-0, white)"/>
<path d="M245.703 5L242.238 1L249.168 1L245.703 5Z" fill="var(--fill-0, white)"/>
<path d="M253.705 5L250.24 1L257.17 1L253.705 5Z" fill="var(--fill-0, white)"/>
<path d="M261.706 5L258.242 1L265.171 1L261.706 5Z" fill="var(--fill-0, white)"/>
<path d="M269.708 5L266.243 1L273.173 1L269.708 5Z" fill="var(--fill-0, white)"/>
<path d="M277.71 5L274.245 1L281.174 1L277.71 5Z" fill="var(--fill-0, white)"/>
<path d="M285.711 5L282.247 1L285.711 1L289.176 1L285.711 5Z" fill="var(--fill-0, white)"/>
<path d="M293.713 5L290.248 1L297.178 1L293.713 5Z" fill="var(--fill-0, white)"/>
<path d="M301.715 5L298.25 1L305.179 1L301.715 5Z" fill="var(--fill-0, white)"/>
<path d="M309.716 5L306.251 1L313.181 1L309.716 5Z" fill="var(--fill-0, white)"/>
<path d="M317.718 5L314.253 1L321.183 1L317.718 5Z" fill="var(--fill-0, white)"/>
<path d="M325.719 5L322.255 1L329.184 1L325.719 5Z" fill="var(--fill-0, white)"/>
<path d="M333.721 5L330.256 1L337.186 1L333.721 5Z" fill="var(--fill-0, white)"/>
<path d="M341.723 5L338.258 1L345.188 1L341.723 5Z" fill="var(--fill-0, white)"/>
<path d="M349.724 5L346.26 1L353.189 1L349.724 5Z" fill="var(--fill-0, white)"/>
<path d="M5.654 5L2.18919 1L9.11882 1L5.654 5Z" stroke="var(--stroke-0, #ffffff)" stroke-width="2" mask="url(#path-1-outside-1_3739_141425)"/>
<path d="M13.6556 5L10.1908 1L17.1205 1L13.6556 5Z" stroke="var(--stroke-0, #ffffff)" stroke-width="2" mask="url(#path-1-outside-1_3739_141425)"/>
<path d="M21.6573 5L18.1925 1L25.1221 1L21.6573 5Z" stroke="var(--stroke-0, #ffffff)" stroke-width="2" mask="url(#path-1-outside-1_3739_141425)"/>
<path d="M29.6589 5L26.1941 1L33.1237 1L29.6589 5Z" stroke="var(--stroke-0, #ffffff)" stroke-width="2" mask="url(#path-1-outside-1_3739_141425)"/>
<path d="M37.6606 5L34.1957 1L41.1254 1L37.6606 5Z" stroke="var(--stroke-0, #ffffff)" stroke-width="2" mask="url(#path-1-outside-1_3739_141425)"/>
<path d="M45.6622 5L42.1974 1L49.127 1L45.6622 5Z" stroke="var(--stroke-0, #ffffff)" stroke-width="2" mask="url(#path-1-outside-1_3739_141425)"/>
<path d="M53.6638 5L50.199 1L57.1286 1L53.6638 5Z" stroke="var(--stroke-0, #ffffff)" stroke-width="2" mask="url(#path-1-outside-1_3739_141425)"/>
<path d="M61.6655 5L58.2007 1L65.1303 1L61.6655 5Z" stroke="var(--stroke-0, #ffffff)" stroke-width="2" mask="url(#path-1-outside-1_3739_141425)"/>
<path d="M69.6671 5L66.2023 1L73.1319 1L69.6671 5Z" stroke="var(--stroke-0, #ffffff)" stroke-width="2" mask="url(#path-1-outside-1_3739_141425)"/>
<path d="M77.6687 5L74.2039 1L81.1335 1L77.6687 5Z" stroke="var(--stroke-0, #ffffff)" stroke-width="2" mask="url(#path-1-outside-1_3739_141425)"/>
<path d="M85.6704 5L82.2056 1L89.1352 1L85.6704 5Z" stroke="var(--stroke-0, #ffffff)" stroke-width="2" mask="url(#path-1-outside-1_3739_141425)"/>
<path d="M93.672 5L90.2072 1L97.1368 1L93.672 5Z" stroke="var(--stroke-0, #ffffff)" stroke-width="2" mask="url(#path-1-outside-1_3739_141425)"/>
<path d="M101.674 5L98.2088 1L105.138 1L101.674 5Z" stroke="var(--stroke-0, #ffffff)" stroke-width="2" mask="url(#path-1-outside-1_3739_141425)"/>
<path d="M109.675 5L106.21 1L113.14 1L109.675 5Z" stroke="var(--stroke-0, #ffffff)" stroke-width="2" mask="url(#path-1-outside-1_3739_141425)"/>
<path d="M117.677 5L114.212 1L121.142 1L117.677 5Z" stroke="var(--stroke-0, #ffffff)" stroke-width="2" mask="url(#path-1-outside-1_3739_141425)"/>
<path d="M125.679 5L122.214 1L129.143 1L125.679 5Z" stroke="var(--stroke-0, #ffffff)" stroke-width="2" mask="url(#path-1-outside-1_3739_141425)"/>
<path d="M133.68 5L130.215 1L137.145 1L133.68 5Z" stroke="var(--stroke-0, #ffffff)" stroke-width="2" mask="url(#path-1-outside-1_3739_141425)"/>
<path d="M141.682 5L138.217 1L145.147 1L141.682 5Z" stroke="var(--stroke-0, #ffffff)" stroke-width="2" mask="url(#path-1-outside-1_3739_141425)"/>
<path d="M149.683 5L146.219 1L153.148 1L149.683 5Z" stroke="var(--stroke-0, #ffffff)" stroke-width="2" mask="url(#path-1-outside-1_3739_141425)"/>
<path d="M157.685 5L154.22 1L161.15 1L157.685 5Z" stroke="var(--stroke-0, #ffffff)" stroke-width="2" mask="url(#path-1-outside-1_3739_141425)"/>
<path d="M165.687 5L162.222 1L169.152 1L165.687 5Z" stroke="var(--stroke-0, #ffffff)" stroke-width="2" mask="url(#path-1-outside-1_3739_141425)"/>
<path d="M173.688 5L170.224 1L177.153 1L173.688 5Z" stroke="var(--stroke-0, #ffffff)" stroke-width="2" mask="url(#path-1-outside-1_3739_141425)"/>
<path d="M181.69 5L178.225 1L185.155 1L181.69 5Z" stroke="var(--stroke-0, #ffffff)" stroke-width="2" mask="url(#path-1-outside-1_3739_141425)"/>
<path d="M189.692 5L186.227 1L193.156 1L189.692 5Z" stroke="var(--stroke-0, #ffffff)" stroke-width="2" mask="url(#path-1-outside-1_3739_141425)"/>
<path d="M197.693 5L194.228 1L201.158 1L197.693 5Z" stroke="var(--stroke-0, #ffffff)" stroke-width="2" mask="url(#path-1-outside-1_3739_141425)"/>
<path d="M205.695 5L202.23 1L209.16 1L205.695 5Z" stroke="var(--stroke-0, #ffffff)" stroke-width="2" mask="url(#path-1-outside-1_3739_141425)"/>
<path d="M213.697 5L210.232 1L217.161 1L213.697 5Z" stroke="var(--stroke-0, #ffffff)" stroke-width="2" mask="url(#path-1-outside-1_3739_141425)"/>
<path d="M221.698 5L218.233 1L225.163 1L221.698 5Z" stroke="var(--stroke-0, #ffffff)" stroke-width="2" mask="url(#path-1-outside-1_3739_141425)"/>
<path d="M229.7 5L226.235 1L233.165 1L229.7 5Z" stroke="var(--stroke-0, #ffffff)" stroke-width="2" mask="url(#path-1-outside-1_3739_141425)"/>
<path d="M237.701 5L234.237 1L241.166 1L237.701 5Z" stroke="var(--stroke-0, #ffffff)" stroke-width="2" mask="url(#path-1-outside-1_3739_141425)"/>
<path d="M245.703 5L242.238 1L249.168 1L245.703 5Z" stroke="var(--stroke-0, #ffffff)" stroke-width="2" mask="url(#path-1-outside-1_3739_141425)"/>
<path d="M253.705 5L250.24 1L257.17 1L253.705 5Z" stroke="var(--stroke-0, #ffffff)" stroke-width="2" mask="url(#path-1-outside-1_3739_141425)"/>
<path d="M261.706 5L258.242 1L265.171 1L261.706 5Z" stroke="var(--stroke-0, #ffffff)" stroke-width="2" mask="url(#path-1-outside-1_3739_141425)"/>
<path d="M269.708 5L266.243 1L273.173 1L269.708 5Z" stroke="var(--stroke-0, #ffffff)" stroke-width="2" mask="url(#path-1-outside-1_3739_141425)"/>
<path d="M277.71 5L274.245 1L281.174 1L277.71 5Z" stroke="var(--stroke-0, #ffffff)" stroke-width="2" mask="url(#path-1-outside-1_3739_141425)"/>
<path d="M285.711 5L282.247 1L285.711 1L289.176 1L285.711 5Z" stroke="var(--stroke-0, #ffffff)" stroke-width="2" mask="url(#path-1-outside-1_3739_141425)"/>
<path d="M293.713 5L290.248 1L297.178 1L293.713 5Z" stroke="var(--stroke-0, #ffffff)" stroke-width="2" mask="url(#path-1-outside-1_3739_141425)"/>
<path d="M301.715 5L298.25 1L305.179 1L301.715 5Z" stroke="var(--stroke-0, #ffffff)" stroke-width="2" mask="url(#path-1-outside-1_3739_141425)"/>
<path d="M309.716 5L306.251 1L313.181 1L309.716 5Z" stroke="var(--stroke-0, #ffffff)" stroke-width="2" mask="url(#path-1-outside-1_3739_141425)"/>
<path d="M317.718 5L314.253 1L321.183 1L317.718 5Z" stroke="var(--stroke-0, #ffffff)" stroke-width="2" mask="url(#path-1-outside-1_3739_141425)"/>
<path d="M325.719 5L322.255 1L329.184 1L325.719 5Z" stroke="var(--stroke-0, #ffffff)" stroke-width="2" mask="url(#path-1-outside-1_3739_141425)"/>
<path d="M333.721 5L330.256 1L337.186 1L333.721 5Z" stroke="var(--stroke-0, #ffffff)" stroke-width="2" mask="url(#path-1-outside-1_3739_141425)"/>
<path d="M341.723 5L338.258 1L345.188 1L341.723 5Z" stroke="var(--stroke-0, #ffffff)" stroke-width="2" mask="url(#path-1-outside-1_3739_141425)"/>
<path d="M349.724 5L346.26 1L353.189 1L349.724 5Z" stroke="var(--stroke-0, #ffffff)" stroke-width="2" mask="url(#path-1-outside-1_3739_141425)"/>
</g>
</svg>
