<svg preserveAspectRatio="none" width="100%" height="100%" overflow="visible" style="display: block;" viewBox="2.17695 0 348 6.53489" fill="none" xmlns="http://www.w3.org/2000/svg">
<g id="Frame 2085663422">
<g id="Vector">
<mask id="path-1-outside-1_3739_141432" maskUnits="userSpaceOnUse" x="-0.823053" y="-0.465114" width="354" height="7" fill="black">
<rect fill="white" x="-0.823053" y="-0.465114" width="354" height="7"/>
<path d="M346.742 1.53489L350.177 5.53489L343.307 5.53489L346.742 1.53489Z"/>
<path d="M338.809 1.53489L342.244 5.53489L335.373 5.53489L338.809 1.53489Z"/>
<path d="M330.875 1.53489L334.31 5.53489L327.44 5.53489L330.875 1.53489Z"/>
<path d="M322.942 1.53489L326.377 5.53489L319.507 5.53489L322.942 1.53489Z"/>
<path d="M315.009 1.53489L318.444 5.53489L311.574 5.53489L315.009 1.53489Z"/>
<path d="M307.076 1.53489L310.511 5.53489L303.64 5.53489L307.076 1.53489Z"/>
<path d="M299.142 1.53489L302.577 5.53489L295.707 5.53489L299.142 1.53489Z"/>
<path d="M291.209 1.53489L294.644 5.53489L287.774 5.53489L291.209 1.53489Z"/>
<path d="M283.276 1.53489L286.711 5.53489L279.841 5.53489L283.276 1.53489Z"/>
<path d="M275.343 1.53489L278.778 5.53489L271.907 5.53489L275.343 1.53489Z"/>
<path d="M267.409 1.53489L270.844 5.53489L263.974 5.53489L267.409 1.53489Z"/>
<path d="M259.476 1.53489L262.911 5.53489L256.041 5.53489L259.476 1.53489Z"/>
<path d="M251.543 1.53489L254.978 5.53489L248.108 5.53489L251.543 1.53489Z"/>
<path d="M243.61 1.53489L247.045 5.53489L240.174 5.53489L243.61 1.53489Z"/>
<path d="M235.676 1.53489L239.112 5.53489L232.241 5.53489L235.676 1.53489Z"/>
<path d="M227.743 1.53489L231.178 5.53489L224.308 5.53489L227.743 1.53489Z"/>
<path d="M219.81 1.53489L223.245 5.53489L216.375 5.53489L219.81 1.53489Z"/>
<path d="M211.877 1.53489L215.312 5.53489L208.441 5.53489L211.877 1.53489Z"/>
<path d="M203.943 1.53489L207.379 5.53489L200.508 5.53489L203.943 1.53489Z"/>
<path d="M196.01 1.53489L199.445 5.53489L192.575 5.53489L196.01 1.53489Z"/>
<path d="M188.077 1.53489L191.512 5.53489L184.642 5.53489L188.077 1.53489Z"/>
<path d="M180.144 1.53489L183.579 5.53489L176.708 5.53489L180.144 1.53489Z"/>
<path d="M172.21 1.53489L175.646 5.53489L168.775 5.53489L172.21 1.53489Z"/>
<path d="M164.277 1.53489L167.712 5.53489L160.842 5.53489L164.277 1.53489Z"/>
<path d="M156.344 1.53489L159.779 5.53489L152.909 5.53489L156.344 1.53489Z"/>
<path d="M148.411 1.53489L151.846 5.53489L144.975 5.53489L148.411 1.53489Z"/>
<path d="M140.477 1.53489L143.913 5.53489L137.042 5.53489L140.477 1.53489Z"/>
<path d="M132.544 1.53489L135.979 5.53489L129.109 5.53489L132.544 1.53489Z"/>
<path d="M124.611 1.53489L128.046 5.53489L121.176 5.53489L124.611 1.53489Z"/>
<path d="M116.678 1.53489L120.113 5.53489L113.242 5.53489L116.678 1.53489Z"/>
<path d="M108.744 1.53489L112.18 5.53489L105.309 5.53489L108.744 1.53489Z"/>
<path d="M100.811 1.53489L104.246 5.53489L97.3759 5.53489L100.811 1.53489Z"/>
<path d="M92.8778 1.53489L96.313 5.53489L89.4427 5.53489L92.8778 1.53489Z"/>
<path d="M84.9446 1.53489L88.3798 5.53489L81.5094 5.53489L84.9446 1.53489Z"/>
<path d="M77.0113 1.53489L80.4465 5.53489L73.5762 5.53489L77.0113 1.53489Z"/>
<path d="M69.0781 1.53489L72.5133 5.53489L65.6429 5.53489L69.0781 1.53489Z"/>
<path d="M61.1448 1.53489L64.5801 5.53489L57.7097 5.53489L61.1448 1.53489Z"/>
<path d="M53.2116 1.53489L56.6468 5.53489L49.7764 5.53489L53.2116 1.53489Z"/>
<path d="M45.2784 1.53489L48.7136 5.53489L41.8432 5.53489L45.2784 1.53489Z"/>
<path d="M37.3451 1.53489L40.7803 5.53489L33.9099 5.53489L37.3451 1.53489Z"/>
<path d="M29.4119 1.53489L32.8471 5.53489L25.9767 5.53489L29.4119 1.53489Z"/>
<path d="M21.4786 1.53489L24.9138 5.53489L18.0434 5.53489L21.4786 1.53489Z"/>
<path d="M13.5454 1.53489L16.9806 5.53489L10.1102 5.53489L13.5454 1.53489Z"/>
<path d="M5.61212 1.53489L9.04733 5.53489L2.17695 5.53489L5.61212 1.53489Z"/>
</mask>
<path d="M346.742 1.53489L350.177 5.53489L343.307 5.53489L346.742 1.53489Z" fill="var(--fill-0, white)"/>
<path d="M338.809 1.53489L342.244 5.53489L335.373 5.53489L338.809 1.53489Z" fill="var(--fill-0, white)"/>
<path d="M330.875 1.53489L334.31 5.53489L327.44 5.53489L330.875 1.53489Z" fill="var(--fill-0, white)"/>
<path d="M322.942 1.53489L326.377 5.53489L319.507 5.53489L322.942 1.53489Z" fill="var(--fill-0, white)"/>
<path d="M315.009 1.53489L318.444 5.53489L311.574 5.53489L315.009 1.53489Z" fill="var(--fill-0, white)"/>
<path d="M307.076 1.53489L310.511 5.53489L303.64 5.53489L307.076 1.53489Z" fill="var(--fill-0, white)"/>
<path d="M299.142 1.53489L302.577 5.53489L295.707 5.53489L299.142 1.53489Z" fill="var(--fill-0, white)"/>
<path d="M291.209 1.53489L294.644 5.53489L287.774 5.53489L291.209 1.53489Z" fill="var(--fill-0, white)"/>
<path d="M283.276 1.53489L286.711 5.53489L279.841 5.53489L283.276 1.53489Z" fill="var(--fill-0, white)"/>
<path d="M275.343 1.53489L278.778 5.53489L271.907 5.53489L275.343 1.53489Z" fill="var(--fill-0, white)"/>
<path d="M267.409 1.53489L270.844 5.53489L263.974 5.53489L267.409 1.53489Z" fill="var(--fill-0, white)"/>
<path d="M259.476 1.53489L262.911 5.53489L256.041 5.53489L259.476 1.53489Z" fill="var(--fill-0, white)"/>
<path d="M251.543 1.53489L254.978 5.53489L248.108 5.53489L251.543 1.53489Z" fill="var(--fill-0, white)"/>
<path d="M243.61 1.53489L247.045 5.53489L240.174 5.53489L243.61 1.53489Z" fill="var(--fill-0, white)"/>
<path d="M235.676 1.53489L239.112 5.53489L232.241 5.53489L235.676 1.53489Z" fill="var(--fill-0, white)"/>
<path d="M227.743 1.53489L231.178 5.53489L224.308 5.53489L227.743 1.53489Z" fill="var(--fill-0, white)"/>
<path d="M219.81 1.53489L223.245 5.53489L216.375 5.53489L219.81 1.53489Z" fill="var(--fill-0, white)"/>
<path d="M211.877 1.53489L215.312 5.53489L208.441 5.53489L211.877 1.53489Z" fill="var(--fill-0, white)"/>
<path d="M203.943 1.53489L207.379 5.53489L200.508 5.53489L203.943 1.53489Z" fill="var(--fill-0, white)"/>
<path d="M196.01 1.53489L199.445 5.53489L192.575 5.53489L196.01 1.53489Z" fill="var(--fill-0, white)"/>
<path d="M188.077 1.53489L191.512 5.53489L184.642 5.53489L188.077 1.53489Z" fill="var(--fill-0, white)"/>
<path d="M180.144 1.53489L183.579 5.53489L176.708 5.53489L180.144 1.53489Z" fill="var(--fill-0, white)"/>
<path d="M172.21 1.53489L175.646 5.53489L168.775 5.53489L172.21 1.53489Z" fill="var(--fill-0, white)"/>
<path d="M164.277 1.53489L167.712 5.53489L160.842 5.53489L164.277 1.53489Z" fill="var(--fill-0, white)"/>
<path d="M156.344 1.53489L159.779 5.53489L152.909 5.53489L156.344 1.53489Z" fill="var(--fill-0, white)"/>
<path d="M148.411 1.53489L151.846 5.53489L144.975 5.53489L148.411 1.53489Z" fill="var(--fill-0, white)"/>
<path d="M140.477 1.53489L143.913 5.53489L137.042 5.53489L140.477 1.53489Z" fill="var(--fill-0, white)"/>
<path d="M132.544 1.53489L135.979 5.53489L129.109 5.53489L132.544 1.53489Z" fill="var(--fill-0, white)"/>
<path d="M124.611 1.53489L128.046 5.53489L121.176 5.53489L124.611 1.53489Z" fill="var(--fill-0, white)"/>
<path d="M116.678 1.53489L120.113 5.53489L113.242 5.53489L116.678 1.53489Z" fill="var(--fill-0, white)"/>
<path d="M108.744 1.53489L112.18 5.53489L105.309 5.53489L108.744 1.53489Z" fill="var(--fill-0, white)"/>
<path d="M100.811 1.53489L104.246 5.53489L97.3759 5.53489L100.811 1.53489Z" fill="var(--fill-0, white)"/>
<path d="M92.8778 1.53489L96.313 5.53489L89.4427 5.53489L92.8778 1.53489Z" fill="var(--fill-0, white)"/>
<path d="M84.9446 1.53489L88.3798 5.53489L81.5094 5.53489L84.9446 1.53489Z" fill="var(--fill-0, white)"/>
<path d="M77.0113 1.53489L80.4465 5.53489L73.5762 5.53489L77.0113 1.53489Z" fill="var(--fill-0, white)"/>
<path d="M69.0781 1.53489L72.5133 5.53489L65.6429 5.53489L69.0781 1.53489Z" fill="var(--fill-0, white)"/>
<path d="M61.1448 1.53489L64.5801 5.53489L57.7097 5.53489L61.1448 1.53489Z" fill="var(--fill-0, white)"/>
<path d="M53.2116 1.53489L56.6468 5.53489L49.7764 5.53489L53.2116 1.53489Z" fill="var(--fill-0, white)"/>
<path d="M45.2784 1.53489L48.7136 5.53489L41.8432 5.53489L45.2784 1.53489Z" fill="var(--fill-0, white)"/>
<path d="M37.3451 1.53489L40.7803 5.53489L33.9099 5.53489L37.3451 1.53489Z" fill="var(--fill-0, white)"/>
<path d="M29.4119 1.53489L32.8471 5.53489L25.9767 5.53489L29.4119 1.53489Z" fill="var(--fill-0, white)"/>
<path d="M21.4786 1.53489L24.9138 5.53489L18.0434 5.53489L21.4786 1.53489Z" fill="var(--fill-0, white)"/>
<path d="M13.5454 1.53489L16.9806 5.53489L10.1102 5.53489L13.5454 1.53489Z" fill="var(--fill-0, white)"/>
<path d="M5.61212 1.53489L9.04733 5.53489L2.17695 5.53489L5.61212 1.53489Z" fill="var(--fill-0, white)"/>
<path d="M346.742 1.53489L350.177 5.53489L343.307 5.53489L346.742 1.53489Z" stroke="var(--stroke-0, #ffffff)" stroke-width="2" mask="url(#path-1-outside-1_3739_141432)"/>
<path d="M338.809 1.53489L342.244 5.53489L335.373 5.53489L338.809 1.53489Z" stroke="var(--stroke-0, #ffffff)" stroke-width="2" mask="url(#path-1-outside-1_3739_141432)"/>
<path d="M330.875 1.53489L334.31 5.53489L327.44 5.53489L330.875 1.53489Z" stroke="var(--stroke-0, #ffffff)" stroke-width="2" mask="url(#path-1-outside-1_3739_141432)"/>
<path d="M322.942 1.53489L326.377 5.53489L319.507 5.53489L322.942 1.53489Z" stroke="var(--stroke-0, #ffffff)" stroke-width="2" mask="url(#path-1-outside-1_3739_141432)"/>
<path d="M315.009 1.53489L318.444 5.53489L311.574 5.53489L315.009 1.53489Z" stroke="var(--stroke-0, #ffffff)" stroke-width="2" mask="url(#path-1-outside-1_3739_141432)"/>
<path d="M307.076 1.53489L310.511 5.53489L303.64 5.53489L307.076 1.53489Z" stroke="var(--stroke-0, #ffffff)" stroke-width="2" mask="url(#path-1-outside-1_3739_141432)"/>
<path d="M299.142 1.53489L302.577 5.53489L295.707 5.53489L299.142 1.53489Z" stroke="var(--stroke-0, #ffffff)" stroke-width="2" mask="url(#path-1-outside-1_3739_141432)"/>
<path d="M291.209 1.53489L294.644 5.53489L287.774 5.53489L291.209 1.53489Z" stroke="var(--stroke-0, #ffffff)" stroke-width="2" mask="url(#path-1-outside-1_3739_141432)"/>
<path d="M283.276 1.53489L286.711 5.53489L279.841 5.53489L283.276 1.53489Z" stroke="var(--stroke-0, #ffffff)" stroke-width="2" mask="url(#path-1-outside-1_3739_141432)"/>
<path d="M275.343 1.53489L278.778 5.53489L271.907 5.53489L275.343 1.53489Z" stroke="var(--stroke-0, #ffffff)" stroke-width="2" mask="url(#path-1-outside-1_3739_141432)"/>
<path d="M267.409 1.53489L270.844 5.53489L263.974 5.53489L267.409 1.53489Z" stroke="var(--stroke-0, #ffffff)" stroke-width="2" mask="url(#path-1-outside-1_3739_141432)"/>
<path d="M259.476 1.53489L262.911 5.53489L256.041 5.53489L259.476 1.53489Z" stroke="var(--stroke-0, #ffffff)" stroke-width="2" mask="url(#path-1-outside-1_3739_141432)"/>
<path d="M251.543 1.53489L254.978 5.53489L248.108 5.53489L251.543 1.53489Z" stroke="var(--stroke-0, #ffffff)" stroke-width="2" mask="url(#path-1-outside-1_3739_141432)"/>
<path d="M243.61 1.53489L247.045 5.53489L240.174 5.53489L243.61 1.53489Z" stroke="var(--stroke-0, #ffffff)" stroke-width="2" mask="url(#path-1-outside-1_3739_141432)"/>
<path d="M235.676 1.53489L239.112 5.53489L232.241 5.53489L235.676 1.53489Z" stroke="var(--stroke-0, #ffffff)" stroke-width="2" mask="url(#path-1-outside-1_3739_141432)"/>
<path d="M227.743 1.53489L231.178 5.53489L224.308 5.53489L227.743 1.53489Z" stroke="var(--stroke-0, #ffffff)" stroke-width="2" mask="url(#path-1-outside-1_3739_141432)"/>
<path d="M219.81 1.53489L223.245 5.53489L216.375 5.53489L219.81 1.53489Z" stroke="var(--stroke-0, #ffffff)" stroke-width="2" mask="url(#path-1-outside-1_3739_141432)"/>
<path d="M211.877 1.53489L215.312 5.53489L208.441 5.53489L211.877 1.53489Z" stroke="var(--stroke-0, #ffffff)" stroke-width="2" mask="url(#path-1-outside-1_3739_141432)"/>
<path d="M203.943 1.53489L207.379 5.53489L200.508 5.53489L203.943 1.53489Z" stroke="var(--stroke-0, #ffffff)" stroke-width="2" mask="url(#path-1-outside-1_3739_141432)"/>
<path d="M196.01 1.53489L199.445 5.53489L192.575 5.53489L196.01 1.53489Z" stroke="var(--stroke-0, #ffffff)" stroke-width="2" mask="url(#path-1-outside-1_3739_141432)"/>
<path d="M188.077 1.53489L191.512 5.53489L184.642 5.53489L188.077 1.53489Z" stroke="var(--stroke-0, #ffffff)" stroke-width="2" mask="url(#path-1-outside-1_3739_141432)"/>
<path d="M180.144 1.53489L183.579 5.53489L176.708 5.53489L180.144 1.53489Z" stroke="var(--stroke-0, #ffffff)" stroke-width="2" mask="url(#path-1-outside-1_3739_141432)"/>
<path d="M172.21 1.53489L175.646 5.53489L168.775 5.53489L172.21 1.53489Z" stroke="var(--stroke-0, #ffffff)" stroke-width="2" mask="url(#path-1-outside-1_3739_141432)"/>
<path d="M164.277 1.53489L167.712 5.53489L160.842 5.53489L164.277 1.53489Z" stroke="var(--stroke-0, #ffffff)" stroke-width="2" mask="url(#path-1-outside-1_3739_141432)"/>
<path d="M156.344 1.53489L159.779 5.53489L152.909 5.53489L156.344 1.53489Z" stroke="var(--stroke-0, #ffffff)" stroke-width="2" mask="url(#path-1-outside-1_3739_141432)"/>
<path d="M148.411 1.53489L151.846 5.53489L144.975 5.53489L148.411 1.53489Z" stroke="var(--stroke-0, #ffffff)" stroke-width="2" mask="url(#path-1-outside-1_3739_141432)"/>
<path d="M140.477 1.53489L143.913 5.53489L137.042 5.53489L140.477 1.53489Z" stroke="var(--stroke-0, #ffffff)" stroke-width="2" mask="url(#path-1-outside-1_3739_141432)"/>
<path d="M132.544 1.53489L135.979 5.53489L129.109 5.53489L132.544 1.53489Z" stroke="var(--stroke-0, #ffffff)" stroke-width="2" mask="url(#path-1-outside-1_3739_141432)"/>
<path d="M124.611 1.53489L128.046 5.53489L121.176 5.53489L124.611 1.53489Z" stroke="var(--stroke-0, #ffffff)" stroke-width="2" mask="url(#path-1-outside-1_3739_141432)"/>
<path d="M116.678 1.53489L120.113 5.53489L113.242 5.53489L116.678 1.53489Z" stroke="var(--stroke-0, #ffffff)" stroke-width="2" mask="url(#path-1-outside-1_3739_141432)"/>
<path d="M108.744 1.53489L112.18 5.53489L105.309 5.53489L108.744 1.53489Z" stroke="var(--stroke-0, #ffffff)" stroke-width="2" mask="url(#path-1-outside-1_3739_141432)"/>
<path d="M100.811 1.53489L104.246 5.53489L97.3759 5.53489L100.811 1.53489Z" stroke="var(--stroke-0, #ffffff)" stroke-width="2" mask="url(#path-1-outside-1_3739_141432)"/>
<path d="M92.8778 1.53489L96.313 5.53489L89.4427 5.53489L92.8778 1.53489Z" stroke="var(--stroke-0, #ffffff)" stroke-width="2" mask="url(#path-1-outside-1_3739_141432)"/>
<path d="M84.9446 1.53489L88.3798 5.53489L81.5094 5.53489L84.9446 1.53489Z" stroke="var(--stroke-0, #ffffff)" stroke-width="2" mask="url(#path-1-outside-1_3739_141432)"/>
<path d="M77.0113 1.53489L80.4465 5.53489L73.5762 5.53489L77.0113 1.53489Z" stroke="var(--stroke-0, #ffffff)" stroke-width="2" mask="url(#path-1-outside-1_3739_141432)"/>
<path d="M69.0781 1.53489L72.5133 5.53489L65.6429 5.53489L69.0781 1.53489Z" stroke="var(--stroke-0, #ffffff)" stroke-width="2" mask="url(#path-1-outside-1_3739_141432)"/>
<path d="M61.1448 1.53489L64.5801 5.53489L57.7097 5.53489L61.1448 1.53489Z" stroke="var(--stroke-0, #ffffff)" stroke-width="2" mask="url(#path-1-outside-1_3739_141432)"/>
<path d="M53.2116 1.53489L56.6468 5.53489L49.7764 5.53489L53.2116 1.53489Z" stroke="var(--stroke-0, #ffffff)" stroke-width="2" mask="url(#path-1-outside-1_3739_141432)"/>
<path d="M45.2784 1.53489L48.7136 5.53489L41.8432 5.53489L45.2784 1.53489Z" stroke="var(--stroke-0, #ffffff)" stroke-width="2" mask="url(#path-1-outside-1_3739_141432)"/>
<path d="M37.3451 1.53489L40.7803 5.53489L33.9099 5.53489L37.3451 1.53489Z" stroke="var(--stroke-0, #ffffff)" stroke-width="2" mask="url(#path-1-outside-1_3739_141432)"/>
<path d="M29.4119 1.53489L32.8471 5.53489L25.9767 5.53489L29.4119 1.53489Z" stroke="var(--stroke-0, #ffffff)" stroke-width="2" mask="url(#path-1-outside-1_3739_141432)"/>
<path d="M21.4786 1.53489L24.9138 5.53489L18.0434 5.53489L21.4786 1.53489Z" stroke="var(--stroke-0, #ffffff)" stroke-width="2" mask="url(#path-1-outside-1_3739_141432)"/>
<path d="M13.5454 1.53489L16.9806 5.53489L10.1102 5.53489L13.5454 1.53489Z" stroke="var(--stroke-0, #ffffff)" stroke-width="2" mask="url(#path-1-outside-1_3739_141432)"/>
<path d="M5.61212 1.53489L9.04733 5.53489L2.17695 5.53489L5.61212 1.53489Z" stroke="var(--stroke-0, #ffffff)" stroke-width="2" mask="url(#path-1-outside-1_3739_141432)"/>
</g>
</g>
</svg>
