<svg width="28" height="11" viewBox="0 0 28 11" fill="none" xmlns="http://www.w3.org/2000/svg">
<path d="M25.4136 10.7524H27.2666V0.183594H25.3989L22.6377 2.12451V3.86035L25.3696 1.98535H25.4136V10.7524Z" fill="#141414"/>
<path d="M18.2754 10.7524H20.0771V8.72363H21.5127V7.1709H20.0771V0.183594H17.3892L13.002 7.1123V8.72363H18.2754V10.7524ZM14.7012 7.21484V7.16357L18.2607 1.61182H18.3047V7.21484H14.7012Z" fill="#141414"/>
<path d="M10.6538 3.83838C11.2471 3.83838 11.7085 3.36963 11.7085 2.77637C11.7085 2.18311 11.2471 1.72168 10.6538 1.72168C10.0605 1.72168 9.5918 2.18311 9.5918 2.77637C9.5918 3.36963 10.0605 3.83838 10.6538 3.83838ZM10.6538 9.21436C11.2471 9.21436 11.7085 8.74561 11.7085 8.15234C11.7085 7.55908 11.2471 7.09766 10.6538 7.09766C10.0605 7.09766 9.5918 7.55908 9.5918 8.15234C9.5918 8.74561 10.0605 9.21436 10.6538 9.21436Z" fill="#141414"/>
<path d="M3.95508 0C1.67725 0 0 1.53076 0 3.66211V3.67676C0 5.66162 1.43555 7.12646 3.47168 7.12646C4.8999 7.12646 5.95459 6.39404 6.37207 5.42725H6.41602C6.41602 5.54443 6.40869 5.6543 6.40137 5.76416C6.32812 7.76367 5.61768 9.38965 3.91846 9.38965C2.97363 9.38965 2.3291 8.9209 2.04346 8.1958L2.02148 8.12988H0.146484L0.161133 8.21045C0.490723 9.80713 1.95557 10.9351 3.91113 10.9351C6.60645 10.9351 8.2251 8.84766 8.2251 5.354V5.33936C8.2251 1.6333 6.28418 0 3.95508 0ZM3.95508 5.66895C2.75391 5.66895 1.86035 4.81201 1.86035 3.61084V3.59619C1.86035 2.45361 2.80518 1.54541 3.97705 1.54541C5.16357 1.54541 6.08643 2.46094 6.08643 3.63281V3.64014C6.08643 4.81934 5.16357 5.66895 3.95508 5.66895Z" fill="#141414"/>
</svg>
