<svg width="32" height="32" viewBox="0 0 32 32" fill="none" xmlns="http://www.w3.org/2000/svg">
<path fill-rule="evenodd" clip-rule="evenodd" d="M12.667 17.667C13.9557 17.667 15.0003 18.7117 15.0003 20.0003V26.667C15.0003 27.9557 13.9557 29.0003 12.667 29.0003H6.00033C4.71166 29.0003 3.66699 27.9557 3.66699 26.667V20.0003C3.66699 18.7117 4.71166 17.667 6.00033 17.667H12.667ZM6.00033 18.667C5.26395 18.667 4.66699 19.2639 4.66699 20.0003V26.667L4.67415 26.8031C4.73779 27.4308 5.23656 27.9295 5.86426 27.9932L6.00033 28.0003H12.667L12.8031 27.9932C13.4755 27.925 14.0003 27.3574 14.0003 26.667V20.0003C14.0003 19.2639 13.4034 18.667 12.667 18.667H6.00033Z" fill="#141414"/>
<path fill-rule="evenodd" clip-rule="evenodd" d="M26.0003 17.667C27.289 17.667 28.3337 18.7117 28.3337 20.0003V26.667C28.3337 27.9557 27.289 29.0003 26.0003 29.0003H19.3337C18.045 29.0003 17.0003 27.9557 17.0003 26.667V20.0003C17.0003 18.7117 18.045 17.667 19.3337 17.667H26.0003ZM19.3337 18.667C18.5973 18.667 18.0003 19.2639 18.0003 20.0003V26.667L18.0075 26.8031C18.0711 27.4308 18.5699 27.9295 19.1976 27.9932L19.3337 28.0003H26.0003L26.1364 27.9932C26.8088 27.925 27.3337 27.3574 27.3337 26.667V20.0003C27.3337 19.2639 26.7367 18.667 26.0003 18.667H19.3337Z" fill="#141414"/>
<path fill-rule="evenodd" clip-rule="evenodd" d="M12.667 3.66699C13.9557 3.66699 15.0003 4.71166 15.0003 6.00033V12.667C15.0003 13.9557 13.9557 15.0003 12.667 15.0003H6.00033C4.71166 15.0003 3.66699 13.9557 3.66699 12.667V6.00033C3.66699 4.71166 4.71166 3.66699 6.00033 3.66699H12.667ZM6.00033 4.66699C5.26395 4.66699 4.66699 5.26395 4.66699 6.00033V12.667L4.67415 12.8031C4.73779 13.4308 5.23656 13.9295 5.86426 13.9932L6.00033 14.0003H12.667L12.8031 13.9932C13.4755 13.925 14.0003 13.3574 14.0003 12.667V6.00033C14.0003 5.26395 13.4034 4.66699 12.667 4.66699H6.00033Z" fill="#141414"/>
<path fill-rule="evenodd" clip-rule="evenodd" d="M22.3337 4C25.4633 4 28.0003 6.53705 28.0003 9.66667C28.0003 12.7963 25.4633 15.3333 22.3337 15.3333C19.204 15.3333 16.667 12.7963 16.667 9.66667C16.667 6.53705 19.204 4 22.3337 4ZM22.5003 6C22.2242 6 22.0003 6.22386 22.0003 6.5V9H19.167C18.8908 9 18.667 9.22386 18.667 9.5C18.667 9.77614 18.8908 10 19.167 10H22.0003V12.8333C22.0003 13.1095 22.2242 13.3333 22.5003 13.3333C22.7765 13.3333 23.0003 13.1095 23.0003 12.8333V10H25.5003C25.7765 10 26.0003 9.77614 26.0003 9.5C26.0003 9.22386 25.7765 9 25.5003 9H23.0003V6.5C23.0003 6.22386 22.7765 6 22.5003 6Z" fill="#1ED760"/>
</svg>
