<svg width="20" height="20" viewBox="0 0 20 20" fill="none" xmlns="http://www.w3.org/2000/svg">
<path d="M8.5729 3.2915L1.5163 15.5C1.3706 15.7526 1.29373 16.0391 1.29315 16.3307C1.29256 16.6224 1.36829 16.9092 1.51298 17.1624C1.65767 17.4155 1.86622 17.6261 2.11774 17.7733C2.36926 17.9204 2.65492 17.9989 2.94623 18H17.0538C17.3451 17.9989 17.6308 17.9204 17.8823 17.7733C18.1338 17.6261 18.3424 17.4155 18.4871 17.1624C18.6317 16.9092 18.7075 16.6224 18.7069 16.3307C18.7063 16.0391 18.6294 15.7526 18.4838 15.5L11.4271 3.2915C11.2779 3.046 11.0679 2.84288 10.8174 2.7018C10.5669 2.56072 10.2842 2.48657 9.99999 2.48657C9.71576 2.48657 9.43312 2.56072 9.18261 2.7018C8.9321 2.84288 8.72211 3.046 8.5729 3.2915Z" stroke="#141414" stroke-width="1.5" stroke-linecap="round" stroke-linejoin="round"/>
<path d="M10 7.5V11" stroke="#141414" stroke-width="1.5" stroke-linecap="round" stroke-linejoin="round"/>
<path d="M10 14.5H10.008" stroke="#141414" stroke-width="1.5" stroke-linecap="round" stroke-linejoin="round"/>
</svg>
