<svg width="32" height="32" viewBox="0 0 32 32" fill="none" xmlns="http://www.w3.org/2000/svg">
<path d="M16.0007 28C16.3729 28 16.719 27.8304 17.4112 27.4912L22.9746 24.7649C25.4364 23.5584 26.6673 22.9552 26.6673 22V10M16.0007 28C15.6284 28 15.2823 27.8304 14.5901 27.4912L9.02673 24.7649C6.5649 23.5584 5.33398 22.9552 5.33398 22V10M16.0007 28V16" stroke="#141414" stroke-width="1.5" stroke-linecap="round" stroke-linejoin="round"/>
<path d="M14.5901 4.50878C15.2823 4.16959 15.6284 4 16.0007 4C16.3729 4 16.719 4.16959 17.4112 4.50878L22.9746 7.23513C25.4364 8.44155 26.6673 9.04476 26.6673 10C26.6673 10.9552 25.4364 11.5584 22.9746 12.7649L17.4112 15.4912C16.719 15.8304 16.3729 16 16.0007 16C15.6284 16 15.2823 15.8304 14.5901 15.4912L9.02673 12.7649C6.5649 11.5584 5.33398 10.9552 5.33398 10C5.33398 9.04476 6.5649 8.44155 9.02673 7.23513L14.5901 4.50878Z" stroke="#141414" stroke-width="1.5" stroke-linejoin="round"/>
</svg>
