<svg width="48" height="48" viewBox="0 0 48 48" fill="none" xmlns="http://www.w3.org/2000/svg">
<g transform="translate(3.25 4.94)">
<path d="M7.31543 0C7.72956 0 8.0653 0.335899 8.06543 0.75V3.59668C8.06559 3.60301 8.06641 3.60984 8.06641 3.61621C8.0664 3.61948 8.06547 3.62272 8.06543 3.62598V5.7168C8.06543 6.13101 7.72964 6.4668 7.31543 6.4668C6.90122 6.4668 6.56543 6.13101 6.56543 5.7168V4.36621H4.75C2.95508 4.36621 1.5 5.82129 1.5 7.61621V8.30566H39V7.31738C39 5.68769 37.6785 4.36621 36.0488 4.36621C35.6349 4.36603 35.2991 4.03009 35.2988 3.61621C35.2988 3.20211 35.6348 2.8664 36.0488 2.86621C38.507 2.86621 40.5 4.85926 40.5 7.31738V20.3359C40.4997 20.7499 40.1641 21.0859 39.75 21.0859C39.3359 21.0859 39.0003 20.7499 39 20.3359V9.80566H1.5V33.0566C1.50053 34.8511 2.9554 36.3066 4.75 36.3066H20.25C20.6642 36.3066 21 36.6424 21 37.0566C20.9995 37.4704 20.6639 37.8066 20.25 37.8066H4.75C2.12697 37.8066 0.000527696 35.6795 0 33.0566V7.61621C5.15413e-07 4.99286 2.12665 2.86621 4.75 2.86621H6.56543V0.75C6.56556 0.335899 6.9013 0 7.31543 0Z" fill="#141414"/>
<path d="M8.75 27.3057C9.16421 27.3057 9.5 27.6415 9.5 28.0557C9.5 28.4699 9.16421 28.8057 8.75 28.8057H7.75C7.33579 28.8057 7 28.4699 7 28.0557C7 27.6415 7.33579 27.3057 7.75 27.3057H8.75Z" fill="#141414"/>
<path d="M16.75 27.3057C17.1642 27.3057 17.5 27.6415 17.5 28.0557C17.5 28.4699 17.1642 28.8057 16.75 28.8057H15.75C15.3358 28.8057 15 28.4699 15 28.0557C15 27.6415 15.3358 27.3057 15.75 27.3057H16.75Z" fill="#141414"/>
<path d="M8.75 21.3057C9.16421 21.3057 9.5 21.6415 9.5 22.0557C9.5 22.4699 9.16421 22.8057 8.75 22.8057H7.75C7.33579 22.8057 7 22.4699 7 22.0557C7 21.6415 7.33579 21.3057 7.75 21.3057H8.75Z" fill="#141414"/>
<path d="M16.75 21.3057C17.1642 21.3057 17.5 21.6415 17.5 22.0557C17.5 22.4699 17.1642 22.8057 16.75 22.8057H15.75C15.3358 22.8057 15 22.4699 15 22.0557C15 21.6415 15.3358 21.3057 15.75 21.3057H16.75Z" fill="#141414"/>
<path d="M8.75 15.3057C9.16421 15.3057 9.5 15.6415 9.5 16.0557C9.5 16.4699 9.16421 16.8057 8.75 16.8057H7.75C7.33579 16.8057 7 16.4699 7 16.0557C7 15.6415 7.33579 15.3057 7.75 15.3057H8.75Z" fill="#141414"/>
<path d="M16.75 15.3057C17.1642 15.3057 17.5 15.6415 17.5 16.0557C17.5 16.4699 17.1642 16.8057 16.75 16.8057H15.75C15.3358 16.8057 15 16.4699 15 16.0557C15 15.6415 15.3358 15.3057 15.75 15.3057H16.75Z" fill="#141414"/>
<path d="M24.75 15.3057C25.1642 15.3057 25.5 15.6415 25.5 16.0557C25.5 16.4699 25.1642 16.8057 24.75 16.8057H23.75C23.3358 16.8057 23 16.4699 23 16.0557C23 15.6415 23.3358 15.3057 23.75 15.3057H24.75Z" fill="#141414"/>
<path d="M32.75 15.3057C33.1642 15.3057 33.5 15.6415 33.5 16.0557C33.5 16.4699 33.1642 16.8057 32.75 16.8057H31.75C31.3358 16.8057 31 16.4699 31 16.0557C31 15.6415 31.3358 15.3057 31.75 15.3057H32.75Z" fill="#141414"/>
<path d="M16.0283 0C16.4425 0 16.7782 0.335899 16.7783 0.75V5.7168C16.7783 6.13101 16.4425 6.4668 16.0283 6.4668C15.6141 6.4668 15.2783 6.13101 15.2783 5.7168V4.36621H9.83496C9.42091 4.36621 9.08522 4.0302 9.08496 3.61621C9.08496 3.202 9.42075 2.86621 9.83496 2.86621H15.2783V0.75C15.2785 0.335899 15.6142 0 16.0283 0Z" fill="#141414"/>
<path d="M24.7422 0C25.1563 0 25.4921 0.335899 25.4922 0.75V5.7168C25.4922 6.13101 25.1564 6.4668 24.7422 6.4668C24.328 6.4668 23.9922 6.13101 23.9922 5.7168V4.36621H18.6094C18.1953 4.36621 17.8596 4.0302 17.8594 3.61621C17.8594 3.202 18.1952 2.86621 18.6094 2.86621H23.9922V0.75C23.9923 0.335899 24.3281 0 24.7422 0Z" fill="#141414"/>
<path d="M33.4561 0C33.8702 0 34.2059 0.335899 34.2061 0.75V5.7168C34.2061 6.13101 33.8703 6.4668 33.4561 6.4668C33.0418 6.4668 32.7061 6.13101 32.7061 5.7168V4.36621H27.3633C26.9492 4.36621 26.6135 4.0302 26.6133 3.61621C26.6133 3.202 26.9491 2.86621 27.3633 2.86621H32.7061V0.75C32.7062 0.335899 33.0419 0 33.4561 0Z" fill="#141414"/>
</g>
<g transform="translate(26 26)">
<path fill-rule="evenodd" clip-rule="evenodd" d="M10 0C15.5228 0 20 4.47715 20 10C20 15.5228 15.5228 20 10 20C4.47715 20 0 15.5228 0 10C0 4.47715 4.47715 0 10 0ZM5.34668 5.79102C5.13962 5.7196 4.91252 5.74235 4.72559 5.85059L4.64844 5.90234L2.74414 7.34863C2.41447 7.599 2.34962 8.06957 2.59961 8.39941C2.80588 8.67079 3.15977 8.75848 3.46289 8.64258C3.06279 10.7868 3.69075 13.0859 5.35059 14.7451L5.56738 14.9531C7.84764 17.0445 11.1991 17.3087 13.752 15.7529C14.1053 15.5375 14.2169 15.0762 14.002 14.7227C13.7864 14.369 13.3254 14.2572 12.9717 14.4727C10.9778 15.6878 8.36035 15.4783 6.58105 13.8467L6.41113 13.6846C5.08585 12.3599 4.602 10.5106 4.95996 8.80273C5.12494 9.08787 5.46384 9.24094 5.79785 9.15332C6.19813 9.04818 6.43761 8.63863 6.33301 8.23828L5.82715 6.30957C5.76355 6.06761 5.58309 5.87283 5.34668 5.79102ZM15.0352 5.0625C12.7546 2.78203 9.26893 2.44863 6.63379 4.05469C6.28025 4.27031 6.16826 4.73231 6.38379 5.08594C6.59962 5.43885 7.06168 5.55131 7.41504 5.33594C9.47339 4.08146 12.1952 4.34376 13.9746 6.12305C15.358 7.5069 15.824 9.46097 15.373 11.2295C15.2322 11.1112 15.0486 11.043 14.8506 11.0537C14.4372 11.0763 14.1202 11.4303 14.1426 11.8438L14.2471 13.7715C14.2613 14.0313 14.4101 14.2654 14.6387 14.3896C14.8671 14.5136 15.1436 14.511 15.3691 14.3818L17.1934 13.3359C17.5521 13.1299 17.6761 12.6716 17.4707 12.3125C17.3163 12.0433 17.0196 11.9049 16.7295 11.9395C17.4596 9.58968 16.8968 6.92465 15.0352 5.0625Z" fill="#1ED760"/>
</g>
</svg>
