<svg width="48" height="48" viewBox="0 0 48 48" fill="none" xmlns="http://www.w3.org/2000/svg">
<path fill-rule="evenodd" clip-rule="evenodd" d="M40.2061 8.00488C42.3194 8.11212 44 9.85996 44 12V36C44 38.14 42.3194 39.8879 40.2061 39.9951L40 40H8C5.79086 40 4 38.2091 4 36V12C4 9.79086 5.79086 8 8 8H40L40.2061 8.00488ZM5.5 19V36C5.5 37.3807 6.61929 38.5 8 38.5H40C41.3807 38.5 42.5 37.3807 42.5 36V19H5.5ZM8 9.5C6.61929 9.5 5.5 10.6193 5.5 12V17.5H42.5V12C42.5 10.6193 41.3807 9.5 40 9.5H8Z" fill="#141414"/>
<path d="M26 31.5C26.8284 31.5 27.5 32.1716 27.5 33C27.5 33.8284 26.8284 34.5 26 34.5H23C22.1716 34.5 21.5 33.8284 21.5 33C21.5 32.1716 22.1716 31.5 23 31.5H26Z" fill="#1ED760"/>
<path d="M8 22C8 21.4477 8.44772 21 9 21H39C39.5523 21 40 21.4477 40 22V25C40 25.5523 39.5523 26 39 26H9C8.44772 26 8 25.5523 8 25V22Z" fill="#1ED760"/>
<path d="M38 31.5C38.8284 31.5 39.5 32.1716 39.5 33C39.5 33.8284 38.8284 34.5 38 34.5L31 34.5C30.1716 34.5 29.5 33.8284 29.5 33C29.5 32.1716 30.1716 31.5 31 31.5L38 31.5Z" fill="#1ED760"/>
</svg>
