<svg preserveAspectRatio="none" width="100%" height="100%" overflow="visible" style="display: block;" viewBox="0 0 12.1669 14.8335" fill="none" xmlns="http://www.w3.org/2000/svg">
<path id="Icon" d="M3.41667 3.33333C3.00245 3.33333 2.66667 3.66912 2.66667 4.08333C2.66667 4.49755 3.00245 4.83333 3.41667 4.83333V4.08333V3.33333ZM8.75 4.83333C9.16422 4.83333 9.5 4.49755 9.5 4.08333C9.5 3.66912 9.16422 3.33333 8.75 3.33333V4.08333V4.83333ZM3.41667 6C3.00245 6 2.66667 6.33579 2.66667 6.75C2.66667 7.16421 3.00245 7.5 3.41667 7.5V6.75V6ZM6.08333 7.5C6.49755 7.5 6.83333 7.16421 6.83333 6.75C6.83333 6.33579 6.49755 6 6.08333 6V6.75V7.5ZM11.4167 8.3121H12.1667V8.3121H11.4167ZM11.4167 6.08333H10.6667V6.08333H11.4167ZM0.750001 6.08333H1.5H0.750001ZM0.750001 9.11277H1.13249e-06H0.750001ZM7.47792 13.3554L6.94759 12.8251V12.8251L7.47792 13.3554ZM10.6356 10.1977L10.1053 9.66739V9.66739L10.6356 10.1977ZM6.77301 13.9528L7.09661 14.6294L7.09661 14.6294L6.77301 13.9528ZM5.72056 14.0833V14.8333V14.0833ZM6.64146 14.0073L6.39185 13.3001V13.3001L6.64146 14.0073ZM1.34072 13.0904L0.756855 13.5612H0.756856L1.34072 13.0904ZM1.74289 13.4926L1.27214 14.0765H1.27214L1.74289 13.4926ZM1.53105 1.53105L2.06138 2.06138L2.06138 2.06138L1.53105 1.53105ZM6.08334 0.750001V1.37091e-06V0.750001ZM10.6356 1.53105L10.1053 2.06138L10.1053 2.06138L10.6356 1.53105ZM6 13.75C6 14.1642 6.33579 14.5 6.75 14.5C7.16421 14.5 7.5 14.1642 7.5 13.75H6.75H6ZM11.0833 10.1667C11.4975 10.1667 11.8333 9.83088 11.8333 9.41667C11.8333 9.00245 11.4975 8.66667 11.0833 8.66667V9.41667V10.1667ZM7.33579 10.0025L6.80546 9.47212L7.33579 10.0025ZM3.41667 4.08333V4.83333L8.75 4.83333V4.08333V3.33333L3.41667 3.33333V4.08333ZM3.41667 6.75V7.5H6.08333V6.75V6H3.41667V6.75ZM11.4167 8.3121H12.1667V6.08333H11.4167H10.6667V8.3121H11.4167ZM0.750001 6.08333H1.37091e-06L1.13249e-06 9.11277H0.750001H1.5L1.5 6.08333H0.750001ZM7.47792 13.3554L8.00825 13.8857L11.166 10.728L10.6356 10.1977L10.1053 9.66739L6.94759 12.8251L7.47792 13.3554ZM7.47792 13.3554L6.94759 12.8251C6.57803 13.1946 6.51259 13.246 6.44941 13.2762L6.77301 13.9528L7.09661 14.6294C7.44548 14.4626 7.71263 14.1814 8.00825 13.8857L7.47792 13.3554ZM5.72056 14.0833V14.8333C6.13863 14.8333 6.52639 14.8433 6.89106 14.7146L6.64146 14.0073L6.39185 13.3001C6.3258 13.3234 6.24321 13.3333 5.72056 13.3333V14.0833ZM6.77301 13.9528L6.44941 13.2762C6.43065 13.2852 6.41144 13.2932 6.39185 13.3001L6.64146 14.0073L6.89106 14.7146C6.96105 14.6899 7.02967 14.6615 7.09661 14.6294L6.77301 13.9528ZM0.750001 9.11277H1.13249e-06C1.01328e-06 10.1763 -0.00119627 11.0391 0.0789008 11.7251C0.160885 12.4273 0.336595 13.04 0.756855 13.5612L1.34072 13.0904L1.92458 12.6197C1.75412 12.4083 1.63447 12.1138 1.56878 11.5511C1.5012 10.9723 1.5 10.2126 1.5 9.11277H0.750001ZM5.72056 14.0833V13.3333C4.62076 13.3333 3.86101 13.3321 3.28219 13.2646C2.71953 13.1989 2.42505 13.0792 2.21364 12.9088L1.74289 13.4926L1.27214 14.0765C1.79338 14.4967 2.40606 14.6724 3.10824 14.7544C3.79425 14.8345 4.65701 14.8333 5.72056 14.8333V14.0833ZM1.34072 13.0904L0.756856 13.5612C0.909756 13.7508 1.0825 13.9236 1.27214 14.0765L1.74289 13.4926L2.21364 12.9088C2.10726 12.823 2.01035 12.7261 1.92458 12.6197L1.34072 13.0904ZM0.750001 6.08333H1.5C1.5 4.80505 1.50159 3.92179 1.59094 3.25721C1.67739 2.61421 1.83343 2.28933 2.06138 2.06138L1.53105 1.53105L1.00072 1.00072C0.447619 1.55382 0.213133 2.248 0.104321 3.05734C-0.00159121 3.8451 1.49012e-06 4.84746 1.37091e-06 6.08333H0.750001ZM6.08334 0.750001V1.37091e-06C4.84746 1.2517e-06 3.8451 -0.00159162 3.05734 0.10432C2.248 0.213133 1.55382 0.447619 1.00072 1.00072L1.53105 1.53105L2.06138 2.06138C2.28933 1.83343 2.61421 1.67739 3.25721 1.59094C3.92179 1.50159 4.80505 1.5 6.08334 1.5V0.750001ZM11.4167 6.08333H12.1667C12.1667 4.84746 12.1683 3.8451 12.0623 3.05734C11.9535 2.248 11.7191 1.55382 11.166 1.00072L10.6356 1.53105L10.1053 2.06138C10.3332 2.28933 10.4893 2.61421 10.5757 3.25721C10.6651 3.92179 10.6667 4.80505 10.6667 6.08333H11.4167ZM6.08334 0.750001V1.5C7.36162 1.5 8.24488 1.50159 8.90946 1.59094C9.55246 1.67739 9.87734 1.83343 10.1053 2.06138L10.6356 1.53105L11.166 1.00072C10.6128 0.44762 9.91867 0.213133 9.10933 0.104321C8.32157 -0.00159127 7.31921 1.49012e-06 6.08334 1.37091e-06V0.750001ZM11.4167 8.3121H10.6667C10.6667 8.9183 10.6534 9.01246 10.6223 9.08762L11.3152 9.37463L12.0081 9.66164C12.1799 9.24673 12.1667 8.7959 12.1667 8.3121H11.4167ZM10.6356 10.1977L11.166 10.728C11.5081 10.3859 11.8362 10.0765 12.0081 9.66164L11.3152 9.37463L10.6223 9.08762C10.5911 9.16276 10.5339 9.23874 10.1053 9.66739L10.6356 10.1977ZM6.75 13.75H7.5V13.4167H6.75H6V13.75H6.75ZM10.75 9.41667V10.1667H11.0833V9.41667V8.66667H10.75V9.41667ZM6.75 13.4167H7.5C7.5 12.4527 7.50159 11.8051 7.56654 11.3221C7.62858 10.8606 7.7358 10.6631 7.86612 10.5328L7.33579 10.0025L6.80546 9.47212C6.34999 9.92759 6.16432 10.4944 6.07991 11.1222C5.99841 11.7284 6 12.4951 6 13.4167H6.75ZM10.75 9.41667V8.66667C9.8284 8.66667 9.06174 8.66507 8.45552 8.74658C7.82773 8.83098 7.26093 9.01665 6.80546 9.47212L7.33579 10.0025L7.86612 10.5328C7.99643 10.4025 8.19393 10.2952 8.65539 10.2332C9.13843 10.1683 9.78599 10.1667 10.75 10.1667V9.41667Z" fill="#141414"/>
</svg>
