<svg width="32" height="32" viewBox="0 0 32 32" fill="none" xmlns="http://www.w3.org/2000/svg">
<path d="M4.72714 16.8925L4.36047 11.3999C4.17669 8.6468 6.61495 6.44591 9.33488 6.90972L14.6997 7.82455C16.8499 8.19121 18.3773 10.1206 18.2408 12.2976L18.0904 14.6961C17.9494 16.9444 16.0848 18.6957 13.8321 18.6957H10.2073C9.65503 18.6957 9.20732 19.1434 9.20732 19.6957V21.0172L6.97174 18.8252C6.8871 18.7422 6.77328 18.6957 6.65473 18.6957C5.63773 18.6957 4.79488 17.9072 4.72714 16.8925Z" stroke="white" stroke-width="1.5"/>
<path d="M26.5908 19.9684L26.9244 14.9566C27.1037 12.2631 24.768 10.0821 22.0931 10.4453L15.0304 11.4043C12.819 11.7045 11.2126 13.6582 11.3453 15.8859L11.685 21.5877C11.7641 22.9155 12.8639 23.9517 14.194 23.9517C14.5194 23.9517 14.7831 24.2154 14.7831 24.5408V26.5501L17.1337 24.2387C17.3207 24.0548 17.5725 23.9517 17.8348 23.9517H22.3335C24.5799 23.9517 26.4416 22.2099 26.5908 19.9684Z" fill="white"/>
<ellipse cx="13.4449" cy="17.5072" rx="1.13823" ry="1.09898" fill="#35DB70"/>
<ellipse cx="17.9986" cy="17.5072" rx="1.13823" ry="1.09898" fill="#35DB70"/>
<ellipse cx="22.5503" cy="17.5072" rx="1.13823" ry="1.09898" fill="#35DB70"/>
</svg>
