<svg width="16" height="16" viewBox="0 0 16 16" fill="none" xmlns="http://www.w3.org/2000/svg">
<svg x="0.71" y="0.71" width="14.5833" height="14.5833" viewBox="0 0 14.5833 14.5833" fill="none">
<path d="M5.625 5.625C5.625 4.70453 6.3712 3.95833 7.29167 3.95833C8.21213 3.95833 8.95833 4.70453 8.95833 5.625C8.95833 6.19628 8.6709 6.70043 8.23277 7.00072C7.77722 7.31296 7.29167 7.73938 7.29167 8.29167M13.9583 7.29167C13.9583 10.9736 10.9736 13.9583 7.29167 13.9583C3.60977 13.9583 0.625 10.9736 0.625 7.29167C0.625 3.60977 3.60977 0.625 7.29167 0.625C10.9736 0.625 13.9583 3.60977 13.9583 7.29167Z" stroke="#0B712F" stroke-width="1.25" stroke-linecap="round" stroke-linejoin="round"/>
</svg>
<circle cx="7.29" cy="11.33" r="0.9" fill="#0B712F"/>
</svg>
