<svg width="32" height="32" viewBox="0 0 32 32" fill="none" xmlns="http://www.w3.org/2000/svg">
<path d="M12.0822 6.43511L4.31882 13.2284C3.65306 13.811 4.09944 14.8457 5.01651 14.8457C5.57679 14.8457 6.03098 15.2652 6.03098 15.7827V20.1074C6.03098 23.828 6.03098 25.6883 7.28235 26.8442C8.53372 28 10.5478 28 14.5759 28H17.4241C21.4522 28 23.4663 28 24.7177 26.8442C25.969 25.6883 25.969 23.828 25.969 20.1074V15.7827C25.969 15.2652 26.4232 14.8457 26.9835 14.8457C27.9006 14.8457 28.3469 13.811 27.6812 13.2284L19.9178 6.43511C18.0626 4.8117 17.135 4 16 4C14.865 4 13.9374 4.8117 12.0822 6.43511Z" fill="#1ED760" stroke="#141414" stroke-width="1.5" stroke-linecap="round" stroke-linejoin="round"/>
<path d="M15.7998 21C15.7998 21 11.7998 18.5294 11.7998 16.1389C11.7998 14.9576 12.6419 14 13.7998 14C14.3998 14 14.9998 14.2059 15.7998 15.0294C16.5998 14.2059 17.1998 14 17.7998 14C18.9577 14 19.7998 14.9576 19.7998 16.1389C19.7998 18.5294 15.7998 21 15.7998 21Z" fill="white"/>
</svg>
