<svg width="32" height="32" viewBox="0 0 32 32" fill="none" xmlns="http://www.w3.org/2000/svg">
<path d="M12.0822 6.43511L4.31882 13.2284C3.65306 13.811 4.09944 14.8457 5.01651 14.8457C5.57679 14.8457 6.03098 15.2652 6.03098 15.7827V20.1074C6.03098 23.828 6.03098 25.6883 7.28235 26.8442C8.53372 28 10.5478 28 14.5759 28H17.4241C21.4522 28 23.4663 28 24.7177 26.8442C25.969 25.6883 25.969 23.828 25.969 20.1074V15.7827C25.969 15.2652 26.4232 14.8457 26.9835 14.8457C27.9006 14.8457 28.3469 13.811 27.6812 13.2284L19.9178 6.43511C18.0626 4.8117 17.135 4 16 4C14.865 4 13.9374 4.8117 12.0822 6.43511Z" stroke="#141414" stroke-width="1.5" stroke-linecap="round" stroke-linejoin="round"/>
</svg>
