<svg width="28" height="24" viewBox="0 0 28 24" fill="none" xmlns="http://www.w3.org/2000/svg">
<path fill-rule="evenodd" clip-rule="evenodd" d="M25.3333 0C26.8061 6.43763e-08 28 1.19391 28 2.66667V16C28 17.4728 26.8061 18.6667 25.3333 18.6667H22.5241L24.377 22.373C24.5002 22.62 24.3999 22.9202 24.153 23.0436C23.9061 23.1669 23.6059 23.0666 23.4824 22.8197L21.5527 18.9603C21.5056 18.8659 21.4919 18.7638 21.5059 18.6667H6.79232C6.80625 18.7638 6.79258 18.8659 6.74544 18.9603L4.81576 22.8197C4.6923 23.0666 4.39212 23.1669 4.14518 23.0436C3.89829 22.9202 3.79794 22.62 3.92122 22.373L5.77409 18.6667H2.66667C1.19391 18.6667 -6.43764e-08 17.4728 0 16V2.66667C7.42503e-08 1.23998 1.12037 0.0747431 2.5293 0.00325521L2.66667 0H25.3333ZM1 16C1 16.9205 1.74619 17.6667 2.66667 17.6667H25.3333C26.2538 17.6667 27 16.9205 27 16V2.66667C27 1.74619 26.2538 1 25.3333 1H2.66667C1.74619 1 1 1.74619 1 2.66667V16Z" fill="#141414"/>
<path d="M11.333 13.333V5.33301L18.6663 9.33301L11.333 13.333Z" fill="#1ED760"/>
</svg>
