<svg width="19" height="27" viewBox="0 0 19 27" fill="none" xmlns="http://www.w3.org/2000/svg">
<path d="M15.8333 26.333L3.16667 26.333C1.41777 26.333 2.51492e-07 24.9152 -1.48307e-07 23.1663L-8.50201e-07 8.17936C8.58762e-05 7.33444 0.337882 6.52464 0.93815 5.93001L6 0.91634C6.59294 0.329097 7.39399 -0.000299503 8.22851 -0.000326641L15.8333 -0.000326952C17.5822 -0.000327023 19 1.41744 19 3.16634L19 23.1663C19 24.9152 17.5822 26.333 15.8333 26.333ZM15.8333 25.333C17.03 25.333 18 24.363 18 23.1663L18 3.16634C18 1.96972 17.0299 0.999673 15.8333 0.999673L8.22851 0.999673C7.65756 0.999701 7.10946 1.22486 6.70378 1.62663L1.64193 6.6403C1.23119 7.04713 1.00009 7.60125 0.999999 8.17936L1 23.1663C1 24.363 1.97005 25.333 3.16667 25.333L15.8333 25.333Z" fill="#141414"/>
<path d="M6.92253 20.6491V23.1667H5.16602C4.06145 23.1667 3.16602 22.2712 3.16602 21.1667V20.6491H6.92253Z" fill="#1ED760"/>
<path d="M11.4368 10.5C11.3571 10.5886 11.3073 10.7047 11.3073 10.8333V23.1667H7.92253V18.7982C7.92249 17.7857 7.10165 16.9649 6.08919 16.9648H3.16602V12.5C3.16602 11.3954 4.06145 10.5 5.16602 10.5H11.4368Z" fill="#1ED760"/>
<path d="M15.8327 21.1667C15.8327 22.2712 14.9373 23.1667 13.8327 23.1667H12.3073V19.6413H15.8327V21.1667Z" fill="#1ED760"/>
<path d="M6.08919 17.9648C6.54936 17.9649 6.92249 18.338 6.92253 18.7982V19.6491H3.16602V17.9648H6.08919Z" fill="#1ED760"/>
<path d="M15.8327 18.6413H12.3073V15.487H15.8327V18.6413Z" fill="#1ED760"/>
<path d="M13.8327 10.5C14.9373 10.5 15.8327 11.3954 15.8327 12.5V14.487H12.3073V10.8333C12.3073 10.7048 12.2575 10.5886 12.1777 10.5H13.8327Z" fill="#1ED760"/>
</svg>
