<svg width="24" height="24" viewBox="0 0 24 24" fill="none" xmlns="http://www.w3.org/2000/svg">
<path d="M8.5 18C8.5 19.933 10.067 21.5 12 21.5C13.933 21.5 15.5 19.933 15.5 18M4.76887 18H19.2311C20.208 18 21 17.208 21 16.2311C21 15.762 20.8136 15.3121 20.4819 14.9803L19.8787 14.3771C19.3161 13.8145 19 13.0514 19 12.2558V9.5C19 5.634 15.866 2.5 12 2.5C8.13401 2.5 5 5.63401 5 9.5V12.2558C5 13.0514 4.68393 13.8145 4.12132 14.3771L3.51809 14.9803C3.18636 15.3121 3 15.762 3 16.2311C3 17.208 3.79195 18 4.76887 18Z" stroke="#141414" stroke-width="1.5" stroke-linecap="round" stroke-linejoin="round"/>
</svg>
