<svg width="350" height="175" viewBox="0 0 350 175" fill="none" xmlns="http://www.w3.org/2000/svg">
<ellipse cx="161.394" cy="160.404" rx="71.2106" ry="5.84564" fill="#141414"/>
<mask id="mask0_2765_21939" style="mask-type:alpha" maskUnits="userSpaceOnUse" x="90" y="11" width="170" height="156">
<path d="M232.604 160.404C232.604 163.633 200.722 166.25 161.394 166.25C122.065 166.25 90.183 163.633 90.183 160.404C90.183 157.176 83.5403 4.96322 212.41 12.1374C304.878 12.1374 232.604 157.176 232.604 160.404Z" fill="#141414"/>
</mask>
<g mask="url(#mask0_2765_21939)">
<path d="M182.097 170.739L202.336 106.575C202.336 106.575 167.269 93.3401 165.738 96.8858C154.808 122.228 126.361 168.301 123.663 170.739C143.186 171.941 162.575 171.935 182.097 170.739Z" fill="#1ED760"/>
<path d="M185.123 85.7611C184.555 83.5495 183.725 81.4354 182.775 79.3603C182.211 78.1238 181.864 76.9731 181.899 75.6001C181.93 74.5157 182.008 73.4431 181.958 72.3587C181.771 68.2475 180.497 64.1909 178.324 60.6959C177.242 58.9524 175.937 57.3375 174.442 55.9333C172.88 54.4667 171.031 53.0352 168.877 52.6295C167.156 52.3057 165.205 52.7036 163.955 53.9986C162.518 55.4886 162.53 57.7393 163.235 59.5726C164.048 61.6984 165.481 63.5239 166.373 65.6185C167.296 67.7833 167.876 70.1276 167.888 72.4913C167.911 77.2617 165.162 81.2716 163.834 85.7065C162.6 89.8256 162.915 94.2956 164.64 98.2235C164.964 98.9568 165.353 99.655 165.774 100.338C167.253 104.102 171.611 105.369 175.38 105.323C177.386 105.295 179.485 104.968 181.233 103.93C183.102 102.822 184.158 100.962 184.886 98.9685C186.432 94.7442 186.225 90.0674 185.12 85.7611H185.123Z" fill="#1ED760"/>
<path d="M219.201 82.1304C218.582 78.3273 217.094 76.3185 216.28 75.6203C217.375 73.1356 216.966 69.5783 216.062 67.5773C214.676 64.5075 212.051 63.1189 211.171 63.2983C211.315 62.5689 211.257 61.2115 211.023 60.4821C210.202 57.8843 208.699 56.0042 206.093 55.1422C203.083 54.1436 199.15 54.6702 196.346 55.9379C193.41 57.268 190.641 59.113 188.258 61.2817C186.432 62.9433 184.976 66.2198 185.205 67.901C182.546 70.3545 180.194 73.1317 178.219 76.182C177.814 76.81 178.815 77.3911 179.216 76.7671C179.796 75.8699 180.427 75.004 181.074 74.1537C180.567 75.5579 180.096 76.9816 179.87 78.4638C179.598 80.2308 179.656 82.0173 179.703 83.7998C179.796 87.5678 179.863 91.3358 179.995 95.0998C180.108 98.2632 180.264 101.606 181.49 104.567C182.631 107.328 184.761 109.189 187.608 110.051C190.641 110.971 194.224 111.303 197.25 110.242C200.225 109.197 202.947 107.293 205.42 105.378C207.896 103.459 210.182 101.298 212.262 98.9536C214.435 96.508 220.65 91.0003 219.201 82.1226V82.1304Z" fill="#1ED760"/>
<path d="M181.381 97.319C181.268 97.319 181.155 97.2878 181.054 97.2176C180.789 97.0381 180.723 96.6754 180.902 96.414C187.721 86.4285 181.171 75.2104 181.101 75.0973C181.039 74.9959 181.011 74.875 181.019 74.754L181.237 71.9027C181.261 71.5829 181.529 71.3488 181.856 71.3683C182.176 71.3917 182.413 71.6726 182.39 71.9885L182.183 74.6643C182.997 76.1426 188.628 87.1423 181.852 97.0615C181.739 97.2254 181.56 97.3151 181.373 97.3151L181.381 97.319Z" fill="#12923F"/>
<path d="M200.984 92.0799C200.786 92.0799 200.583 92.0721 200.381 92.0526C198.457 91.8692 196.919 90.898 196.167 89.3924C195.303 87.6683 195.595 85.4567 196.985 83.167C202.211 74.5662 209.123 71.594 215.953 75.0148C216.238 75.1591 216.354 75.5062 216.21 75.791C216.066 76.0757 215.72 76.1928 215.435 76.0484C209.119 72.885 202.92 75.6272 197.97 83.7677C196.794 85.7024 196.518 87.5162 197.195 88.8736C197.768 90.0165 198.967 90.7537 200.486 90.9019C204.695 91.2958 208.243 86.2641 208.278 86.2134C208.461 85.952 208.819 85.8857 209.084 86.0652C209.345 86.2485 209.411 86.6073 209.232 86.8687C209.08 87.091 205.579 92.0799 200.98 92.0799H200.984Z" fill="#12923F"/>
<path d="M193.449 86.2212C191.923 86.2212 190.708 85.8039 189.82 84.9691C188.488 83.717 188.036 81.6029 188.554 79.0168C189.438 74.5857 193.317 69.4799 198.928 65.353C204.851 60.9961 210.396 62.4198 210.626 62.4822C210.934 62.5641 211.117 62.8801 211.035 63.1921C210.953 63.5003 210.634 63.6836 210.33 63.6017C210.28 63.59 205.069 62.2755 199.614 66.2892C194.31 70.1898 190.509 75.1552 189.691 79.247C189.438 80.5068 189.224 82.8199 190.614 84.1305C191.712 85.1642 193.671 85.3436 196.276 84.6454C196.584 84.5635 196.903 84.7468 196.985 85.0549C197.067 85.3631 196.884 85.6829 196.576 85.7648C195.423 86.073 194.38 86.2251 193.457 86.2251L193.449 86.2212Z" fill="#12923F"/>
<path d="M191.015 74.7422C189.205 74.7422 187.713 74.1883 186.588 73.0884C184.937 71.4774 184.598 69.141 184.598 68.6027C184.598 68.2828 184.855 68.0254 185.174 68.0254C185.493 68.0254 185.75 68.2828 185.75 68.6027C185.75 68.6417 185.883 70.8104 187.413 72.2848C188.352 73.1898 189.637 73.6383 191.218 73.5837C191.522 73.5993 191.802 73.8295 191.81 74.1493C191.817 74.4692 191.564 74.7344 191.245 74.7422C191.163 74.7422 191.085 74.7422 191.008 74.7422H191.015Z" fill="#12923F"/>
<path d="M130.866 97.6953L130.725 99.1961" stroke="#141414" stroke-width="2"/>
<path d="M128.171 98.5234L129.132 99.6859" stroke="#141414" stroke-width="2"/>
<path d="M126.851 101.016L128.352 101.157" stroke="#141414" stroke-width="2"/>
<path d="M127.68 103.71L128.84 102.751" stroke="#141414" stroke-width="2"/>
<path d="M130.172 105.032L130.313 103.531" stroke="#141414" stroke-width="2"/>
<path d="M132.867 104.204L131.907 103.042" stroke="#141414" stroke-width="2"/>
<path d="M134.188 101.71L132.687 101.568" stroke="#141414" stroke-width="2"/>
<path d="M133.358 99.0146L132.197 99.976" stroke="#141414" stroke-width="2"/>
<path d="M143.831 80.1075C144.404 80.1075 144.868 79.6431 144.868 79.0703C144.868 78.4975 144.404 78.0332 143.831 78.0332C143.258 78.0332 142.794 78.4975 142.794 79.0703C142.794 79.6431 143.258 80.1075 143.831 80.1075Z" stroke="#1ED760" stroke-width="2" stroke-linecap="round" stroke-linejoin="round"/>
<path d="M215.573 43.4395C216.146 43.4395 216.61 42.9752 216.61 42.4024C216.61 41.8296 216.146 41.3652 215.573 41.3652C215 41.3652 214.536 41.8296 214.536 42.4024C214.536 42.9752 215 43.4395 215.573 43.4395Z" stroke="#1ED760" stroke-width="2" stroke-linecap="round" stroke-linejoin="round"/>
<path d="M223.039 112.575C223.919 112.575 224.633 111.861 224.633 110.981C224.633 110.1 223.919 109.387 223.039 109.387C222.158 109.387 221.444 110.1 221.444 110.981C221.444 111.861 222.158 112.575 223.039 112.575Z" stroke="#1ED760" stroke-width="2" stroke-linecap="round" stroke-linejoin="round"/>
<path d="M239.818 62.0908L239.564 64.7874" stroke="#141414" stroke-width="2"/>
<path d="M234.975 63.5781L236.703 65.6667" stroke="#141414" stroke-width="2"/>
<path d="M232.604 68.0557L235.301 68.3096" stroke="#141414" stroke-width="2"/>
<path d="M234.092 72.8986L236.177 71.1748" stroke="#141414" stroke-width="2"/>
<path d="M238.57 75.2727L238.823 72.5762" stroke="#141414" stroke-width="2"/>
<path d="M243.412 73.7849L241.688 71.6963" stroke="#141414" stroke-width="2"/>
<path d="M245.787 69.3047L243.09 69.0508" stroke="#141414" stroke-width="2"/>
<path d="M244.295 64.4619L242.21 66.1893" stroke="#141414" stroke-width="2"/>
<path d="M148.944 37.1133L148.69 39.8098" stroke="#141414" stroke-width="2"/>
<path d="M144.102 38.6006L145.829 40.6892" stroke="#141414" stroke-width="2"/>
<path d="M141.731 43.0781L144.428 43.332" stroke="#141414" stroke-width="2"/>
<path d="M143.219 47.921L145.304 46.1973" stroke="#141414" stroke-width="2"/>
<path d="M147.696 50.2952L147.95 47.5986" stroke="#141414" stroke-width="2"/>
<path d="M152.539 48.8083L150.815 46.7197" stroke="#141414" stroke-width="2"/>
<path d="M154.913 44.3272L152.217 44.0732" stroke="#141414" stroke-width="2"/>
<path d="M153.422 39.4844L151.337 41.2117" stroke="#141414" stroke-width="2"/>
<path d="M193.073 21.7777C190.717 22.0852 188.645 23.3943 187.044 25.0994C186.483 25.6975 185.972 26.345 185.521 27.0302C185.428 27.1713 185.022 27.8605 185.022 27.8605C185.022 27.8605 184.431 27.3204 184.3 27.2125C183.668 26.6892 182.989 26.2194 182.276 25.8113C180.244 24.6486 177.878 24.002 175.534 24.396C169.007 25.4939 167.057 32.4682 170.532 38.488C172.873 42.542 179.499 47.4725 187.502 48.7767C187.946 48.8488 188.401 48.7808 188.804 48.5821C196.072 44.9984 200.941 38.346 202.002 33.7901C203.468 27.4914 199.637 20.9216 193.073 21.7777H193.073Z" fill="#E63888"/>
</g>
</svg>
