<svg width="28" height="22" viewBox="0 0 28 22" fill="none" xmlns="http://www.w3.org/2000/svg">
<circle cx="13.833" cy="19.1035" r="2" fill="#1ED760"/>
<path d="M13.5001 12C15.2871 12 16.8715 12.9002 17.6068 14.2624C17.738 14.5054 17.6473 14.8089 17.4044 14.9401C17.1614 15.0713 16.8578 14.9806 16.7266 14.7376C16.1877 13.7392 14.9677 13 13.5001 13C12.0324 13 10.8124 13.7392 10.2735 14.7376C10.1423 14.9806 9.83874 15.0713 9.59576 14.9401C9.3528 14.8089 9.26213 14.5054 9.39328 14.2624C10.1286 12.9002 11.713 12 13.5001 12ZM13.8334 6C17.871 6 21.3616 8.29541 22.9512 11.6178C23.0702 11.8669 22.9645 12.1654 22.7155 12.2845C22.4665 12.4035 22.168 12.2978 22.0489 12.0488C20.6266 9.07647 17.4887 7 13.8334 7C10.1781 7 7.04014 9.07647 5.61789 12.0488C5.49876 12.2978 5.20027 12.4035 4.95123 12.2845C4.70223 12.1654 4.5966 11.8669 4.71555 11.6178C6.30514 8.29541 9.7958 6 13.8334 6ZM13.8334 0C19.5856 4.43594e-07 24.6449 3.0099 27.5866 7.56185C27.7365 7.79375 27.6701 8.10335 27.4382 8.25325C27.2063 8.40312 26.8967 8.33668 26.7468 8.10482C23.9781 3.82059 19.2261 1 13.8334 1C8.44063 1 3.6887 3.82059 0.919976 8.10482C0.770074 8.33668 0.460471 8.40312 0.22857 8.25325C-0.00329483 8.10335 -0.0697352 7.79375 0.0801326 7.56185C3.0219 3.0099 8.08115 0 13.8334 0Z" fill="#141414"/>
</svg>
