<svg width="32" height="32" viewBox="0 0 32 32" fill="none" xmlns="http://www.w3.org/2000/svg">
<path d="M5.33398 24.8614V10.7393C5.33398 6.934 5.33398 5.03133 6.50556 3.84916C7.67713 2.66699 9.56275 2.66699 13.334 2.66699H18.6673C22.4386 2.66699 24.3242 2.66699 25.4957 3.84916C26.6673 5.03133 26.6673 6.934 26.6673 10.7393V24.8614C26.6673 26.8769 26.6673 27.8847 26.0514 28.2814C25.0448 28.9298 23.4887 27.5702 22.7062 27.0767C22.0595 26.6689 21.7362 26.465 21.3774 26.4532C20.9896 26.4405 20.6606 26.636 19.9618 27.0767L17.414 28.6835C16.7267 29.1169 16.383 29.3337 16.0007 29.3337C15.6183 29.3337 15.2746 29.1169 14.5873 28.6835L12.0395 27.0767C11.3928 26.6689 11.0695 26.465 10.7107 26.4532C10.3229 26.4405 9.99389 26.636 9.29515 27.0767C8.51258 27.5702 6.95648 28.9298 5.94992 28.2814C5.33398 27.8847 5.33398 26.8769 5.33398 24.8614Z" fill="#1ED760" stroke="#141414" stroke-width="1.5" stroke-linecap="round" stroke-linejoin="round"/>
<path d="M18.001 8L10.001 8" stroke="white" stroke-width="1.5" stroke-linecap="round" stroke-linejoin="round"/>
<path d="M12.001 12H10.001" stroke="white" stroke-width="1.5" stroke-linecap="round" stroke-linejoin="round"/>
<path d="M28 22L31 25L28 22ZM29.5 16.75C29.5 13.0221 26.478 10 22.75 10C19.0221 10 16 13.0221 16 16.75C16 20.4779 19.0221 23.5 22.75 23.5C26.478 23.5 29.5 20.4779 29.5 16.75Z" fill="#1ED760"/>
<path d="M28 22L31 25M29.5 16.75C29.5 13.0221 26.478 10 22.75 10C19.0221 10 16 13.0221 16 16.75C16 20.4779 19.0221 23.5 22.75 23.5C26.478 23.5 29.5 20.4779 29.5 16.75Z" stroke="#161616" stroke-width="1.5" stroke-linecap="round" stroke-linejoin="round"/>
<path d="M24.5417 15.5022C24.5417 15.9164 24.8775 16.2522 25.2917 16.2522C25.7059 16.2522 26.0417 15.9164 26.0417 15.5022H25.2917H24.5417ZM21.25 18.4981C21.25 18.0839 20.9142 17.7481 20.5 17.7481C20.0858 17.7481 19.75 18.0839 19.75 18.4981H20.5H21.25ZM23.75 13C23.75 12.5858 23.4142 12.25 23 12.25C22.5858 12.25 22.25 12.5858 22.25 13L23 13L23.75 13ZM22.25 21C22.25 21.4142 22.5858 21.75 23 21.75C23.4142 21.75 23.75 21.4142 23.75 21H23H22.25ZM23 16.8849V16.1349C22.2111 16.1349 21.8156 16.013 21.6347 15.8968C21.5227 15.8248 21.4583 15.741 21.4583 15.5022H20.7083H19.9583C19.9583 16.1543 20.2065 16.762 20.8237 17.1586C21.3719 17.511 22.1222 17.6349 23 17.6349V16.8849ZM20.7083 15.5022H21.4583C21.4583 15.3668 21.5353 15.1691 21.8113 14.9748C22.0852 14.782 22.5031 14.6391 23 14.6391V13.8891V13.1391C22.2313 13.1391 21.5034 13.3572 20.9478 13.7483C20.3944 14.1378 19.9583 14.7468 19.9583 15.5022H20.7083ZM23 13.8891V14.6391C23.4969 14.6391 23.9148 14.782 24.1887 14.9748C24.4647 15.1691 24.5417 15.3668 24.5417 15.5022H25.2917H26.0417C26.0417 14.7468 25.6056 14.1378 25.0522 13.7483C24.4966 13.3572 23.7687 13.1391 23 13.1391V13.8891ZM25.5 18.4981H24.75C24.75 18.7748 24.6419 18.9445 24.3949 19.0861C24.1026 19.2536 23.6264 19.3613 23 19.3613V20.1113V20.8613C23.7543 20.8613 24.5282 20.7385 25.1407 20.3875C25.7984 20.0106 26.25 19.3737 26.25 18.4981H25.5ZM23 20.1113V19.3613C22.4322 19.3613 21.9531 19.2114 21.6389 19.0086C21.317 18.8009 21.25 18.6032 21.25 18.4981H20.5H19.75C19.75 19.2839 20.2427 19.8929 20.8256 20.269C21.4162 20.6501 22.187 20.8613 23 20.8613V20.1113ZM23 16.8849V17.6349C23.7945 17.6349 24.2447 17.7506 24.4788 17.8962C24.6403 17.9967 24.75 18.1368 24.75 18.4981H25.5H26.25C26.25 17.7071 25.943 17.0407 25.2712 16.6226C24.6719 16.2497 23.8721 16.1349 23 16.1349V16.8849ZM23 13.8891L23.75 13.8891L23.75 13L23 13L22.25 13L22.25 13.8891L23 13.8891ZM23 20.1113H22.25V21H23H23.75V20.1113H23Z" fill="white"/>
</svg>
