<svg width="32" height="32" viewBox="0 0 32 32" fill="none" xmlns="http://www.w3.org/2000/svg">
<path fill-rule="evenodd" clip-rule="evenodd" d="M23.0003 1.72266C23.2765 1.72266 23.5003 1.94651 23.5003 2.22266C23.5003 2.4988 23.2765 2.72266 23.0003 2.72266H7.21191C6.01533 2.7227 5.04525 3.69273 5.04525 4.88932V24.3522H16.6468C17.3661 24.3522 17.9495 24.9356 17.9495 25.6549V25.7826C17.9495 27.6516 19.4646 29.1673 21.3337 29.1673H21.4658C23.1626 29.1672 24.5357 27.7867 24.527 26.0898L24.4202 5.32096C24.4107 3.4491 25.8393 1.9077 27.667 1.73893V1.72266H28.0003C29.7492 1.72266 31.167 3.14042 31.167 4.88932V6.38477C31.167 7.0291 30.6447 7.55143 30.0003 7.55143H27.3708C27.0946 7.55143 26.8708 7.32757 26.8708 7.05143C26.8708 6.77532 27.0946 6.55143 27.3708 6.55143H30.0003C30.0924 6.55143 30.167 6.47681 30.167 6.38477V4.88932C30.167 3.69271 29.1969 2.72266 28.0003 2.72266C26.5703 2.72266 25.413 3.88575 25.4202 5.31576L25.527 26.0846C25.5386 28.3357 23.7169 30.1672 21.4658 30.1673H5.11165C2.38091 30.1673 0.166992 27.9534 0.166992 25.2227C0.166992 24.742 0.556745 24.3522 1.03743 24.3522H4.04525V4.88932C4.04525 3.14045 5.46305 1.7227 7.21191 1.72266H23.0003ZM1.17025 25.3522C1.23863 27.4707 2.97656 29.1673 5.11165 29.1673H18.5466C17.5712 28.3632 16.9495 27.1453 16.9495 25.7826V25.6549C16.9495 25.4879 16.8139 25.3522 16.6468 25.3522H1.17025Z" fill="#141414"/>
<path d="M17.4287 20.8971C17.7048 20.8971 17.9286 21.1211 17.9287 21.3971C17.9287 21.6733 17.7049 21.8971 17.4287 21.8971H8.66699C8.39085 21.8971 8.16699 21.6733 8.16699 21.3971C8.16706 21.1211 8.39089 20.8971 8.66699 20.8971H17.4287Z" fill="#141414"/>
<path d="M14.3812 18.1673C14.6573 18.1673 14.8812 18.3912 14.8812 18.6673C14.8811 18.9434 14.6573 19.1673 14.3812 19.1673H8.66699C8.39092 19.1673 8.16711 18.9434 8.16699 18.6673C8.16699 18.3912 8.39085 18.1673 8.66699 18.1673H14.3812Z" fill="#141414"/>
<path d="M14.9997 4.66699C18.1293 4.66699 20.6663 7.20405 20.6663 10.3337C20.6663 13.4633 18.1293 16.0003 14.9997 16.0003C11.8701 16.0003 9.33301 13.4633 9.33301 10.3337C9.33301 7.20405 11.8701 4.66699 14.9997 4.66699ZM14.9261 5.86686C14.65 5.86686 14.4262 6.09078 14.4261 6.36686V6.80697C13.4976 7.02832 12.8 7.85285 12.7998 8.84798C12.7998 9.36818 12.9313 9.8747 13.335 10.2373C13.7263 10.5888 14.2806 10.7197 14.9261 10.7197C15.4686 10.7198 15.7661 10.8271 15.9281 10.9678C16.0746 11.0952 16.1995 11.3298 16.1995 11.8193C16.1995 12.2634 16.0519 12.5095 15.8675 12.6572C15.665 12.8193 15.3473 12.9189 14.9261 12.9189C14.4909 12.9189 14.1188 12.7313 13.8929 12.4619C13.7156 12.2503 13.4001 12.2222 13.1885 12.3994C12.9769 12.5768 12.9493 12.8922 13.1266 13.1038C13.4484 13.4878 13.9066 13.7593 14.4261 13.8669V14.3005C14.4262 14.5765 14.6501 14.8005 14.9261 14.8005C15.202 14.8003 15.426 14.5764 15.4261 14.3005V13.8792C15.8128 13.8192 16.1847 13.6843 16.4925 13.4378C16.9499 13.0714 17.1995 12.5175 17.1995 11.8193C17.1995 11.1663 17.0291 10.6 16.5843 10.2132C16.155 9.84004 15.5655 9.71977 14.9261 9.71973C14.3891 9.71973 14.1296 9.60633 14.0036 9.49316C13.8899 9.39106 13.7998 9.21125 13.7998 8.84798C13.8 8.24847 14.2966 7.74837 14.9261 7.74837C15.3515 7.7485 15.7189 7.97871 15.9105 8.31478C16.0473 8.5546 16.3529 8.63772 16.5928 8.50098C16.8324 8.36416 16.9162 8.05912 16.7796 7.81934C16.4938 7.31793 16.0053 6.9464 15.4261 6.80827V6.36686C15.426 6.09089 15.202 5.86705 14.9261 5.86686Z" fill="#1ED760"/>
</svg>
