<svg width="32" height="32" viewBox="0 0 32 32" fill="none" xmlns="http://www.w3.org/2000/svg">
<path d="M16.6667 21.0003C17.219 21.0003 17.6667 21.448 17.6667 22.0003C17.6667 22.5526 17.219 23.0003 16.6667 23.0003H14.6667C14.1144 23.0003 13.6667 22.5526 13.6667 22.0003C13.6667 21.448 14.1144 21.0003 14.6667 21.0003H16.6667Z" fill="#1ED760"/>
<path d="M24.6667 21.0003C25.219 21.0003 25.6667 21.448 25.6667 22.0003C25.6667 22.5526 25.219 23.0003 24.6667 23.0003H20C19.4477 23.0003 19 22.5526 19 22.0003C19 21.448 19.4477 21.0003 20 21.0003H24.6667Z" fill="#1ED760"/>
<path d="M24.6667 14.667C25.0349 14.667 25.3333 14.9655 25.3333 15.3337V17.3337C25.3333 17.7018 25.0349 18.0003 24.6667 18.0003H4.66667C4.29848 18.0003 4 17.7018 4 17.3337V15.3337C4 14.9655 4.29848 14.667 4.66667 14.667H24.6667Z" fill="#1ED760"/>
<path d="M29.9997 8.16667C30.2758 8.16667 30.4997 8.39052 30.4997 8.66667V23.3333C30.4997 25.8186 28.485 27.8333 25.9997 27.8333H5.99967C5.72353 27.8333 5.49967 27.6095 5.49967 27.3333C5.49967 27.0572 5.72353 26.8333 5.99967 26.8333H25.9997C27.9327 26.8333 29.4997 25.2663 29.4997 23.3333V8.66667C29.4997 8.39052 29.7235 8.16667 29.9997 8.16667Z" fill="#141414"/>
<path fill-rule="evenodd" clip-rule="evenodd" d="M25.4704 4.00326C26.8793 4.07474 27.9997 5.23998 27.9997 6.66667V22.6667C27.9997 24.0934 26.8793 25.2586 25.4704 25.3301L25.333 25.3333H3.99967C2.52692 25.3333 1.33301 24.1394 1.33301 22.6667V6.66667C1.33301 5.19391 2.52692 4 3.99967 4H25.333L25.4704 4.00326ZM2.33301 22.6667C2.33301 23.5871 3.0792 24.3333 3.99967 24.3333H25.333C26.2535 24.3333 26.9997 23.5871 26.9997 22.6667V12.6667H2.33301V22.6667ZM3.99967 5C3.0792 5 2.33301 5.74619 2.33301 6.66667V11.6667H26.9997V6.66667C26.9997 5.74619 26.2535 5 25.333 5H3.99967Z" fill="#141414"/>
</svg>
