<svg width="32" height="32" viewBox="0 0 32 32" fill="none" xmlns="http://www.w3.org/2000/svg">
<path d="M5.37142 20.833C5.95519 20.833 6.45845 21.1715 6.69954 21.6618H9.4196C11.5802 20.8115 13.9837 20.8051 16.1507 21.6455H16.152L16.1937 21.6618H20.7751C21.7059 21.6619 22.4913 22.2798 22.7451 23.1279L26.3096 22.4359L26.3499 22.43C27.1229 22.3453 27.8221 22.3112 28.3923 22.4404C29.002 22.5788 29.485 22.9107 29.7542 23.5257H29.7536C29.9628 24.0037 29.7453 24.5595 29.2679 24.7686V24.7679L21.2393 28.2861C20.4783 28.7003 20.0052 29.0397 19.499 29.3467C18.9995 29.6496 18.5152 29.8877 17.8538 29.9893C17.208 30.0884 16.427 30.0521 15.3324 29.8766C14.2352 29.7007 12.7891 29.379 10.8024 28.8844C10.7794 28.8787 10.7567 28.8713 10.7347 28.8623L9.47298 28.3473H6.63444C6.37423 28.7733 5.90623 29.0583 5.37142 29.0583H2.66699C2.39088 29.0583 2.16704 28.8344 2.16699 28.5583C2.16699 28.2821 2.39085 28.0583 2.66699 28.0583H5.37142C5.63629 28.0583 5.85189 27.843 5.85189 27.5778V22.3128C5.85171 22.0481 5.63649 21.833 5.37142 21.833H2.66699C2.39085 21.833 2.16699 21.6092 2.16699 21.333C2.16699 21.0569 2.39085 20.833 2.66699 20.833H5.37142ZM15.7894 22.5778C13.829 21.8175 11.6508 21.8338 9.7028 22.6247C9.64321 22.6488 9.57961 22.6617 9.5153 22.6618H6.85254V27.3473H9.57064L9.66699 27.3564C9.69857 27.3626 9.7295 27.3722 9.75944 27.3844L11.0745 27.9209C13.0409 28.41 14.4432 28.7217 15.4906 28.8896C16.5453 29.0587 17.2071 29.0763 17.7021 29.0003C18.1818 28.9267 18.5372 28.7604 18.9801 28.4919C19.4102 28.2311 19.9744 27.8376 20.7503 27.4144C20.7688 27.4032 20.788 27.3927 20.8083 27.3838L28.8122 23.876C28.6894 23.63 28.5014 23.4906 28.1715 23.4157C27.7822 23.3274 27.2356 23.3394 26.4749 23.4222L22.7484 24.1462C22.5784 24.5711 22.1642 24.8721 21.6787 24.8721H16.098C15.8219 24.8721 15.5981 24.6481 15.598 24.3721C15.598 24.0959 15.8218 23.8721 16.098 23.8721H21.6787C21.7621 23.8721 21.8295 23.8047 21.8311 23.7217C21.831 23.7182 21.831 23.7147 21.8311 23.7113C21.8269 23.1308 21.3565 22.6619 20.7751 22.6618H16.098C16.0718 22.6618 16.0463 22.6585 16.0212 22.6546C16.0151 22.6537 16.009 22.6532 16.0029 22.652C15.999 22.6513 15.9951 22.6503 15.9912 22.6494C15.9659 22.6438 15.9406 22.637 15.9157 22.6273L15.9066 22.6234C15.9047 22.6226 15.9026 22.6222 15.9007 22.6214L15.7894 22.5771V22.5778ZM4.60059 25.8063C4.87658 25.8065 5.10059 26.0303 5.10059 26.3063V26.9346C5.10038 27.2104 4.87645 27.4344 4.60059 27.4346C4.32457 27.4346 4.10079 27.2105 4.10059 26.9346V26.3063C4.10059 26.0302 4.32444 25.8063 4.60059 25.8063Z" fill="#141414"/>
<path d="M13.9997 12.6663C14.7361 12.6663 15.333 13.2633 15.333 13.9997V17.333C15.333 18.0694 14.7361 18.6663 13.9997 18.6663H10.6663C9.92996 18.6663 9.33301 18.0694 9.33301 17.333V13.9997C9.33301 13.2633 9.92996 12.6663 10.6663 12.6663H13.9997Z" fill="#1ED760"/>
<path d="M21.333 12.6663C22.0694 12.6663 22.6663 13.2633 22.6663 13.9997V17.333C22.6663 18.0694 22.0694 18.6663 21.333 18.6663H17.9997C17.2633 18.6663 16.6663 18.0694 16.6663 17.333V13.9997C16.6663 13.2633 17.2633 12.6663 17.9997 12.6663H21.333Z" fill="#1ED760"/>
<path d="M13.9997 5.33301C14.7361 5.33301 15.333 5.92996 15.333 6.66634V9.99967C15.333 10.7361 14.7361 11.333 13.9997 11.333H10.6663C9.92996 11.333 9.33301 10.7361 9.33301 9.99967V6.66634C9.33301 5.92996 9.92996 5.33301 10.6663 5.33301H13.9997Z" fill="#1ED760"/>
<path d="M21.333 5.33301C22.0694 5.33301 22.6663 5.92996 22.6663 6.66634V9.99967C22.6663 10.7361 22.0694 11.333 21.333 11.333H17.9997C17.2633 11.333 16.6663 10.7361 16.6663 9.99967V6.66634C16.6663 5.92996 17.2633 5.33301 17.9997 5.33301H21.333Z" fill="#1ED760"/>
</svg>
