<svg width="32" height="32" viewBox="0 0 32 32" fill="none" xmlns="http://www.w3.org/2000/svg">
<path d="M24.1133 3.5C24.5797 3.5 25.0138 3.73896 25.2637 4.13281L29.4248 10.6924C29.737 11.185 29.7008 11.8221 29.335 12.2764L17.0889 27.4814C16.5444 28.1574 15.5147 28.1591 14.9688 27.4844L2.05176 11.5166L6.73633 4.13281C6.79005 4.04812 6.85262 3.9709 6.92188 3.90137C6.9678 3.67262 7.16984 3.5 7.41211 3.5H24.1133ZM8.74121 6.25488C8.83365 6.515 8.6976 6.801 8.4375 6.89355C8.17741 6.98594 7.89137 6.84992 7.79883 6.58984L7.28223 5.1377L3.57617 10.9814H5.33301C5.60904 10.9814 5.83283 11.2055 5.83301 11.4814C5.83286 11.7575 5.60906 11.9814 5.33301 11.9814H3.71387L14.6514 25.5029L12.1973 18.8662C12.1017 18.6074 12.2344 18.3194 12.4932 18.2236C12.752 18.1281 13.04 18.2607 13.1357 18.5195L16.0244 26.3291L21.2256 11.9814H18C17.7239 11.9814 17.5001 11.7575 17.5 11.4814C17.5002 11.2055 17.724 10.9814 18 10.9814H21.5879L23.9375 4.5H8.11621L8.74121 6.25488ZM17.3779 25.5273L28.2881 11.9814H22.2881L17.3779 25.5273ZM11.9219 6.83984C11.9526 6.77294 12.0474 6.77294 12.0781 6.83984L13.5566 10.1074C13.5644 10.1243 13.5774 10.1385 13.5938 10.1475L15.8623 11.3906C15.9219 11.4233 15.9218 11.5092 15.8623 11.542L13.5928 12.7871C13.5773 12.7956 13.5645 12.8084 13.5566 12.8242L12.0771 15.8418C12.0456 15.9061 11.9544 15.9061 11.9229 15.8418L10.4434 12.8242C10.4355 12.8084 10.4227 12.7956 10.4072 12.7871L8.1377 11.542C8.07824 11.5092 8.07809 11.4233 8.1377 11.3906L10.4062 10.1475C10.4226 10.1385 10.4356 10.1243 10.4434 10.1074L11.9219 6.83984ZM22.6504 10.9814H28.4238L24.75 5.19043L22.6504 10.9814Z" fill="white"/>
</svg>
