<svg width="19" height="27" viewBox="0 0 19 27" fill="none" xmlns="http://www.w3.org/2000/svg">
<path d="M6.92318 23.1667H5.16667C4.0966 23.1667 3.22281 22.3263 3.16927 21.2695C3.16754 21.2355 3.16667 21.2012 3.16667 21.1667V20.6491H6.92318V23.1667Z" fill="white"/>
<path d="M11.3079 23.1667H7.92318V18.7982C7.92318 18.7713 7.92041 18.7447 7.91927 18.7181C7.87727 17.7428 7.07543 16.9649 6.08984 16.9648H3.16667V12.5C3.16667 12.4655 3.16754 12.4312 3.16927 12.3971C3.22108 11.3744 4.04111 10.5544 5.0638 10.5026C5.09787 10.5009 5.13217 10.5 5.16667 10.5H11.3079V23.1667Z" fill="white"/>
<path d="M15.8333 21.1667C15.8333 21.2357 15.8297 21.3039 15.8229 21.3711C15.7239 22.346 14.9248 23.114 13.9362 23.1641C13.9021 23.1658 13.8678 23.1667 13.8333 23.1667H12.3079V19.6413H15.8333V21.1667Z" fill="white"/>
<path d="M6.08984 17.9648C6.15879 17.9649 6.22564 17.9738 6.28971 17.9896C6.30258 17.9928 6.3155 17.9956 6.32812 17.9993L6.33789 18.0026C6.34143 18.0037 6.34479 18.0054 6.34831 18.0065C6.36922 18.0133 6.39001 18.0203 6.41016 18.0286C6.41527 18.0308 6.42007 18.0336 6.42513 18.0358C6.44456 18.0444 6.4638 18.0532 6.48242 18.0632C6.48998 18.0672 6.49714 18.0719 6.50456 18.0762C6.51717 18.0834 6.52948 18.0911 6.54167 18.099C6.55493 18.1075 6.568 18.1163 6.58073 18.1257C6.58862 18.1314 6.59649 18.1372 6.60417 18.1432C6.61653 18.153 6.62819 18.1634 6.63997 18.1738C6.64759 18.1805 6.65539 18.187 6.66276 18.194C6.67491 18.2055 6.68648 18.2176 6.69792 18.2298C6.70317 18.2354 6.70845 18.241 6.71354 18.2467C6.72417 18.2588 6.73421 18.2712 6.74414 18.2839C6.75287 18.2949 6.76136 18.3062 6.76953 18.3177C6.77475 18.3251 6.78017 18.3323 6.78516 18.3398C6.79578 18.3559 6.80559 18.3725 6.8151 18.3893C6.81864 18.3956 6.82214 18.4018 6.82552 18.4082C6.83344 18.4231 6.84063 18.4384 6.84766 18.4538C6.85188 18.4631 6.85613 18.4723 6.86003 18.4818C6.86619 18.4967 6.87166 18.512 6.87695 18.5273C6.8803 18.5371 6.88373 18.5468 6.88672 18.5566C6.89107 18.571 6.89485 18.5856 6.89844 18.6003C6.90134 18.6122 6.90452 18.624 6.9069 18.6361C6.91726 18.6885 6.92317 18.7427 6.92318 18.7982V19.6491H3.16667V17.9648H6.08984Z" fill="white"/>
<path d="M15.8333 18.6413H12.3079V15.487H15.8333V18.6413Z" fill="white"/>
<path d="M13.9362 10.5026C14.9248 10.5527 15.7239 11.3206 15.8229 12.2956C15.8297 12.3628 15.8333 12.431 15.8333 12.5V14.487H12.3079V10.5H13.8333C13.8678 10.5 13.9021 10.5009 13.9362 10.5026Z" fill="white"/>
<path fill-rule="evenodd" clip-rule="evenodd" d="M15.8333 0C17.5822 5.95168e-07 19 1.41777 19 3.16667V23.1667C19 24.9156 17.5822 26.3333 15.8333 26.3333H3.16667C1.41777 26.3333 3.99799e-07 24.9156 0 23.1667V8.17969C8.67265e-05 7.33476 0.337883 6.52496 0.938151 5.93034L6 0.916667C6.59294 0.329424 7.39399 2.71388e-05 8.22852 0H15.8333ZM8.22852 1C7.65756 1.00003 7.10946 1.22519 6.70378 1.62695L1.64193 6.64062C1.23119 7.04746 1.00009 7.60158 1 8.17969V23.1667C1 24.3633 1.97005 25.3333 3.16667 25.3333H15.8333C17.0299 25.3333 18 24.3633 18 23.1667V3.16667C18 1.97005 17.03 1 15.8333 1H8.22852Z" fill="white"/>
</svg>
