<svg preserveAspectRatio="xMidYMid meet" width="100%" height="100%" overflow="visible" style="display: block;" viewBox="0 0 19 26.3333" fill="none" xmlns="http://www.w3.org/2000/svg">
<g id="Icon">
<path id="Neutral" d="M15.8333 26.3333L3.16667 26.3333C1.41777 26.3333 1.48477e-06 24.9156 1.08497e-06 23.1667L3.83074e-07 8.17969C8.71095e-05 7.33476 0.337883 6.52496 0.938151 5.93034L6 0.916667C6.59294 0.329424 7.39399 2.74292e-05 8.22852 2.90439e-07L15.8333 -1.98174e-08C17.5822 -9.11678e-08 19 1.41777 19 3.16667L19 23.1667C19 24.9156 17.5822 26.3333 15.8333 26.3333ZM15.8333 25.3333C17.03 25.3333 18 24.3633 18 23.1667L18 3.16667C18 1.97005 17.03 1 15.8333 1L8.22852 1C7.65756 1.00003 7.10946 1.22519 6.70378 1.62695L1.64193 6.64063C1.23119 7.04746 1.00009 7.60158 1 8.17969L1 23.1667C1 24.3633 1.97005 25.3333 3.16667 25.3333L15.8333 25.3333Z" fill="var(--fill-0, #141414)"/>
<g id="Primary">
<path d="M6.92317 20.6491V23.1667H5.16666C4.06209 23.1667 3.16666 22.2712 3.16666 21.1667V20.6491H6.92317Z" fill="var(--fill-0, #1ED760)"/>
<path d="M11.4375 10.5C11.3577 10.5886 11.3079 10.7047 11.3079 10.8333V23.1667H7.92317V18.7982C7.92314 17.7857 7.1023 16.9649 6.08984 16.9648H3.16666V12.5C3.16666 11.3954 4.06209 10.5 5.16666 10.5H11.4375Z" fill="var(--fill-0, #1ED760)"/>
<path d="M15.8333 21.1667C15.8333 22.2712 14.9379 23.1667 13.8333 23.1667H12.3079V19.6413H15.8333V21.1667Z" fill="var(--fill-0, #1ED760)"/>
<path d="M6.08984 17.9648C6.55001 17.9649 6.92314 18.338 6.92317 18.7982V19.6491H3.16666V17.9648H6.08984Z" fill="var(--fill-0, #1ED760)"/>
<path d="M15.8333 18.6413H12.3079V15.487H15.8333V18.6413Z" fill="var(--fill-0, #1ED760)"/>
<path d="M13.8333 10.5C14.9379 10.5 15.8333 11.3954 15.8333 12.5V14.487H12.3079V10.8333C12.3079 10.7048 12.2582 10.5886 12.1784 10.5H13.8333Z" fill="var(--fill-0, #1ED760)"/>
</g>
</g>
</svg>
