<svg width="140" height="140" viewBox="0 0 140 140" fill="none" xmlns="http://www.w3.org/2000/svg">
<g clip-path="url(#clip0_3730_17582)">
<path d="M51.3955 25.8294C51.3955 25.8294 48.6758 16.571 54.8113 13.7417C60.9468 10.9123 56.6964 25.1289 56.6964 25.1289L51.3955 25.8294Z" fill="#141414"/>
<path d="M51.4743 143.093C40.8443 143.093 34.2365 123.454 30.1537 100.698C25.1332 72.7106 27.2696 52.1771 37.533 49.8148C47.7964 47.4494 57.4314 45.833 73.637 45.833C89.8425 45.833 114.961 47.9012 114.42 55.8526C113.879 63.807 113.883 88.0572 112.258 101.408C110.632 114.758 109.88 143.093 99.0781 143.093C83.8264 143.093 64.4151 143.093 51.4743 143.093Z" fill="#141414"/>
<path d="M65.394 67.6188C65.1201 75.9432 65.104 84.2737 65.3457 92.598C65.4649 96.692 65.639 100.786 65.8967 104.874C66.1352 108.674 66.4768 112.47 67.1277 116.228C67.856 120.44 68.9999 124.588 70.798 128.513C70.9559 128.855 71.4909 128.561 71.333 128.218C68.117 121.195 67.1052 113.508 66.5863 105.938C66.0321 97.8262 65.8097 89.6868 65.7969 81.5625C65.7904 76.9136 65.8613 72.2678 66.016 67.6219C66.0289 67.2458 65.4102 67.2458 65.3973 67.6219L65.394 67.6188Z" fill="#141414"/>
<path d="M52.217 57.0922C51.3534 54.2446 49.349 51.5729 46.3844 50.2355C42.0374 48.2765 36.7204 49.4258 33.0243 51.9853C27.0113 56.149 22.4064 63.3635 18.8489 69.4226C15.272 75.518 12.5974 82.0319 10.9249 88.7248C10.0936 92.0576 9.51031 95.4328 9.19129 98.8263C8.90127 101.926 8.83038 105.082 9.61987 108.106C10.3675 110.969 12.0302 113.659 14.779 115.299C17.3827 116.852 20.5954 117.401 23.7244 117.152C30.2723 116.63 35.6216 112.649 39.1018 107.766C42.7205 102.69 44.6475 96.8308 46.4457 91.1054C48.827 83.5209 51.1987 75.8971 52.3523 68.0943C52.8905 64.4491 53.2965 60.6524 52.217 57.0922Z" fill="#141414"/>
<path d="M52.217 57.0922C51.3534 54.2446 49.349 51.5729 46.3844 50.2355C42.0374 48.2765 36.7204 49.4258 33.0243 51.9853C27.0113 56.149 22.4064 63.3635 18.8489 69.4226C15.272 75.518 12.5974 82.0319 10.9249 88.7248C10.0936 92.0576 9.51031 95.4328 9.19129 98.8263C8.90127 101.926 8.83038 105.082 9.61987 108.106C10.3675 110.969 12.0302 113.659 14.779 115.299C17.3827 116.852 20.5954 117.401 23.7244 117.152C30.2723 116.63 35.6216 112.649 39.1018 107.766C42.7205 102.69 44.6475 96.8308 46.4457 91.1054C48.827 83.5209 51.1987 75.8971 52.3523 68.0943C52.8905 64.4491 53.2965 60.6524 52.217 57.0922Z" fill="#141414"/>
<path d="M37.6037 79.6665C33.8238 77.5286 29.2351 76.7856 24.9009 77.5043C20.7923 78.1867 17.0189 80.2882 14.3733 83.3177C12.9458 84.9523 11.8598 86.8264 11.2121 88.8522C11.0961 89.213 11.6955 89.3647 11.8082 89.0068C12.9232 85.5164 15.4141 82.4808 18.6365 80.4732C22.1329 78.2928 26.4026 77.4467 30.5498 77.9622C32.928 78.2594 35.2352 79.0024 37.2911 80.1669C37.6327 80.361 37.9453 79.8576 37.6037 79.6635V79.6665Z" fill="#141414"/>
<path d="M128.753 93.4561C128.343 90.6935 127.783 88.0096 127.431 85.6412C126.084 76.5557 123.951 67.4004 119.118 59.3368C115.07 52.5863 105.142 44.6076 100.27 54.7819C98.8711 57.7022 97.624 61.6142 96.5703 64.6589C94.4177 70.8787 92.7614 77.3593 92.1298 83.8854C91.5401 89.9626 91.9784 96.3098 94.6691 101.941C96.8893 106.581 100.556 110.742 105.426 113.074C109.943 115.239 115.264 115.457 119.965 113.659C122.201 112.804 124.257 111.503 125.843 109.783C129.79 105.511 129.61 99.312 128.746 93.4591L128.753 93.4561Z" fill="#141414"/>
<path d="M99.4836 84.2942C103.579 81.8894 108.635 81.0312 113.372 81.9015C117.79 82.7143 121.744 85.0645 124.544 88.367C126.088 90.1865 127.248 92.2881 127.938 94.5261C128.047 94.887 128.647 94.7323 128.534 94.3714C127.271 90.2714 124.461 86.6627 120.745 84.2245C116.753 81.6044 111.8 80.5551 106.989 81.1646C104.221 81.5134 101.543 82.4019 99.1711 83.7939C98.8327 83.991 99.1453 84.4974 99.4836 84.2973V84.2942Z" fill="#141414"/>
<path d="M81.5823 70.088C81.5441 69.9813 81.4459 69.9218 81.3664 69.8877C81.2802 69.8537 81.1759 69.8276 81.0655 69.8094C80.852 69.776 80.5759 69.764 80.306 69.7623C80.0306 69.7606 79.5896 69.7822 79.285 69.7987L79.4233 67.9283L77.3311 67.5244L77.5458 70.1078C77.7478 70.0709 77.9219 70.0454 78.0372 70.0369C78.0372 70.0369 78.3235 68.7288 78.6535 68.6369C78.9223 68.5608 79.2298 69.7487 79.2759 69.9314L79.282 69.9541C79.282 69.9541 81.3033 69.7935 81.4252 70.1368C81.5708 70.5435 79.7709 71.1261 79.7709 71.1261C79.7709 71.1261 80.9199 74.0788 80.5304 74.2496C80.3108 74.3471 79.5143 73.2574 79.0751 72.6294C78.9028 72.3787 78.7852 72.2011 78.7852 72.2011C78.5334 72.4751 78.1809 72.8217 77.7976 73.1712L77.965 75.1958L78.9465 74.3902L79.0557 72.8864C79.1637 73.0373 79.2838 73.2029 79.4064 73.3652C79.6065 73.6318 79.8195 73.8978 80.0051 74.0907C80.0985 74.186 80.1877 74.2705 80.269 74.3261C80.3102 74.3545 80.3569 74.38 80.4073 74.3954C80.457 74.4107 80.5286 74.4209 80.6014 74.3897C80.7482 74.3256 80.7713 74.165 80.7767 74.0748C80.7834 73.9614 80.7676 73.8167 80.7397 73.663C80.687 73.3567 80.5772 72.9652 80.4558 72.58C80.2793 72.0207 80.0791 71.4733 79.9839 71.2191C80.1555 71.1573 80.4425 71.0512 80.7246 70.9241C80.943 70.826 81.1686 70.708 81.3318 70.5849C81.4719 70.48 81.6582 70.3007 81.5823 70.088Z" fill="#1ED760"/>
<path d="M75.6314 70.8074C75.6053 71.1931 77.4368 71.2198 77.6297 71.1988C77.6297 71.1988 75.2735 74.362 75.5337 74.7285C75.6878 74.944 76.8326 74.0534 77.7935 73.1752L77.5417 70.1113C76.7907 70.248 75.6496 70.5515 75.6314 70.8074Z" fill="#1ED760"/>
<path d="M83.3879 73.0511C83.1264 73.0511 82.9402 72.9723 82.8164 72.8934L82.9541 72.6592C83.0554 72.725 83.1986 72.7908 83.3733 72.7908C83.5165 72.7908 83.6796 72.7357 83.6796 72.5905C83.6796 72.3432 83.2295 72.2984 83.0045 72.0612C82.9311 71.9852 82.8837 71.8848 82.8837 71.7509C82.8837 71.4928 83.1003 71.2744 83.4892 71.2744C83.6863 71.2744 83.8434 71.3192 83.9454 71.372L83.9399 71.6562C83.7961 71.5824 83.6584 71.5348 83.5062 71.5348C83.3569 71.5348 83.2386 71.5955 83.2386 71.7112C83.2386 72.0323 84.0406 72.0142 84.0406 72.5536C84.0406 72.8594 83.7537 73.0511 83.3879 73.0511Z" fill="#1ED760"/>
<path d="M86.1243 71.5551H85.6178V73.0238H85.2744V71.5551H84.7363V71.2891H86.2062L86.1243 71.5551Z" fill="#1ED760"/>
<path d="M87.4739 71.9329C87.4399 71.8461 87.4175 71.7752 87.4035 71.7168H87.4011C87.3896 71.7775 87.3641 71.8455 87.3332 71.9272L87.173 72.33H87.6231L87.4739 71.9329ZM87.9131 73.0249L87.7299 72.5904H87.0681L86.8964 73.0249H86.5615L87.2822 71.2822H87.5297L88.2759 73.0249H87.9131Z" fill="#1ED760"/>
<path d="M89.5662 71.558H89.3976V72.0974H89.5692C89.744 72.0974 89.8762 71.9738 89.8762 71.8155C89.8762 71.6737 89.7779 71.558 89.5662 71.558ZM90.0424 73.0238C89.7555 72.5762 89.6257 72.3607 89.5553 72.3397H89.3976V73.0238H89.0566V71.2891H89.5577C90.0394 71.2891 90.2196 71.5131 90.2196 71.7786C90.2196 72.0101 90.0509 72.1655 89.8762 72.2342V72.237C89.9605 72.2818 90.1462 72.5819 90.4307 73.0238H90.0424Z" fill="#1ED760"/>
<path d="M92.3804 73.0238V72.2818H91.4825V73.0238H91.1416V71.2891H91.4825V72.0055H92.3804V71.2891H92.7207V73.0238H92.3804Z" fill="#1ED760"/>
<path d="M94.9687 72.8582C94.8395 72.979 94.6478 73.0505 94.3718 73.0505C94.1097 73.0505 93.9187 72.9926 93.7949 72.8797C93.6627 72.7612 93.6123 72.5796 93.6123 72.3873V71.2891H93.9532V72.3658C93.9532 72.4923 93.9896 72.5949 94.063 72.671C94.1334 72.7419 94.2432 72.7787 94.3785 72.7787C94.5362 72.7787 94.6454 72.7396 94.7164 72.671C94.7868 72.6001 94.8147 72.5025 94.8147 72.3811V71.2891H95.155V72.3709C95.1544 72.5689 95.0949 72.7396 94.9687 72.8582Z" fill="#1ED760"/>
<path d="M96.5607 72.2761H96.3296V72.7555H96.5462C96.7742 72.7555 96.8871 72.6608 96.8871 72.5025C96.8871 72.3686 96.7688 72.2761 96.5607 72.2761ZM96.4958 71.558H96.3296V72.0106H96.5322C96.6529 72.0106 96.7742 71.9187 96.7742 71.7815C96.7749 71.6499 96.6845 71.558 96.4958 71.558ZM96.5777 73.0238H95.9893V71.2891H96.5801C96.9435 71.2891 97.1152 71.5103 97.1152 71.7208C97.1152 71.8705 97.0363 72.0106 96.884 72.0816V72.0844C97.0897 72.1292 97.2359 72.2977 97.2359 72.503C97.2359 72.7504 97.0448 73.0238 96.5777 73.0238Z" fill="#1ED760"/>
<path d="M31.8679 55.5973C33.7337 60.2978 35.1193 65.162 35.9991 70.1112C36.882 75.0755 37.2526 80.1247 37.1108 85.1557C37.0302 87.9942 36.7853 90.8296 36.3761 93.6438C36.3213 94.0108 36.9207 94.1685 36.9722 93.7985C37.7037 88.7796 37.9293 83.7001 37.6264 78.6418C37.3235 73.5865 36.5082 68.5555 35.1902 63.6457C34.4426 60.8679 33.5339 58.1265 32.4673 55.4427C32.3287 55.0939 31.7294 55.2456 31.8712 55.5973H31.8679Z" fill="#141414"/>
<path d="M101.095 64.7637C101.281 64.8137 101.393 65.0086 101.344 65.199C99.7062 71.5661 99.0494 82.6715 99.5242 89.2259C99.7901 92.897 100.395 96.5408 101.343 100.109C101.394 100.299 101.284 100.495 101.098 100.547C100.912 100.599 100.719 100.486 100.669 100.296C99.7091 96.6835 99.0964 92.9946 98.8274 89.2785C98.3483 82.6656 99.007 71.4789 100.669 65.0182C100.718 64.8278 100.909 64.7138 101.095 64.7637Z" fill="white"/>
<path d="M41.2785 62.4756C41.4649 62.5256 41.5765 62.7205 41.5276 62.9109C39.8898 69.278 39.233 80.3835 39.7078 86.9378C39.9737 90.6089 40.5788 94.2527 41.5267 97.8209C41.5772 98.011 41.4673 98.2074 41.2812 98.259C41.0951 98.3106 40.9029 98.1983 40.8524 98.0081C39.8927 94.3954 39.28 90.7065 39.011 86.9904C38.5319 80.3775 39.1906 69.1908 40.8524 62.7302C40.9014 62.5397 41.0921 62.4257 41.2785 62.4756Z" fill="white"/>
<path d="M73.6338 45.833C65.929 45.833 59.6936 46.1545 54.1865 46.8368C55.2821 51.3887 56.8708 55.8768 58.9009 60.08C60.8956 64.2103 63.393 68.0253 66.1191 71.7159C67.0665 70.0601 67.972 68.3801 68.8453 66.6879C71.971 60.6228 74.6231 54.3697 76.766 47.9983C77.0012 47.2917 77.2268 46.5851 77.4492 45.8785C76.1376 45.8482 74.8583 45.833 73.6338 45.833Z" fill="#141414"/>
<path d="M71.8482 33.1409L59.9736 31.4912L60.9822 46.2507C60.9822 46.2507 61.3816 53.1497 65.8801 53.2376C70.3786 53.3256 72.8665 45.8322 72.8665 45.8322L71.8482 33.1409Z" fill="white"/>
<path d="M67.4001 49.9055L72.9778 42.7627L76.5272 46.096L72.9778 57.5244L68.9213 51.8102L65.8789 54.1911L67.4001 49.9055Z" fill="#1ED760"/>
<path d="M72.9513 42.4063C73.0479 42.3987 73.1437 42.4326 73.2149 42.4995L76.7643 45.8329C76.8642 45.9268 76.9019 46.0715 76.8609 46.2037L73.3115 57.6319C73.2717 57.7602 73.1644 57.8548 73.0344 57.8764C72.9043 57.8978 72.7733 57.8424 72.6959 57.7334L68.8496 52.3154L66.0919 54.4737C65.9688 54.5701 65.7981 54.572 65.673 54.4783C65.5482 54.3846 65.4983 54.2176 65.5512 54.0688L67.0731 49.7835L67.0965 49.7309C67.1058 49.7141 67.1163 49.6981 67.1281 49.6829L72.7058 42.5401L72.7564 42.4875C72.8113 42.4411 72.8792 42.4121 72.9513 42.4063ZM67.7104 50.0795L66.6145 53.1649L68.7096 51.5267L68.7692 51.4889C68.8317 51.4579 68.9025 51.4463 68.9723 51.4566C69.0655 51.4705 69.149 51.5227 69.2043 51.6005L72.8548 56.7428L76.1279 46.2047L73.0172 43.2835L67.7104 50.0795Z" fill="#141414"/>
<path d="M64.3577 49.9055L58.7801 42.7627L55.2306 46.096L58.7801 57.5244L62.8365 51.8102L65.8789 54.1911L64.3577 49.9055Z" fill="#1ED760"/>
<path d="M58.8074 42.4063C58.7109 42.3987 58.6151 42.4326 58.5439 42.4995L54.9945 45.8329C54.8946 45.9268 54.8569 46.0715 54.8979 46.2037L58.4473 57.6319C58.4871 57.7602 58.5944 57.8548 58.7244 57.8764C58.8545 57.8978 58.9855 57.8424 59.0629 57.7334L62.9092 52.3154L65.6669 54.4737C65.79 54.5701 65.9607 54.572 66.0858 54.4783C66.2106 54.3846 66.2605 54.2176 66.2076 54.0688L64.6857 49.7835L64.6622 49.7309C64.653 49.7141 64.6425 49.6981 64.6306 49.6829L59.053 42.5401L59.0024 42.4875C58.9475 42.4411 58.8796 42.4121 58.8074 42.4063ZM64.0484 50.0795L65.1443 53.1649L63.0491 51.5267L62.9896 51.4889C62.9271 51.4579 62.8563 51.4463 62.7865 51.4566C62.6933 51.4705 62.6098 51.5227 62.5545 51.6005L58.904 56.7428L55.6309 46.2047L58.7415 43.2835L64.0484 50.0795Z" fill="#141414"/>
<path d="M78.8664 21.9241C78.8439 21.7058 78.8181 21.4874 78.7859 21.2691C77.6387 13.5057 67.9521 9.59372 60.8402 13.1145C54.8498 16.0804 52.5747 18.9613 52.0108 24.611C51.9593 25.1326 51.7563 28.5775 51.7369 29.1659C50.232 34.8428 49.0945 41.4538 55.9389 43.2551C59.7865 44.268 64.0562 42.5819 67.211 40.6077C73.9007 36.4197 79.6366 29.7754 78.8664 21.9241Z" fill="white"/>
<path d="M60.6859 12.7946C60.8593 12.7087 61.0684 12.7826 61.1526 12.9597C61.2367 13.1369 61.1644 13.3506 60.991 13.4366C58.0157 14.9096 56.0037 16.3426 54.6632 18.0779C53.4118 19.6982 52.7236 21.6114 52.4137 24.1352L52.3569 24.648C52.3064 25.1592 52.1035 28.5945 52.0843 29.1787L52.0825 29.2202L52.0725 29.2599C51.319 32.1024 50.6799 35.1076 51.0507 37.6119C51.2347 38.8543 51.6657 39.958 52.4435 40.8568C53.221 41.7551 54.3671 42.4748 56.0245 42.911C59.504 43.8269 62.142 42.4911 64.5277 40.2481C64.6696 40.1147 64.89 40.1236 65.0206 40.2684C65.1512 40.4134 65.1417 40.6395 64.9998 40.7729C62.5179 43.1063 59.6455 44.6009 55.8503 43.6018C54.0856 43.1374 52.8072 42.3543 51.92 41.3291C51.0334 40.3045 50.5592 39.0629 50.3601 37.718C49.9666 35.0589 50.6408 31.9351 51.3883 29.1104C51.4153 28.4073 51.6104 25.0962 51.6618 24.576L51.7205 24.0457C52.0414 21.4325 52.7632 19.3856 54.1144 17.6361C55.55 15.7774 57.6712 14.2872 60.6859 12.7946Z" fill="#141414"/>
<path d="M72.6344 34.1358L68.0811 32.0039C65.7255 38.2449 72.4733 40.5648 72.4733 40.5648L72.6344 34.1358Z" fill="#141414"/>
<path d="M68.3039 22.9731C67.6948 24.2377 65.8774 27.7706 68.9226 28.1133L69.9602 35.443L71.7358 38.1207C71.7358 38.1207 75.6252 34.4998 78.0485 29.8115C80.4717 25.1262 83.1012 19.6949 78.5705 15.0915C74.0398 10.485 54.7955 9.54491 52.9136 15.51C52.7461 16.0467 52.6204 20.1953 55.5173 20.9504C58.2854 21.6721 70.479 18.4485 68.3039 22.9731Z" fill="#141414"/>
<path d="M70.6429 24.8835C72.1703 24.3952 73.63 23.7281 74.9738 22.8881C75.3057 22.6818 74.9963 22.1754 74.6612 22.3846C73.3594 23.1974 71.9544 23.8494 70.4753 24.3225C70.0983 24.4438 70.2594 25.0048 70.6396 24.8835H70.6429Z" fill="#141414"/>
<path d="M72.3672 25.9303C73.6851 25.5149 74.9354 24.9296 76.0762 24.1836C76.4016 23.9713 76.0923 23.4648 75.7636 23.6802C74.6648 24.3958 73.4692 24.966 72.2028 25.3663C71.8258 25.4845 71.9869 26.0486 72.3672 25.9273V25.9303Z" fill="#141414"/>
<path d="M71.4965 30.5547C72.0379 32.6562 70.6683 34.773 68.4352 35.2855C66.2021 35.7949 63.9528 34.5061 63.4082 32.4045C62.8669 30.303 64.2364 28.1862 66.4695 27.6737C68.7027 27.1643 70.9519 28.4531 71.4965 30.5547Z" fill="white"/>
<path d="M68.5061 33.2988C69.1313 32.8288 69.5019 32.0525 69.4439 31.2974C69.3859 30.5392 68.9476 29.8539 68.2741 29.4354C67.939 29.2291 67.6296 29.7326 67.9615 29.9388C68.4578 30.2481 68.7994 30.7848 68.8284 31.3489C68.8574 31.9524 68.5641 32.5134 68.0679 32.8864C67.9358 32.9835 67.9583 33.1957 68.0679 33.2988C68.1968 33.4201 68.374 33.3989 68.5061 33.2988Z" fill="#141414"/>
<path d="M51.9432 80.3978C52.8068 80.3796 53.6705 80.3584 54.5308 80.3402C54.9304 80.3311 54.9304 79.7488 54.5308 79.7579C53.6672 79.7761 52.8036 79.7973 51.9432 79.8155C51.5437 79.8246 51.5437 80.4069 51.9432 80.3978Z" fill="#141414"/>
<path d="M123.015 76.0895C122.959 75.9309 122.814 75.8427 122.696 75.7924C122.569 75.7416 122.415 75.703 122.252 75.6768C121.936 75.6265 121.528 75.6092 121.129 75.6064C120.722 75.6041 120.07 75.636 119.62 75.6606L119.824 72.8851L116.731 72.2852L117.049 76.1191C117.348 76.0638 117.605 76.0264 117.776 76.0141C117.776 76.0141 118.198 74.0726 118.686 73.9363C119.084 73.824 119.538 75.5868 119.606 75.8572L119.615 75.8907C119.615 75.8907 122.602 75.6527 122.783 76.1616C122.998 76.7654 120.338 77.6295 120.338 77.6295C120.338 77.6295 122.036 82.0114 121.46 82.265C121.135 82.4097 119.958 80.7921 119.309 79.8604C119.055 79.4895 118.88 79.2259 118.88 79.2259C118.508 79.6325 117.987 80.1469 117.421 80.6659L117.668 83.6704L119.119 82.475L119.281 80.243C119.441 80.467 119.619 80.7133 119.8 80.9535C120.096 81.3495 120.41 81.7439 120.685 82.0304C120.823 82.1723 120.955 82.2974 121.075 82.3795C121.136 82.422 121.205 82.4594 121.279 82.4823C121.353 82.5052 121.459 82.5208 121.566 82.4745C121.783 82.3795 121.817 82.141 121.826 82.0075C121.835 81.8388 121.813 81.6244 121.771 81.3965C121.694 80.9423 121.531 80.3614 121.351 79.7895C121.09 78.9594 120.795 78.1467 120.654 77.7697C120.907 77.6781 121.332 77.5206 121.748 77.3318C122.071 77.186 122.404 77.0106 122.646 76.828C122.852 76.6716 123.127 76.4057 123.015 76.0895Z" fill="#1ED760"/>
<path d="M114.223 77.1539C114.184 77.7264 116.891 77.7655 117.176 77.7348C117.176 77.7348 113.694 82.429 114.079 82.9724C114.306 83.2925 115.998 81.9704 117.419 80.6678L117.047 76.1211C115.936 76.3233 114.25 76.7741 114.223 77.1539Z" fill="#1ED760"/>
<path d="M114.414 86.5603C114.251 86.5603 114.135 86.5112 114.058 86.4615L114.144 86.3146C114.207 86.3559 114.296 86.3972 114.406 86.3972C114.495 86.3972 114.597 86.3626 114.597 86.2721C114.597 86.1174 114.316 86.0889 114.175 85.9409C114.13 85.8929 114.1 85.8303 114.1 85.7465C114.1 85.5851 114.235 85.4482 114.478 85.4482C114.601 85.4482 114.699 85.4762 114.762 85.5091L114.758 85.6873C114.669 85.6409 114.583 85.6113 114.488 85.6113C114.395 85.6113 114.321 85.6493 114.321 85.7219C114.321 85.923 114.821 85.9119 114.821 86.2492C114.821 86.4403 114.642 86.5603 114.414 86.5603Z" fill="#1ED760"/>
<path d="M116.106 85.6289H115.79V86.5489H115.576V85.6289H115.24V85.4619H116.157L116.106 85.6289Z" fill="#1ED760"/>
<path d="M116.955 85.8642C116.935 85.81 116.92 85.7654 116.911 85.7291H116.91C116.903 85.767 116.887 85.81 116.867 85.8609L116.767 86.1128H117.048L116.955 85.8642ZM117.23 86.5485L117.115 86.2764H116.703L116.596 86.5485H116.387L116.836 85.457H116.991L117.456 86.5485H117.23Z" fill="#1ED760"/>
<path d="M118.259 85.6281H118.154V85.966H118.261C118.37 85.966 118.452 85.8884 118.452 85.7895C118.452 85.7007 118.391 85.6281 118.259 85.6281ZM118.556 86.5464C118.377 86.266 118.296 86.1308 118.252 86.1179H118.154V86.5464H117.941V85.46H118.254C118.554 85.46 118.667 85.6002 118.667 85.7666C118.667 85.9118 118.561 86.009 118.452 86.052V86.0537C118.505 86.0816 118.621 86.2699 118.799 86.5469H118.556V86.5464Z" fill="#1ED760"/>
<path d="M120.018 86.5469V86.0816H119.457V86.5469H119.245V85.46H119.457V85.9085H120.018V85.46H120.23V86.5469H120.018Z" fill="#1ED760"/>
<path d="M121.632 86.4387C121.551 86.5147 121.432 86.5588 121.259 86.5588C121.096 86.5588 120.977 86.5225 120.899 86.4516C120.817 86.3773 120.785 86.2639 120.785 86.1432V85.4556H120.998V86.1298C120.998 86.2091 121.02 86.2734 121.066 86.3209C121.11 86.3655 121.178 86.3884 121.263 86.3884C121.361 86.3884 121.429 86.3639 121.473 86.3209C121.517 86.2762 121.535 86.2153 121.535 86.1393V85.4551H121.747V86.1326C121.748 86.2572 121.711 86.3644 121.632 86.4387Z" fill="#1ED760"/>
<path d="M122.62 86.0807H122.476V86.3806H122.611C122.753 86.3806 122.823 86.3214 122.823 86.2225C122.823 86.1388 122.75 86.0807 122.62 86.0807ZM122.58 85.631H122.476V85.9148H122.602C122.678 85.9148 122.753 85.8572 122.753 85.7712C122.753 85.6886 122.697 85.631 122.58 85.631ZM122.631 86.5493H122.264V85.4629H122.633C122.859 85.4629 122.966 85.6014 122.966 85.7332C122.966 85.8271 122.917 85.9148 122.822 85.9589V85.9606C122.95 85.9885 123.042 86.0941 123.042 86.2225C123.041 86.3778 122.922 86.5493 122.631 86.5493Z" fill="#1ED760"/>
<path d="M36.7741 106.87C36.7741 112.873 30.2359 117.74 22.1707 117.74C14.1055 117.74 7.56738 112.873 7.56738 106.87C7.56738 100.867 14.1055 96.001 22.1707 96.001C30.2359 96.001 36.7741 100.867 36.7741 106.87Z" fill="white"/>
<path d="M36.0759 106.87C36.0759 104.153 34.5974 101.631 32.086 99.7615C29.5751 97.8926 26.0717 96.7149 22.171 96.7149C18.2702 96.7149 14.7669 97.8926 12.2559 99.7615C9.74434 101.631 8.26611 104.153 8.26606 106.87C8.26606 109.588 9.7443 112.11 12.2559 113.98C14.7669 115.849 18.2703 117.026 22.171 117.026V117.739L21.7937 117.736C13.9027 117.587 7.56738 112.779 7.56738 106.87C7.56748 100.867 14.1058 96.001 22.171 96.001L22.5474 96.0047C30.4385 96.1534 36.7736 100.961 36.7737 106.87C36.7737 112.873 30.2361 117.739 22.171 117.739V117.026C26.0717 117.026 29.5751 115.849 32.086 113.98C34.5977 112.11 36.0759 109.588 36.0759 106.87Z" fill="#141414"/>
<path d="M68.415 122.316H30.6167L7.56773 68.541H45.369L68.415 122.316Z" fill="#0062FF"/>
<path d="M57.845 106.773C68.6456 111.917 110.389 119.578 122.516 113.695C124.679 112.646 126.696 111.005 127.94 108.663C129.326 106.061 129.633 102.671 128.752 99.7254C125.748 89.6687 107.465 89.4943 100.235 88.3748C91.0102 86.9463 60.5577 85.1574 60.5577 85.1574C59.762 89.1906 57.845 106.773 57.845 106.773Z" fill="white"/>
<path d="M128.649 99.3847C128.462 99.434 128.356 99.6271 128.413 99.8155C129.267 102.674 128.968 105.969 127.626 108.489L127.392 108.906C126.177 110.952 124.334 112.415 122.351 113.377C119.249 114.882 114.106 115.496 107.955 115.466C107.76 115.465 107.607 115.623 107.613 115.817C107.619 116.012 107.782 116.171 107.977 116.172C114.14 116.202 119.424 115.593 122.678 114.014C124.889 112.942 126.967 111.257 128.252 108.838C129.681 106.154 129.995 102.67 129.089 99.6367C129.033 99.4483 128.836 99.3353 128.649 99.3847Z" fill="#141414"/>
<path d="M47.1999 76.6258C48.1607 75.8044 49.659 76.0152 50.9054 76.3624C54.9465 77.4853 61.5039 80.7191 64.5828 83.4429L53.9608 86.0393C51.2752 84.5863 48.446 82.997 47.0238 80.3991C46.3631 79.1929 46.1385 77.5332 47.1999 76.6258Z" fill="white"/>
<path d="M45.1712 88.8868C42.6103 88.3785 41.6468 86.0135 42.4875 84.5828C43.1899 83.392 44.7109 82.9046 46.1085 82.5716C49.0729 81.8668 52.105 81.4104 55.1554 81.2097C58.0821 81.017 61.2327 81.116 63.6482 82.7021C65.1988 83.7191 66.6803 85.8589 68.4606 87.8555C68.7783 88.2122 63.078 89.7059 57.917 90.0486C52.6289 90.3974 46.6748 89.1831 45.1678 88.885L45.1712 88.8868Z" fill="white"/>
<path d="M46.9429 95.4479C47.9991 94.455 49.0857 93.8749 50.3394 92.9877C50.8868 92.6002 55.6561 90.1203 62.7039 85.6735C63.7097 86.5832 66.317 85.7085 67.168 86.7536C70.9195 91.3728 74.142 92.8673 78.0567 99.6074L60.8245 106.512C58.8352 107.141 52.6196 109.334 50.8584 108.244C50.1181 107.786 49.4452 107.159 49.1986 106.355C48.9267 105.465 49.2253 104.488 49.7694 103.721C50.3128 102.952 51.0758 102.354 51.8296 101.763C50.626 102.287 49.2014 102.412 47.9582 101.969C46.7131 101.529 45.6913 100.488 45.4459 99.2518C45.1725 97.8628 45.8887 96.4376 46.9456 95.4472L46.9429 95.4479Z" fill="white"/>
<path d="M48.2178 81.9146C49.858 81.8183 52.5848 81.8193 55.4546 82.1314C58.3174 82.4427 61.3604 83.0675 63.6086 84.2418C63.7802 84.3315 63.848 84.5469 63.7602 84.7223C63.6724 84.8974 63.4623 84.9667 63.2908 84.8773C61.158 83.7633 58.2172 83.1492 55.3806 82.8407C52.5513 82.533 49.8626 82.5333 48.2576 82.6276C48.0652 82.6388 47.9004 82.4884 47.8893 82.2919C47.8782 82.0952 48.0253 81.926 48.2178 81.9146Z" fill="#141414"/>
<path d="M59.7231 97.9617C59.9002 97.884 60.1055 97.9672 60.1817 98.1481C60.2579 98.3291 60.1756 98.5388 59.9985 98.6166L52.0603 102.104C51.8831 102.182 51.6779 102.098 51.6017 101.917C51.5257 101.736 51.607 101.526 51.7841 101.448L59.7231 97.9617Z" fill="#141414"/>
<path d="M59.7746 88.2277C59.9561 88.1619 60.1559 88.2582 60.2205 88.4436C60.285 88.6291 60.1898 88.8331 60.0084 88.8992L55.1312 90.6702C54.9495 90.7361 54.7498 90.6391 54.6852 90.4534C54.6209 90.268 54.7152 90.0648 54.8965 89.9987L59.7746 88.2277Z" fill="#141414"/>
<path d="M10.0336 87.8624C10.2104 89.7488 13.4995 90.9734 13.4995 90.9734C13.4995 90.9734 11.4989 91.7585 11.7217 94.3236C11.9446 96.8912 14.519 98.5868 14.519 98.5868C14.519 98.5868 13.4098 100.683 13.543 102.234C13.6762 103.785 15.6307 105.364 19.0786 105.128C21.0202 104.995 23.2796 104.949 24.609 103.391C25.1188 102.79 25.1111 101.913 24.9036 101.166C24.6705 100.34 24.0096 99.6858 23.1873 99.3211C22.3676 98.9564 21.7938 98.8187 21.7938 98.8187C23.0183 98.6955 24.3272 98.0313 25.0931 97.1255C25.8591 96.2197 26.0102 95.1908 25.5773 94.1062C25.0931 92.8865 23.8687 92.1377 22.5264 91.8261C21.8015 91.6594 19.6882 91.401 16.3249 91.1908C18.9249 90.2222 21.0331 89.1885 21.7913 88.8189C23.9507 87.773 24.1864 85.4421 23.0541 84.3649C22.1115 83.4687 20.6258 83.389 19.2861 83.4204C17.4212 83.4615 15.559 83.604 13.7146 83.848C13.7095 83.848 13.7069 83.8504 13.6993 83.8504C10.2821 84.575 9.85433 85.9784 10.0311 87.8624H10.0336Z" fill="white"/>
<path d="M13.7869 97.5145C13.6478 97.378 13.4267 97.3826 13.2931 97.5246C13.1595 97.6667 13.164 97.8927 13.303 98.0292C13.5811 98.3021 13.8358 98.5143 14.0215 98.6592C14.0401 98.6736 14.0586 98.6866 14.0757 98.6997C14.0628 98.7271 14.0484 98.7557 14.0342 98.7864C13.9291 99.0141 13.7905 99.3345 13.656 99.7051C13.3915 100.434 13.1237 101.408 13.1974 102.266C13.2766 103.186 13.8884 104.059 14.8935 104.659C15.9023 105.262 17.3257 105.606 19.1037 105.484C20.3645 105.398 21.8557 105.347 23.1197 104.846C23.2992 104.775 23.3887 104.569 23.3192 104.385C23.2495 104.202 23.0467 104.11 22.8669 104.181C21.727 104.633 20.368 104.682 19.0576 104.772H19.0567C17.3871 104.886 16.1092 104.559 15.2456 104.043C14.3786 103.525 13.9466 102.833 13.8925 102.203C13.833 101.51 14.0537 100.66 14.3104 99.9532C14.4365 99.606 14.5664 99.3048 14.6652 99.0908C14.7145 98.984 14.7557 98.8993 14.7843 98.8418C14.7986 98.8132 14.8103 98.7917 14.8177 98.7772L14.8276 98.7569L14.982 98.4664L14.7103 98.2874C14.7099 98.2872 14.7088 98.2864 14.7076 98.2856C14.7051 98.2839 14.7006 98.2812 14.695 98.2773C14.6836 98.2695 14.6665 98.2568 14.6435 98.2404C14.5975 98.2076 14.5292 98.1577 14.4449 98.0919C14.2761 97.9602 14.0424 97.7653 13.7869 97.5145Z" fill="#141414"/>
<path d="M21.5866 98.5056C21.7788 98.5194 21.924 98.6901 21.9107 98.8866C21.8972 99.0829 21.7301 99.2313 21.5378 99.2177L14.236 98.7002C14.0438 98.6865 13.8987 98.5158 13.912 98.3193C13.9254 98.1229 14.0925 97.9745 14.2848 97.9882L21.5866 98.5056Z" fill="#141414"/>
<path d="M16.6941 90.4951C16.8869 90.4951 17.0435 90.6551 17.0435 90.8521C17.0435 91.0491 16.8869 91.209 16.6941 91.209H13.6521C13.4593 91.209 13.3027 91.0491 13.3027 90.8521C13.3027 90.6551 13.4593 90.4951 13.6521 90.4951H16.6941Z" fill="#141414"/>
</g>
<defs>
<clipPath id="clip0_3730_17582">
<rect width="140" height="140" fill="white"/>
</clipPath>
</defs>
</svg>
