<svg width="16" height="16" viewBox="0 0 14.3333 12.3333" fill="none" xmlns="http://www.w3.org/2000/svg">
<path d="M7.16667 11.1667C6.27831 11.5816 5.11138 11.8333 3.83333 11.8333C3.12272 11.8333 2.44646 11.7555 1.83333 11.6151C0.778851 11.3735 0.5 10.7531 0.5 9.75735V2.57598C0.5 1.91943 1.19335 1.46849 1.83333 1.61507C2.44646 1.7555 3.12272 1.83333 3.83333 1.83333C5.11138 1.83333 6.27831 1.58158 7.16667 1.16667C8.05503 0.751758 9.22195 0.5 10.5 0.5C11.2106 0.5 11.8869 0.577832 12.5 0.718265C13.5545 0.959788 13.8333 1.58024 13.8333 2.57598V9.75735C13.8333 10.4139 13.14 10.8648 12.5 10.7183C11.8869 10.5778 11.2106 10.5 10.5 10.5C9.22195 10.5 8.05503 10.7518 7.16667 11.1667Z" stroke="#1E1E1E"/>
<path d="M8.83333 6.16667C8.83333 7.08714 8.08714 7.83333 7.16667 7.83333C6.24619 7.83333 5.5 7.08714 5.5 6.16667C5.5 5.24619 6.24619 4.5 7.16667 4.5C8.08714 4.5 8.83333 5.24619 8.83333 6.16667Z" stroke="#1E1E1E"/>
<path d="M2.83333 6.83333L2.83333 6.83932" stroke="#1E1E1E" stroke-width="1.33333" stroke-linecap="round" stroke-linejoin="round"/>
<path d="M11.5 5.49479L11.5 5.50078" stroke="#1E1E1E" stroke-width="1.33333" stroke-linecap="round" stroke-linejoin="round"/>
</svg>
