<svg width="32" height="32" viewBox="0 0 32 32" fill="none" xmlns="http://www.w3.org/2000/svg">
<path d="M23.9997 17.333C27.6816 17.333 30.6663 20.3178 30.6663 23.9997C30.6663 27.6816 27.6816 30.6663 23.9997 30.6663C20.3178 30.6663 17.333 27.6816 17.333 23.9997C17.333 20.3178 20.3178 17.333 23.9997 17.333ZM23.9124 18.833C23.6364 18.8332 23.4124 19.057 23.4124 19.333V19.9215C22.3245 20.1484 21.4997 21.1002 21.4997 22.2523C21.4997 22.8505 21.6512 23.417 22.1006 23.8206C22.5376 24.213 23.1627 24.3655 23.9124 24.3656C24.5598 24.3656 24.936 24.4932 25.1501 24.6794C25.3488 24.8522 25.4997 25.1573 25.4997 25.7477C25.4996 26.2927 25.3169 26.6093 25.0758 26.8024C24.8167 27.01 24.4203 27.1292 23.9124 27.1292C23.3753 27.1291 22.9128 26.8978 22.6299 26.5602C22.4525 26.3486 22.1371 26.3204 21.9255 26.4977C21.7138 26.6751 21.6863 26.9905 21.8636 27.2021C22.2433 27.6552 22.7912 27.9715 23.4124 28.0837V28.6663C23.4124 28.9424 23.6364 29.1662 23.9124 29.1663C24.1886 29.1663 24.4124 28.9425 24.4124 28.6663V28.0967C24.8831 28.0344 25.3335 27.8772 25.7008 27.583C26.215 27.1712 26.4996 26.5468 26.4997 25.7477C26.4997 24.9939 26.3032 24.357 25.8063 23.9248C25.3248 23.5061 24.6564 23.3656 23.9124 23.3656C23.2712 23.3655 22.9402 23.2307 22.7686 23.0765C22.6093 22.9334 22.4997 22.6934 22.4997 22.2523C22.4997 21.4968 23.1244 20.8703 23.9124 20.8701C24.4455 20.8701 24.9073 21.1581 25.1481 21.5804C25.2848 21.8202 25.5899 21.9039 25.8298 21.7673C26.0696 21.6305 26.1533 21.3255 26.0166 21.0856C25.6811 20.497 25.1001 20.0646 24.4124 19.9215V19.333C24.4124 19.0569 24.1886 18.833 23.9124 18.833Z" fill="#1ED760"/>
<path d="M7.04395 3.29688C7.32003 3.29695 7.54395 3.52078 7.54395 3.79687V5.69401C7.54406 5.69834 7.5446 5.70267 7.5446 5.70703C7.5446 5.70942 7.54398 5.71181 7.54395 5.71419V7.10807C7.54381 7.38405 7.31994 7.608 7.04395 7.60807C6.76789 7.60807 6.54408 7.3841 6.54395 7.10807V6.20703H5.33366C4.13708 6.20707 3.167 7.17711 3.16699 8.3737V8.83333H28.167V8.17448C28.167 7.08802 27.286 6.20703 26.1995 6.20703C25.9235 6.20687 25.6995 5.98307 25.6995 5.70703C25.6996 5.431 25.9235 5.2072 26.1995 5.20703C27.8383 5.20703 29.167 6.53573 29.167 8.17448V16.8535C29.167 17.1297 28.9431 17.3535 28.667 17.3535C28.3909 17.3535 28.167 17.1296 28.167 16.8535V9.83333H3.16699V25.334C3.16717 26.5304 4.13719 27.5006 5.33366 27.5006H15.667C15.9431 27.5006 16.167 27.7245 16.167 28.0006C16.1668 28.2766 15.943 28.5006 15.667 28.5006H5.33366C3.5849 28.5006 2.16717 27.0827 2.16699 25.334V8.3737C2.167 6.62483 3.5848 5.20707 5.33366 5.20703H6.54395V3.79687C6.54395 3.52073 6.7678 3.29688 7.04395 3.29688ZM8.00033 21.5C8.27647 21.5 8.50033 21.7239 8.50033 22C8.50033 22.2761 8.27647 22.5 8.00033 22.5H7.33366C7.05752 22.5 6.83366 22.2761 6.83366 22C6.83366 21.7239 7.05752 21.5 7.33366 21.5H8.00033ZM13.3337 21.5C13.6098 21.5 13.8337 21.7239 13.8337 22C13.8337 22.2761 13.6098 22.5 13.3337 22.5H12.667C12.3909 22.5 12.167 22.2761 12.167 22C12.167 21.7239 12.3909 21.5 12.667 21.5H13.3337ZM8.00033 17.5C8.27647 17.5 8.50033 17.7239 8.50033 18C8.50033 18.2761 8.27647 18.5 8.00033 18.5H7.33366C7.05752 18.5 6.83366 18.2761 6.83366 18C6.83366 17.7239 7.05752 17.5 7.33366 17.5H8.00033ZM13.3337 17.5C13.6098 17.5 13.8337 17.7239 13.8337 18C13.8337 18.2761 13.6098 18.5 13.3337 18.5H12.667C12.3909 18.5 12.167 18.2761 12.167 18C12.167 17.7239 12.3909 17.5 12.667 17.5H13.3337ZM8.00033 13.5C8.27647 13.5 8.50033 13.7239 8.50033 14C8.50033 14.2761 8.27647 14.5 8.00033 14.5H7.33366C7.05752 14.5 6.83366 14.2761 6.83366 14C6.83366 13.7239 7.05752 13.5 7.33366 13.5H8.00033ZM13.3337 13.5C13.6098 13.5 13.8337 13.7239 13.8337 14C13.8337 14.2761 13.6098 14.5 13.3337 14.5H12.667C12.3909 14.5 12.167 14.2761 12.167 14C12.167 13.7239 12.3909 13.5 12.667 13.5H13.3337ZM18.667 13.5C18.9431 13.5 19.167 13.7239 19.167 14C19.167 14.2761 18.9431 14.5 18.667 14.5H18.0003C17.7242 14.5 17.5003 14.2761 17.5003 14C17.5003 13.7239 17.7242 13.5 18.0003 13.5H18.667ZM24.0003 13.5C24.2765 13.5 24.5003 13.7239 24.5003 14C24.5003 14.2761 24.2765 14.5 24.0003 14.5H23.3337C23.0575 14.5 22.8337 14.2761 22.8337 14C22.8337 13.7239 23.0575 13.5 23.3337 13.5H24.0003ZM12.8532 3.29688C13.1292 3.29703 13.3532 3.52083 13.3532 3.79687V7.10807C13.3531 7.384 13.1291 7.60791 12.8532 7.60807C12.5771 7.60807 12.3533 7.3841 12.3532 7.10807V6.20703H8.72363C8.4476 6.2069 8.22363 5.9831 8.22363 5.70703C8.22364 5.43097 8.4476 5.20716 8.72363 5.20703H12.3532V3.79687C12.3532 3.52073 12.577 3.29688 12.8532 3.29688ZM18.6618 3.29688C18.9379 3.29688 19.1618 3.52073 19.1618 3.79687V7.10807C19.1616 7.3841 18.9378 7.60807 18.6618 7.60807C18.3858 7.60797 18.1619 7.38403 18.1618 7.10807V6.20703H14.5732C14.2972 6.2069 14.0732 5.98309 14.0732 5.70703C14.0732 5.43098 14.2972 5.20717 14.5732 5.20703H18.1618V3.79687C18.1618 3.5208 18.3857 3.29698 18.6618 3.29688ZM24.471 3.29688C24.7472 3.29688 24.971 3.52073 24.971 3.79687V7.10807C24.9709 7.3841 24.7471 7.60807 24.471 7.60807C24.195 7.60805 23.9712 7.38409 23.971 7.10807V6.20703H20.4092C20.1331 6.20692 19.9092 5.98311 19.9092 5.70703C19.9092 5.43096 20.1331 5.20714 20.4092 5.20703H23.971V3.79687C23.971 3.52074 24.1949 3.29689 24.471 3.29688Z" fill="#141414"/>
</svg>
