<svg width="48" height="48" viewBox="0 0 48 48" fill="none" xmlns="http://www.w3.org/2000/svg">
<g transform="translate(3.25 4.94)">
<path d="M7.31543 0C7.72955 0.000110588 8.06543 0.335855 8.06543 0.75V3.5957C8.0656 3.6022 8.06641 3.6087 8.06641 3.61523C8.06641 3.61882 8.06548 3.6224 8.06543 3.62598V5.7168C8.06522 6.13077 7.72942 6.46669 7.31543 6.4668C6.90134 6.4668 6.56564 6.13083 6.56543 5.7168V4.36523H4.75C2.95513 4.3653 1.50001 5.82036 1.5 7.61523V8.30469H39V7.31641C39 5.68672 37.6785 4.36523 36.0488 4.36523C35.6348 4.36499 35.2988 4.02929 35.2988 3.61523C35.2988 3.20118 35.6348 2.86548 36.0488 2.86523C38.5069 2.86523 40.5 4.85829 40.5 7.31641V20.335C40.5 20.7492 40.1642 21.085 39.75 21.085C39.3358 21.0849 39 20.7491 39 20.335V9.80469H1.5V33.0557C1.50026 34.8503 2.95529 36.3056 4.75 36.3057H20.25C20.6642 36.3057 21 36.6415 21 37.0557C20.9997 37.4697 20.6641 37.8057 20.25 37.8057H4.75C2.12686 37.8056 0.000263863 35.6788 0 33.0557V7.61523C9.14805e-06 4.99193 2.12671 2.8653 4.75 2.86523H6.56543V0.75C6.56543 0.335786 6.90122 0 7.31543 0ZM8.75 27.3047C9.16421 27.3047 9.5 27.6405 9.5 28.0547C9.5 28.4689 9.16421 28.8047 8.75 28.8047H7.75C7.33579 28.8047 7 28.4689 7 28.0547C7 27.6405 7.33579 27.3047 7.75 27.3047H8.75ZM16.75 27.3047C17.1642 27.3047 17.5 27.6405 17.5 28.0547C17.5 28.4689 17.1642 28.8047 16.75 28.8047H15.75C15.3358 28.8047 15 28.4689 15 28.0547C15 27.6405 15.3358 27.3047 15.75 27.3047H16.75ZM8.75 21.3047C9.16421 21.3047 9.5 21.6405 9.5 22.0547C9.5 22.4689 9.16421 22.8047 8.75 22.8047H7.75C7.33579 22.8047 7 22.4689 7 22.0547C7 21.6405 7.33579 21.3047 7.75 21.3047H8.75ZM16.75 21.3047C17.1642 21.3047 17.5 21.6405 17.5 22.0547C17.5 22.4689 17.1642 22.8047 16.75 22.8047H15.75C15.3358 22.8047 15 22.4689 15 22.0547C15 21.6405 15.3358 21.3047 15.75 21.3047H16.75ZM8.75 15.3047C9.16421 15.3047 9.5 15.6405 9.5 16.0547C9.5 16.4689 9.16421 16.8047 8.75 16.8047H7.75C7.33579 16.8047 7 16.4689 7 16.0547C7 15.6405 7.33579 15.3047 7.75 15.3047H8.75ZM16.75 15.3047C17.1642 15.3047 17.5 15.6405 17.5 16.0547C17.5 16.4689 17.1642 16.8047 16.75 16.8047H15.75C15.3358 16.8047 15 16.4689 15 16.0547C15 15.6405 15.3358 15.3047 15.75 15.3047H16.75ZM24.75 15.3047C25.1642 15.3047 25.5 15.6405 25.5 16.0547C25.5 16.4689 25.1642 16.8047 24.75 16.8047H23.75C23.3358 16.8047 23 16.4689 23 16.0547C23 15.6405 23.3358 15.3047 23.75 15.3047H24.75ZM32.75 15.3047C33.1642 15.3047 33.5 15.6405 33.5 16.0547C33.5 16.4689 33.1642 16.8047 32.75 16.8047H31.75C31.3358 16.8047 31 16.4689 31 16.0547C31 15.6405 31.3358 15.3047 31.75 15.3047H32.75ZM16.0293 0C16.4433 0.00023968 16.7793 0.335934 16.7793 0.75V5.7168C16.7791 6.13069 16.4432 6.46656 16.0293 6.4668C15.6152 6.4668 15.2795 6.13083 15.2793 5.7168V4.36523H9.83496C9.42091 4.36504 9.08496 4.02933 9.08496 3.61523C9.08497 3.20115 9.42091 2.86542 9.83496 2.86523H15.2793V0.75C15.2793 0.335786 15.6151 0 16.0293 0ZM24.7422 0C25.1564 0 25.4922 0.335786 25.4922 0.75V5.7168C25.492 6.13083 25.1563 6.4668 24.7422 6.4668C24.3282 6.46664 23.9924 6.13074 23.9922 5.7168V4.36523H18.6094C18.1953 4.36503 17.8594 4.02932 17.8594 3.61523C17.8594 3.20115 18.1953 2.86544 18.6094 2.86523H23.9922V0.75C23.9922 0.335884 24.3281 0.000158779 24.7422 0ZM33.4561 0C33.8703 0 34.2061 0.335786 34.2061 0.75V5.7168C34.2058 6.13083 33.8701 6.4668 33.4561 6.4668C33.042 6.46677 32.7063 6.13082 32.7061 5.7168V4.36523H27.3633C26.9492 4.36507 26.6133 4.02935 26.6133 3.61523C26.6133 3.20113 26.9492 2.8654 27.3633 2.86523H32.7061V0.75C32.7061 0.335804 33.0419 2.88756e-05 33.4561 0Z" fill="#141414"/>
</g>
<g transform="translate(26 26)">
<path d="M10 0C15.5228 0 20 4.47715 20 10C20 15.5228 15.5228 20 10 20C4.47715 20 0 15.5228 0 10C0 4.47715 4.47715 0 10 0ZM9.86914 2.25C9.45512 2.25023 9.11914 2.58593 9.11914 3V3.88281C7.4873 4.22309 6.25 5.65072 6.25 7.37891C6.25 8.27619 6.47732 9.12602 7.15137 9.73145C7.80683 10.32 8.7446 10.5488 9.86914 10.5488C10.8401 10.5488 11.4044 10.7403 11.7256 11.0195C12.0236 11.2787 12.25 11.7364 12.25 12.6221C12.2499 13.4395 11.9759 13.9145 11.6143 14.2041C11.2255 14.5154 10.6309 14.6943 9.86914 14.6943C9.06339 14.6942 8.36974 14.3472 7.94531 13.8408C7.67928 13.5234 7.20615 13.4811 6.88867 13.7471C6.57121 14.0131 6.52987 14.4862 6.7959 14.8037C7.36543 15.4833 8.18735 15.9578 9.11914 16.126V17C9.11914 17.4141 9.45512 17.7498 9.86914 17.75C10.2834 17.75 10.6191 17.4142 10.6191 17V16.1455C11.3251 16.0521 12.0007 15.8162 12.5518 15.375C13.323 14.7573 13.7499 13.8207 13.75 12.6221C13.75 11.4913 13.4553 10.5359 12.71 9.8877C11.9876 9.25956 10.9851 9.04883 9.86914 9.04883C8.90731 9.04877 8.41078 8.84648 8.15332 8.61523C7.91439 8.40055 7.75 8.04062 7.75 7.37891C7.75 6.24564 8.68713 5.30589 9.86914 5.30566C10.6688 5.30566 11.3615 5.73768 11.7227 6.37109C11.9277 6.73086 12.3853 6.85631 12.7451 6.65137C13.1049 6.44625 13.2304 5.98873 13.0254 5.62891C12.5221 4.74603 11.6506 4.09737 10.6191 3.88281V3C10.6191 2.58579 10.2834 2.25 9.86914 2.25Z" fill="#1ED760"/>
</g>
</svg>
