<svg width="32" height="32" viewBox="0 0 32 32" fill="none" xmlns="http://www.w3.org/2000/svg">
<path d="M18.9167 13.5034C18.9167 13.9176 19.2525 14.2534 19.6667 14.2534C20.0809 14.2534 20.4167 13.9176 20.4167 13.5034H19.6667H18.9167ZM12.75 18.4965C12.75 18.0823 12.4142 17.7465 12 17.7465C11.5858 17.7465 11.25 18.0823 11.25 18.4965H12H12.75ZM16.75 9.33301C16.75 8.91879 16.4142 8.58301 16 8.58301C15.5858 8.58301 15.25 8.91879 15.25 9.33301L16 9.33301L16.75 9.33301ZM15.25 22.6663C15.25 23.0806 15.5858 23.4163 16 23.4163C16.4142 23.4163 16.75 23.0806 16.75 22.6663H16H15.25ZM16 15.8079V15.0579C14.7145 15.0579 13.9806 14.8548 13.5839 14.5893C13.2515 14.3667 13.0833 14.0521 13.0833 13.5034H12.3333H11.5833C11.5833 14.4396 11.9152 15.2772 12.7494 15.8357C13.5194 16.3512 14.6188 16.5579 16 16.5579V15.8079ZM12.3333 13.5034H13.0833C13.0833 13.0573 13.3283 12.5901 13.8508 12.2071C14.3727 11.8243 15.1302 11.5648 16 11.5648V10.8148V10.0648C14.8448 10.0648 13.7689 10.4071 12.9638 10.9974C12.1591 11.5874 11.5833 12.4646 11.5833 13.5034H12.3333ZM16 10.8148V11.5648C16.8698 11.5648 17.6273 11.8243 18.1492 12.2071C18.6716 12.5901 18.9167 13.0573 18.9167 13.5034H19.6667H20.4167C20.4167 12.4646 19.8409 11.5874 19.0362 10.9974C18.2311 10.4071 17.1552 10.0648 16 10.0648V10.8148ZM20 18.4965H19.25C19.25 19.1724 18.9592 19.6095 18.444 19.917C17.8833 20.2517 17.037 20.4351 16 20.4351V21.1851V21.9351C17.1722 21.9351 18.3258 21.7345 19.2128 21.205C20.1454 20.6483 20.75 19.7412 20.75 18.4965H20ZM16 21.1851V20.4351C15.0241 20.4351 14.1742 20.1679 13.59 19.7752C13.001 19.3793 12.75 18.9131 12.75 18.4965H12H11.25C11.25 19.5649 11.8944 20.4429 12.7532 21.0201C13.6166 21.6005 14.7668 21.9351 16 21.9351V21.1851ZM16 15.8079V16.5579C17.2915 16.5579 18.1113 16.7498 18.5921 17.0614C19.0047 17.3289 19.25 17.7378 19.25 18.4965H20H20.75C20.75 17.3348 20.3286 16.3995 19.4079 15.8027C18.5554 15.2501 17.3752 15.0579 16 15.0579V15.8079ZM16 10.8148L16.75 10.8148L16.75 9.33301L16 9.33301L15.25 9.33301L15.25 10.8148L16 10.8148ZM16 21.1851H15.25V22.6663H16H16.75V21.1851H16Z" fill="#141414"/>
<path d="M14.5863 28.6835L12.0385 27.0767C11.3919 26.6689 11.0686 26.465 10.7097 26.4532C10.322 26.4405 9.99291 26.636 9.29417 27.0767C8.51161 27.5702 6.95551 28.9298 5.94895 28.2814C5.33301 27.8847 5.33301 26.8769 5.33301 24.8614V10.667C5.33301 6.89577 5.33301 5.01015 6.43566 3.83857C7.53832 2.66699 9.31302 2.66699 12.8624 2.66699H19.1369C22.6863 2.66699 24.461 2.66699 25.5637 3.83857C26.6663 5.01015 26.6663 6.89577 26.6663 10.667V24.8614C26.6663 26.8769 26.6663 27.8847 26.0504 28.2814C25.0438 28.9298 23.4877 27.5702 22.7052 27.0767C22.0585 26.6689 21.7352 26.465 21.3764 26.4532C20.9886 26.4405 20.6596 26.636 19.9608 27.0767L17.413 28.6835C16.7257 29.1169 16.3821 29.3337 15.9997 29.3337C15.6173 29.3337 15.2736 29.1169 14.5863 28.6835Z" stroke="#141414" stroke-width="1.5" stroke-linecap="round" stroke-linejoin="round"/>
</svg>
