<svg width="46" height="37" viewBox="0 0 45.5006 36.9629" fill="none" xmlns="http://www.w3.org/2000/svg">
<path d="M37.4004 30.875C37.4005 29.9331 37.8483 29.0789 38.5303 28.501C41.9334 25.6175 44 21.6833 44 17.373C43.9999 8.72418 35.5993 1.50009 24.9502 1.5C22.9475 1.5 21.0186 1.75757 19.208 2.23438C19.9282 2.63057 20.5731 3.00602 20.9766 3.25C21.3308 3.46433 21.4446 3.92492 21.2305 4.2793C21.0161 4.63375 20.5547 4.74752 20.2002 4.5332C19.2353 3.94979 17.0117 2.68367 15.6836 2.17285C14.9064 1.87393 13.4496 1.63509 12.4443 1.80859C11.9267 1.89797 11.7323 2.05998 11.6777 2.15332C11.6476 2.205 11.5404 2.45124 11.9092 3.12988C12.166 3.60247 12.3995 4.07651 12.6104 4.54102C13.5402 6.58918 14.0469 8.48514 14.2041 9.33008C14.2799 9.73723 14.0116 10.1292 13.6045 10.2051C13.1973 10.2808 12.8053 10.0117 12.7295 9.60449C12.615 8.98946 12.2576 7.6214 11.6182 6.04102C9.19425 8.02123 7.41344 10.5242 6.5293 13.3135C6.25971 14.1638 5.77123 14.7953 5.11035 15.2021C4.46355 15.6002 3.70925 15.748 2.9502 15.748C2.20235 15.748 1.50004 16.4208 1.5 17.373V20.8271C1.50012 21.3998 1.82773 22.0647 2.53516 22.8193C3.23117 23.5617 4.20691 24.2964 5.2959 25.002C6.38023 25.7045 7.5415 26.356 8.5957 26.9424C9.63005 27.5177 10.5965 28.0487 11.2266 28.4863C12.0251 29.041 12.5 29.9547 12.5 30.9277V35.4629H15.7578L17.2812 33.2744C17.739 32.6164 18.5516 32.3423 19.2998 32.5361C22.9802 33.4894 26.9202 33.4894 30.6006 32.5361C31.3487 32.3425 32.1614 32.6165 32.6191 33.2744L34.1416 35.4629H37.4004V30.875ZM42.2832 3.71387C42.2569 4.23602 42.3795 4.72155 42.5869 5.04004C42.7185 5.24194 42.8645 5.34892 43.002 5.39453C43.1325 5.43773 43.3342 5.45177 43.6357 5.32324C43.9672 5.18193 43.992 5.0519 43.9961 5.03223C44.0081 4.97393 44.0003 4.82366 43.8447 4.58887C43.6952 4.36322 43.4544 4.13425 43.1699 3.96387C42.8824 3.7917 42.6036 3.71094 42.3896 3.71094C42.3535 3.71094 42.318 3.71323 42.2832 3.71387ZM35.9775 28.6465C35.9775 29.0457 35.7948 29.3723 35.5762 29.6133C35.3614 29.85 35.0799 30.0423 34.7803 30.2021C34.1798 30.5224 33.3603 30.7878 32.4111 31.002C30.5005 31.433 27.8972 31.6934 25.0479 31.6934C22.1987 31.6933 19.5961 31.4329 17.6855 31.002C16.7364 30.7878 15.9169 30.5224 15.3164 30.2021C15.0168 30.0423 14.7352 29.85 14.5205 29.6133C14.3019 29.3723 14.1191 29.0457 14.1191 28.6465C14.1192 28.1969 14.3494 27.8424 14.6045 27.5928C14.8582 27.3445 15.1916 27.1425 15.5518 26.9736C15.9268 26.7978 16.374 26.9589 16.5498 27.334C16.7255 27.709 16.5635 28.1552 16.1885 28.3311C15.9273 28.4535 15.765 28.5638 15.6738 28.6465C15.74 28.7066 15.8503 28.7871 16.0225 28.8789C16.4521 29.108 17.1231 29.3377 18.0156 29.5391C19.789 29.9391 22.2757 30.1933 25.0479 30.1934C27.8202 30.1934 30.3076 29.9391 32.0811 29.5391C32.9736 29.3377 33.6446 29.108 34.0742 28.8789C34.2541 28.783 34.3656 28.6986 34.4307 28.6377C34.2269 28.3195 34.2917 27.8918 34.5928 27.6494C34.9154 27.3897 35.3877 27.441 35.6475 27.7637C35.8331 27.9943 35.9775 28.293 35.9775 28.6465ZM45.5 17.373C45.5 22.1883 43.1872 26.5213 39.5 29.6455C39.1193 29.9681 38.9005 30.4179 38.9004 30.875V36.2129C38.9003 36.6269 38.5644 36.9627 38.1504 36.9629H33.75C33.5045 36.9629 33.275 36.8422 33.1348 36.6406L31.3877 34.1309C31.3034 34.0098 31.143 33.9453 30.9766 33.9883C27.0496 35.0055 22.8509 35.0054 18.9238 33.9883C18.7574 33.9452 18.596 34.0097 18.5117 34.1309L16.7656 36.6406C16.6255 36.842 16.3957 36.9628 16.1504 36.9629H11.75C11.3359 36.9629 11.0001 36.627 11 36.2129V30.9277C11 30.4432 10.7636 29.9914 10.3711 29.7188C9.81884 29.3351 8.93751 28.8488 7.86621 28.2529C6.81475 27.6681 5.6116 26.9942 4.47949 26.2607C3.35216 25.5303 2.259 24.7179 1.44043 23.8447C0.633405 22.9838 0.000117508 21.9645 0 20.8271V17.373C4.43851e-05 15.7023 1.26804 14.248 2.9502 14.248C3.52544 14.248 3.98268 14.135 4.32422 13.9248C4.65176 13.7232 4.9288 13.3991 5.09961 12.8604C6.12105 9.63799 8.20409 6.80271 10.9883 4.62305C10.8622 4.36468 10.731 4.10463 10.5908 3.84668C10.1202 2.98065 9.96148 2.11764 10.3828 1.39648C10.7796 0.717478 11.5389 0.443281 12.1885 0.331055C13.5176 0.101565 15.2521 0.399653 16.2217 0.772461C16.5457 0.897085 16.9109 1.06194 17.2949 1.24512C19.6629 0.441717 22.247 0 24.9502 0C30.3505 4.30334e-05 35.3121 1.77484 39.0068 4.69824C39.0101 4.64746 39.0137 4.59661 39.0195 4.5459C39.0784 4.0324 39.2787 3.50002 39.7197 3.06836C40.0616 2.73383 40.5087 2.49958 41.0518 2.36133C41.2621 1.80616 41.6019 1.27844 42.0977 0.860352C42.7392 0.319327 43.5944 0 44.6416 0C45.0556 0.000222566 45.3916 0.335924 45.3916 0.75C45.3916 1.16408 45.0556 1.49978 44.6416 1.5C43.9135 1.5 43.41 1.71547 43.0645 2.00684C42.9771 2.0805 42.8971 2.16181 42.8242 2.24902C43.2252 2.31887 43.608 2.47769 43.9404 2.67676C44.3943 2.94855 44.8086 3.32652 45.0957 3.75977C45.3765 4.18357 45.5876 4.74471 45.4648 5.33691C45.334 5.96761 44.8697 6.42802 44.2246 6.70312C43.6449 6.9503 43.064 6.99556 42.5312 6.81934C42.0055 6.6454 41.6062 6.28238 41.3301 5.8584C41.0086 5.36482 40.8293 4.754 40.79 4.12109C40.7828 4.12775 40.7753 4.13404 40.7686 4.14062C40.6228 4.28335 40.538 4.46963 40.5098 4.71582C40.4479 5.2554 40.6755 5.93719 40.9199 6.40039C40.9311 6.42162 40.9412 6.4431 40.9502 6.46484C43.7881 9.43113 45.5 13.2135 45.5 17.373Z" fill="#141414"/>
<path d="M24.75 7.75C29.7206 7.75 33.75 11.7794 33.75 16.75C33.75 21.7206 29.7206 25.75 24.75 25.75C19.7794 25.75 15.75 21.7206 15.75 16.75C15.75 11.7794 19.7794 7.75 24.75 7.75ZM24.6631 12C24.2489 12 23.9131 12.3358 23.9131 12.75V13.1045C22.8262 13.4128 22 14.3744 22 15.5654C22.0001 16.1918 22.1663 16.8284 22.6934 17.2852C23.1963 17.7207 23.8913 17.8701 24.6631 17.8701C25.2906 17.8701 25.5979 17.9921 25.7461 18.1162C25.8648 18.2157 26 18.4181 26 18.9355C26 19.3827 25.8507 19.604 25.6807 19.7354C25.4798 19.8905 25.142 20 24.6631 20C24.1875 20 23.7942 19.8016 23.5635 19.5361C23.2918 19.2236 22.8175 19.1912 22.5049 19.4629C22.1926 19.7346 22.1592 20.208 22.4307 20.5205C22.8072 20.9538 23.3272 21.2637 23.9131 21.4082V21.75C23.9131 22.1642 24.2489 22.5 24.6631 22.5C25.0773 22.5 25.4131 22.1642 25.4131 21.75V21.4316C25.837 21.3509 26.247 21.1927 26.5967 20.9229C27.1819 20.4709 27.5 19.7843 27.5 18.9355C27.5 18.1566 27.2869 17.4506 26.71 16.9668C26.1624 16.5078 25.4263 16.3701 24.6631 16.3701C24.0436 16.3701 23.7816 16.243 23.6758 16.1514C23.5947 16.0811 23.5001 15.9404 23.5 15.5654C23.5 15.0141 23.983 14.5 24.6631 14.5C25.1175 14.5 25.4962 14.7369 25.6875 15.0605C25.8984 15.4168 26.3584 15.5349 26.7148 15.3242C27.0712 15.1134 27.1892 14.6533 26.9785 14.2969C26.6376 13.7203 26.0759 13.2916 25.4131 13.1045V12.75C25.4131 12.3358 25.0773 12 24.6631 12Z" fill="#1ED760"/>
</svg>
