<svg width="32" height="32" viewBox="0 0 32 32" fill="none" xmlns="http://www.w3.org/2000/svg">
<path d="M10.6673 9.33398H21.334C23.8481 9.33398 25.1052 9.33398 25.8863 10.115C26.6673 10.8961 26.6673 12.1532 26.6673 14.6673V20.0007C26.6673 24.4004 26.6673 26.6003 25.3005 27.9671C23.9336 29.334 21.7338 29.334 17.334 29.334H14.6673C10.2675 29.334 8.06765 29.334 6.70082 27.9671C5.33398 26.6003 5.33398 24.4004 5.33398 20.0007V14.6673C5.33398 12.1532 5.33398 10.8961 6.11503 10.115C6.89608 9.33398 8.15316 9.33398 10.6673 9.33398Z" stroke="#141414" stroke-width="1.5" stroke-linecap="round" stroke-linejoin="round"/>
<path d="M21.3337 12.667C21.3337 7.51233 18.9458 2.66699 16.0003 2.66699C13.0548 2.66699 10.667 7.51233 10.667 12.667" stroke="#141414" stroke-width="1.5" stroke-linecap="round" stroke-linejoin="round"/>
</svg>
