<svg width="32" height="24" viewBox="0 0 32 24" fill="none" xmlns="http://www.w3.org/2000/svg">
<path d="M20.8428 6.76074C18.5706 6.76074 16.5402 7.93843 16.5402 10.1143C16.5402 12.6096 20.1413 12.7819 20.1413 14.0355C20.1413 14.5633 19.5364 15.0358 18.5033 15.0358C17.0371 15.0358 15.9412 14.3756 15.9412 14.3756L15.4723 16.5713C15.4723 16.5713 16.7347 17.129 18.4108 17.129C20.8949 17.129 22.8496 15.8935 22.8496 13.6804C22.8496 11.0437 19.2335 10.8764 19.2335 9.71292C19.2335 9.29944 19.7301 8.84639 20.7602 8.84639C21.9226 8.84639 22.8709 9.32654 22.8709 9.32654L23.3298 7.20588C23.3298 7.20588 22.2979 6.76074 20.8428 6.76074ZM0.0550172 6.92079L0 7.24089C0 7.24089 0.955887 7.41584 1.81682 7.76481C2.92534 8.16497 3.0043 8.39793 3.191 9.12148L5.22538 16.9639H7.95249L12.1538 6.92079H9.43295L6.73335 13.7492L5.63176 7.96112C5.53073 7.29868 5.01901 6.92079 4.39262 6.92079H0.0550172ZM13.2479 6.92079L11.1135 16.9639H13.708L15.835 6.92079H13.2479ZM27.7187 6.92079C27.093 6.92079 26.7615 7.25575 26.5183 7.84108L22.7171 16.9639H25.438L25.9644 15.4435H29.2792L29.5993 16.9639H32L29.9056 6.92079H27.7187ZM28.0725 9.63414L28.879 13.4028H26.7184L28.0725 9.63414Z" fill="#1434CB"/>
</svg>
