<svg width="18" height="11" viewBox="0 0 18 11" fill="none" xmlns="http://www.w3.org/2000/svg">
<path opacity="0.5" fill-rule="evenodd" clip-rule="evenodd" d="M15.5299 0H16.4856C17.145 0 17.6795 0.515 17.6795 1.149V9.419C17.6795 10.053 17.145 10.568 16.4856 10.568H15.5299C14.8695 10.568 14.3359 10.053 14.3359 9.419V1.149C14.3359 0.515 14.8695 0 15.5299 0" fill="#141414"/>
<path fill-rule="evenodd" clip-rule="evenodd" d="M10.7506 2.29688H11.7063C12.3667 2.29688 12.9002 2.81088 12.9002 3.44588V9.41888C12.9002 10.0529 12.3667 10.5679 11.7063 10.5679H10.7506C10.0902 10.5679 9.55664 10.0529 9.55664 9.41888V3.44588C9.55664 2.81088 10.0902 2.29688 10.7506 2.29688" fill="#141414"/>
<path fill-rule="evenodd" clip-rule="evenodd" d="M5.97224 4.59473H6.928C7.5884 4.59473 8.12192 5.10873 8.12192 5.74273V9.41873C8.12192 10.0527 7.5884 10.5677 6.928 10.5677H5.97224C5.31184 10.5677 4.77832 10.0527 4.77832 9.41873V5.74273C4.77832 5.10873 5.31184 4.59473 5.97224 4.59473" fill="#141414"/>
<path fill-rule="evenodd" clip-rule="evenodd" d="M1.19392 5.97266H2.14968C2.81008 5.97266 3.3436 6.48666 3.3436 7.12066V9.41866C3.3436 10.0527 2.81008 10.5677 2.14968 10.5677H1.19392C0.53456 10.5677 0 10.0527 0 9.41866V7.12066C0 6.48666 0.53456 5.97266 1.19392 5.97266" fill="#141414"/>
</svg>
