<svg width="18" height="13" viewBox="0 0 18 13" fill="none" xmlns="http://www.w3.org/2000/svg">
<path opacity="0.5" fill-rule="evenodd" clip-rule="evenodd" d="M15.5299 0H16.4856C17.145 0 17.6795 0.566701 17.6795 1.26435V10.3646C17.6795 11.0622 17.145 11.6289 16.4856 11.6289H15.5299C14.8695 11.6289 14.3359 11.0622 14.3359 10.3646V1.26435C14.3359 0.566701 14.8695 0 15.5299 0Z" fill="#141414"/>
<path fill-rule="evenodd" clip-rule="evenodd" d="M10.7506 2.52832H11.7063C12.3667 2.52832 12.9002 3.09392 12.9002 3.79267V10.3653C12.9002 11.063 12.3667 11.6297 11.7063 11.6297H10.7506C10.0902 11.6297 9.55664 11.063 9.55664 10.3653V3.79267C9.55664 3.09392 10.0902 2.52832 10.7506 2.52832Z" fill="#141414"/>
<path fill-rule="evenodd" clip-rule="evenodd" d="M5.97224 5.05566H6.928C7.5884 5.05566 8.12192 5.62127 8.12192 6.31891V10.364C8.12192 11.0616 7.5884 11.6283 6.928 11.6283H5.97224C5.31184 11.6283 4.77832 11.0616 4.77832 10.364V6.31891C4.77832 5.62127 5.31184 5.05566 5.97224 5.05566Z" fill="#141414"/>
<path fill-rule="evenodd" clip-rule="evenodd" d="M1.19392 6.57227H2.14968C2.81008 6.57227 3.3436 7.13787 3.3436 7.83551V10.3642C3.3436 11.0619 2.81008 11.6286 2.14968 11.6286H1.19392C0.53456 11.6286 0 11.0619 0 10.3642V7.83551C0 7.13787 0.53456 6.57227 1.19392 6.57227Z" fill="#141414"/>
</svg>
