<svg width="16" height="11" viewBox="0 0 16 11" fill="none" xmlns="http://www.w3.org/2000/svg">
<path fill-rule="evenodd" clip-rule="evenodd" d="M7.4113 6.60059C6.30162 6.60059 5.37602 7.32559 5.11914 8.29959L7.51946 10.5686L9.7409 8.46859C9.5537 7.40959 8.58546 6.60059 7.4113 6.60059" fill="#141414"/>
<path fill-rule="evenodd" clip-rule="evenodd" d="M7.41066 3.38965C5.37746 3.38965 3.59386 4.38665 2.56738 5.88865L4.04834 7.28665C4.65882 6.10765 5.92762 5.28965 7.41066 5.28965C8.94986 5.28965 10.2707 6.16665 10.851 7.41965L12.3361 6.01565C11.3252 4.44365 9.50002 3.38965 7.41066 3.38965" fill="#141414"/>
<path opacity="0.5" fill-rule="evenodd" clip-rule="evenodd" d="M7.41104 0C4.38984 0 1.70976 1.36 0 3.462L1.48928 4.869C2.80592 3.119 4.96496 1.973 7.41104 1.973C9.91224 1.973 12.1181 3.168 13.4254 4.986L14.9157 3.579C13.2101 1.411 10.4884 0 7.41104 0" fill="#141414"/>
</svg>
