<svg width="26" height="11" viewBox="0 0 26 11" fill="none" xmlns="http://www.w3.org/2000/svg">
<path fill-rule="evenodd" clip-rule="evenodd" d="M12.971 9H3.67024C2.79248 9 2.08008 8.316 2.08008 7.472V3.528C2.08008 2.685 2.79248 2 3.67024 2H12.971C13.8487 2 14.5601 2.685 14.5601 3.528V7.472C14.5601 8.316 13.8487 9 12.971 9Z" fill="#141414"/>
<path opacity="0.5" fill-rule="evenodd" clip-rule="evenodd" d="M21.84 8.415C21.84 9.29 21.1016 10 20.1916 10H2.6884C1.7784 10 1.04 9.29 1.04 8.415V2.585C1.04 1.71 1.7784 1 2.6884 1H20.1916C21.1016 1 21.84 1.71 21.84 2.585V8.415ZM20.5348 0H2.3452C1.0504 0 0 1.01 0 2.255V8.745C0 9.99 1.0504 11 2.3452 11H20.5348C21.8296 11 22.88 9.99 22.88 8.745V2.255C22.88 1.01 21.8296 0 20.5348 0Z" fill="#141414"/>
<path opacity="0.5" fill-rule="evenodd" clip-rule="evenodd" d="M23.6602 7.5V3.5C24.5213 3.5 25.2202 4.172 25.2202 5V6C25.2202 6.829 24.5213 7.5 23.6602 7.5Z" fill="#141414"/>
</svg>
